<svg width="336" height="57" viewBox="0 0 336 57" fill="none" xmlns="http://www.w3.org/2000/svg">
<g clip-path="url(#clip0_1535_6775)">
<path d="M2.01439 0H0V101H2.01439V0Z" fill="#838EAA"/>
<path d="M10.4749 0H7.48206V101H10.4749V0Z" fill="#838EAA"/>
<path d="M17.9569 0H15.9425V101H17.9569V0Z" fill="#838EAA"/>
<path d="M28.259 0H26.2446V101H28.259V0Z" fill="#838EAA"/>
<path d="M41.1511 0H35.1655V101H41.1511V0Z" fill="#838EAA"/>
<path d="M48.6331 0H45.6403V101H48.6331V0Z" fill="#838EAA"/>
<path d="M59.223 0H56.2302V101H59.223V0Z" fill="#838EAA"/>
<path d="M76.0288 0H70.0432V101H76.0288V0Z" fill="#838EAA"/>
<path d="M90.59 0H84.6044V101H90.59V0Z" fill="#838EAA"/>
<path d="M98.2446 0H96.2302V101H98.2446V0Z" fill="#838EAA"/>
<path d="M106.532 0H104.518V101H106.532V0Z" fill="#838EAA"/>
<path d="M120.633 0H117.64V101H120.633V0Z" fill="#838EAA"/>
<path d="M131.914 0H128.921V101H131.914V0Z" fill="#838EAA"/>
<path d="M144.691 0H138.705V101H144.691V0Z" fill="#838EAA"/>
<path d="M151.482 0H148.489V101H151.482V0Z" fill="#838EAA"/>
<path d="M162.763 0H159.77V101H162.763V0Z" fill="#838EAA"/>
<path d="M172.95 0H170.935V101H172.95V0Z" fill="#838EAA"/>
<path d="M185.209 0H183.194V101H185.209V0Z" fill="#838EAA"/>
<path d="M196.662 0H193.669V101H196.662V0Z" fill="#838EAA"/>
<path d="M203.281 0H200.288V101H203.281V0Z" fill="#838EAA"/>
<path d="M211.741 0H209.727V101H211.741V0Z" fill="#838EAA"/>
<path d="M219.05 0H217.036V101H219.05V0Z" fill="#838EAA"/>
<path d="M233.669 0H227.683V101H233.669V0Z" fill="#838EAA"/>
<path d="M243.741 0H240.748V101H243.741V0Z" fill="#838EAA"/>
<path d="M267.511 0H265.496V101H267.511V0Z" fill="#838EAA"/>
<path d="M280.115 0H274.13V101H280.115V0Z" fill="#838EAA"/>
<path d="M287.885 0H284.892V101H287.885V0Z" fill="#838EAA"/>
<path d="M304.173 0H301.18V101H304.173V0Z" fill="#838EAA"/>
<path d="M315.28 0H313.266V101H315.28V0Z" fill="#838EAA"/>
<path d="M328.575 0H322.59V101H328.575V0Z" fill="#838EAA"/>
<path d="M336 0H333.007V101H336V0Z" fill="#838EAA"/>
</g>
<defs>
<clipPath id="clip0_1535_6775">
<rect width="336" height="57" fill="white"/>
</clipPath>
</defs>
</svg>
