<svg width="40" height="40" viewBox="0 0 40 40" fill="none" xmlns="http://www.w3.org/2000/svg">
<g clip-path="url(#clip0_108_9075)">
<path d="M4.60271 27.8527L3.59669 25.4595H3.19528C0.645751 29.9898 -0.484014 34.0209 0.193017 36.6966L2.91911 34.006C2.63364 32.6619 3.16763 30.6504 4.37099 28.2447L4.60271 27.8527Z" fill="#FFE02F"/>
<path d="M1.30226 35.6018L2.91913 34.006C2.63366 32.6619 3.16765 30.6504 4.37101 28.2447L4.60273 27.8527L3.59671 25.4595H3.19531C2.45624 26.7727 1.83741 28.0435 1.3464 29.252C0.497415 31.9063 0.435149 34.1269 1.30226 35.6018Z" fill="#FBC700"/>
<path d="M25.4597 3.19507V3.57343L27.782 4.56609L28.2449 4.37085C30.85 3.06773 32.9929 2.54953 34.3266 3.0071L37.0679 0.3014C34.4019 -0.588053 30.2046 0.52476 25.4597 3.19507Z" fill="#FFE02F"/>
<path d="M28.2448 4.37085C30.8499 3.06773 32.9928 2.54953 34.3265 3.00711L35.8701 1.48351C34.399 0.431402 32.0568 0.447183 29.2213 1.35867C28.0221 1.84765 26.7616 2.46234 25.4596 3.19507V3.57343L27.7819 4.56609L28.2448 4.37085Z" fill="#FBC700"/>
<path d="M34.8284 10.8009L26.5746 4.80759L26.2442 3.47064C25.9844 3.37267 25.7229 3.2804 25.4597 3.19509C25.4603 3.1947 25.4609 3.19439 25.4616 3.194C24.6527 2.93189 23.8465 2.73103 23.0462 2.58673V2.58806L20.0427 3.47064L3.76095 15.3107L2.35548 18.6509L2.35438 18.6515C2.24579 20.1066 2.32134 21.6061 2.60235 23.1264L2.60352 23.1259L3.47587 23.4261L9.43165 32.5744L9.15852 33.9503C9.40134 34.1395 9.64774 34.3229 9.89891 34.4983L12.3291 34.6288L17.8652 30.6192L26.404 22.9651L34.9718 11.1927L34.8284 10.8009Z" fill="#FF9838"/>
<path d="M2.60352 23.1259L3.47587 23.4261L9.43165 32.5744L9.15852 33.9503C9.40133 34.1395 9.64774 34.3229 9.89891 34.4983L12.3291 34.6288L16.2274 31.8054C11.2228 28.334 7.94477 22.5485 7.94477 15.9966C7.94477 14.6112 8.09259 13.2607 8.37094 11.9584L3.76094 15.3109L2.35548 18.651L2.35438 18.6516C2.24579 20.1067 2.32134 21.6062 2.60235 23.1266L2.60352 23.1259Z" fill="#FF8706"/>
<path d="M31.094 30.1737L36.7424 24.0297L37.4976 22.6534L37.4977 22.6534C37.891 20.0706 37.7067 17.3189 36.8054 14.5379L35.8905 14.6734L28.1037 24.7872L20.7161 31.2756L31.094 30.1737Z" fill="#FF9838"/>
<path d="M20.802 6.35593C21.8577 5.30014 22.6275 4.00186 23.0461 2.58804C12.5623 0.697332 3.105 8.61804 2.35547 18.6508L4.93297 16.0733C6.45398 14.5523 8.46922 13.632 10.5942 13.488C12.7192 13.3438 14.7345 12.4235 16.2555 10.9025L20.802 6.35593Z" fill="#FFAA5B"/>
<path d="M8.04195 14.0545C8.40883 10.3962 9.80203 7.04094 11.9282 4.27899C6.61703 7.04579 2.81922 12.4434 2.35547 18.6509L4.93297 16.0734C5.82492 15.1814 6.88758 14.498 8.04195 14.0545Z" fill="#FF9838"/>
<path d="M34.4983 9.89877C34.1449 9.39275 33.7617 8.904 33.3534 8.4333L32.6511 8.25494L29.7671 5.58556L29.6322 5.18549C29.1853 4.89424 28.723 4.62189 28.2463 4.3701C28.2458 4.37033 28.2452 4.37056 28.2448 4.37088C27.5935 4.02697 26.9251 3.72744 26.2441 3.47064L26.1655 3.94213C25.8359 5.91963 24.8967 7.74463 23.4791 9.1622L18.4845 14.157C16.8135 15.8279 14.5859 16.8253 12.2266 16.9588C9.86726 17.0924 7.63969 18.0898 5.96867 19.7607L2.60352 23.1259C2.74672 23.9001 2.9407 24.6795 3.19414 25.4614C3.19445 25.4607 3.19484 25.4602 3.19516 25.4595C3.35992 25.9678 3.54898 26.4699 3.76086 26.9645H4.12977L6.57445 30.7097L6.58445 31.494C7.36523 32.4035 8.22961 33.2267 9.15844 33.9501L15.3559 27.7526C16.2442 26.8643 16.8825 25.7574 17.2062 24.5435L17.7119 22.6472C18.0356 21.4334 18.6737 20.3264 19.562 19.4381L23.1934 15.8067C24.0623 14.9378 25.1408 14.3079 26.3244 13.9778L33.3837 12.0093L34.0394 11.8161L34.7105 10.4789L34.4983 9.89877Z" fill="#FFAA5B"/>
<path d="M3.19523 25.4596C3.36 25.9679 3.54906 26.47 3.76094 26.9646H4.12984L6.57453 30.7098L6.58453 31.4941C7.36531 32.4036 8.22969 33.2268 9.15851 33.9502L13.5468 29.5619C10.5659 26.5678 8.56633 22.5969 8.06797 18.1712C7.30453 18.599 6.59719 19.1321 5.96867 19.7607L2.60352 23.1258C2.74672 23.9 2.9407 24.6794 3.19414 25.4614C3.19445 25.4608 3.19484 25.4602 3.19523 25.4596Z" fill="#FF9838"/>
<path d="M12.0486 26.0303C12.8153 25.2636 13.3718 24.3126 13.6646 23.2687C14.0972 21.7266 12.6758 20.3051 11.1336 20.7377C10.0897 21.0305 9.13864 21.587 8.372 22.3536L3.76099 26.9647C3.94646 27.3975 4.14927 27.8247 4.37099 28.2447C4.37075 28.2452 4.37052 28.2457 4.37021 28.2462C4.99106 29.4221 5.73888 30.5087 6.5845 31.4943L12.0486 26.0303Z" fill="#FFBA7E"/>
<path d="M4.37021 28.2462C4.99106 29.4221 5.73888 30.5087 6.5845 31.4943L11.271 26.8078C10.2517 25.3115 9.43872 23.6637 8.87138 21.9055C8.69771 22.0457 8.53067 22.1948 8.372 22.3535L3.76099 26.9645C3.94646 27.3974 4.14927 27.8246 4.37099 28.2446C4.37075 28.2452 4.37052 28.2457 4.37021 28.2462Z" fill="#FFAA5B"/>
<path d="M29.6322 5.18549L28.9062 7.37056C28.5666 8.3926 29.4865 9.38799 30.5322 9.12986L33.3534 8.4333C32.2849 7.20158 31.0354 6.10002 29.6322 5.18549Z" fill="#FFBA7E"/>
<path d="M32.0251 28.1259C30.7723 29.3788 29.0916 30.1107 27.3211 30.1748L23.5735 30.3102L22.1345 30.5623L14.538 36.1962V36.8054C25.4786 40.3513 35.9516 32.8071 37.4976 22.6534L32.0251 28.1259Z" fill="#FFAA5B"/>
<path d="M27.1724 35.2239C24.0833 35.2239 21.1649 34.4942 18.5785 33.1996L14.5382 36.1961V36.8053C19.8316 38.5209 25.0156 37.6402 29.1319 35.1241C28.4874 35.1894 27.834 35.2239 27.1724 35.2239Z" fill="#FF9838"/>
<path d="M36.5657 0.16156L33.8074 2.8839C34.3528 2.96414 34.8006 3.16554 35.1335 3.49851C37.6657 6.0307 32.6367 15.1652 23.9009 23.9009C15.1652 32.6366 6.03071 37.6656 3.49852 35.1334C3.09352 34.7284 2.88282 34.1539 2.84891 33.4397L0.085083 36.1677C0.247271 37.1986 0.643208 38.0589 1.29188 38.7076C5.18977 42.6055 16.7254 37.3895 27.0574 27.0574C37.3895 16.7254 42.6056 5.18961 38.7077 1.29172C38.1444 0.728513 37.4213 0.356169 36.5657 0.16156Z" fill="#FFE02F"/>
<path d="M36.3112 1.85447C36.0657 1.60884 35.7854 1.40462 35.4755 1.23767L33.8076 2.88392C34.353 2.96416 34.8007 3.16556 35.1337 3.49853C37.6659 6.03072 32.6369 15.1652 23.9011 23.9009C15.1653 32.6367 6.03081 37.6656 3.49862 35.1334C3.09362 34.7284 2.88292 34.1539 2.84901 33.4397L1.08752 35.1783C1.27518 35.6107 1.52807 35.992 1.85081 36.3148C5.41151 39.8755 16.0121 35.0477 25.5282 25.5317C35.0442 16.0159 39.8719 5.41517 36.3112 1.85447Z" fill="#FBC700"/>
</g>
<defs>
<clipPath id="clip0_108_9075">
<rect width="40" height="40" fill="white"/>
</clipPath>
</defs>
</svg>
