<svg width="104" height="66" viewBox="0 0 104 66" fill="none" xmlns="http://www.w3.org/2000/svg">
<path fill-rule="evenodd" clip-rule="evenodd" d="M103.338 61.0912C100.084 61.1523 96.9788 61.361 93.7972 61.4943C93.5909 57.7235 93.0976 53.957 92.9234 50.2737C92.7406 46.395 92.57 42.6941 91.9829 39.1206C91.4302 35.7531 90.4604 32.6335 89.3628 29.6463C87.1147 23.5282 84.1382 19.0579 79.7547 15.0659C75.3928 11.0942 70.4442 8.51773 62.6884 7.94411C58.9138 7.66517 55.27 8.07732 51.3334 8.41419C47.5856 8.73531 44.1278 9.19227 41.1206 10.2957C38.1729 11.3772 35.4629 12.5896 32.9234 14.1928C25.4445 18.9152 19.6091 25.0026 15.5211 33.0733C11.4856 41.0392 9.36567 50.9065 8.86955 62.6371C5.7665 62.5577 3.03019 62.8441 0 62.8381C0.0435969 60.5071 0.529218 58.2838 0.739129 56.0519C0.949242 53.8131 1.28712 51.5996 1.61288 49.4672C2.27693 45.1125 3.06773 41.0243 4.23294 37.1718C5.41389 33.2689 6.80576 29.7906 8.46608 26.489C10.1183 23.2026 12.1421 20.3482 14.5133 17.6192C16.876 14.9 19.616 12.7341 22.5761 10.6986C25.5837 8.63076 28.7263 6.89637 32.2514 5.45787C35.7977 4.0107 39.3937 2.61075 43.4046 1.69542C46.4933 0.989994 49.5865 0.455527 53.1473 0.216955C54.3355 0.137835 55.7294 0.0712288 56.9097 0.0153198C58.954 -0.0809567 61.0446 0.295269 63.0238 0.620227C64.9655 0.938929 66.8395 1.36582 68.5334 1.82964C72.1396 2.81662 75.1236 4.25734 78.0072 5.79373C81.0132 7.39511 83.6637 9.1626 86.1372 11.1019C88.6289 13.0561 90.6699 15.5459 92.3857 18.2913C94.1474 21.1082 95.7255 24.0788 96.8207 27.2945C97.9482 30.6066 98.7911 34.1551 99.6426 37.9101C100.475 41.5814 101.273 45.2314 101.994 48.9967C102.722 52.7943 103.39 56.7567 103.338 61.0912Z" fill="#6F6AAD"/>
<path fill-rule="evenodd" clip-rule="evenodd" d="M88.7576 65.2569C85.7936 65.4648 82.734 65.1897 79.6872 65.2569C79.4955 59.3166 79.1913 53.1404 78.7463 47.1832C78.5311 44.3021 78.3087 41.3494 77.8729 38.5825C77.444 35.8581 77.0036 33.1684 75.9916 30.9903C74.6544 28.1115 72.111 25.0081 69.6087 23.0619C68.7046 22.3589 67.7211 21.8844 66.5851 21.3823C64.4277 20.4286 61.9221 19.5607 59.1938 19.2991C53.3462 18.738 48.1325 21.0704 44.009 22.9947C41.877 23.9898 39.862 25.2073 38.1638 26.6228C34.7075 29.5036 31.5122 32.7374 29.2272 36.6341C26.872 40.6501 25.1937 45.1406 23.5834 49.9378C21.9758 54.726 20.7196 59.8977 20.3585 65.6606C17.9205 65.5141 15.1525 65.5998 12.6987 65.6606C13.1999 58.2142 14.6907 51.313 16.5956 45.1C19.4345 35.8389 23.8549 27.9914 30.7057 22.5243C35.1927 18.9432 40.4266 15.9024 46.6967 14.058C49.8792 13.1223 53.3177 12.4154 56.9767 12.1766C60.266 11.9617 63.6205 12.7353 66.1145 13.8563C67.29 14.3849 68.3789 15.1227 69.4738 15.8053C70.6011 16.5077 71.7926 17.0916 72.8332 17.7538C74.9919 19.1261 76.8682 20.8651 78.3428 22.8601C79.857 24.9073 81.2634 27.1102 82.3743 29.4445C85.8552 36.7574 87.1544 45.7428 88.4214 55.2458C88.8493 58.4516 89.046 61.8111 88.7576 65.2569Z" fill="#00AF93"/>
<path fill-rule="evenodd" clip-rule="evenodd" d="M72.2292 57.866C69.6467 57.904 66.9086 57.7863 64.435 57.9332C63.7882 52.5308 64.1733 45.8163 63.1584 40.5314C62.8014 38.6729 62.451 36.8858 61.7474 35.5595C60.4397 33.0941 58.2239 31.0682 54.4909 31.0573C51.23 31.0483 48.2616 32.5221 46.0922 34.0813C43.7828 35.741 42.0244 37.7765 40.5155 39.9267C37.2187 44.6243 35.2766 50.0551 33.8639 56.1193C31.3222 56.1084 28.8751 56.192 26.406 56.2537C27.6031 52.5153 29.017 48.7728 30.3701 45.033C31.7109 41.3272 32.9568 37.5436 34.9389 34.4169C36.8798 31.3555 39.2348 28.649 42.5314 26.8244C44.0886 25.9626 45.8716 25.1915 47.7721 24.4728C49.5856 23.7869 51.716 23.0819 53.819 22.9271C58.1795 22.6068 61.2688 24.3422 63.8301 26.3539C66.4044 28.3751 68.5977 30.5756 69.8102 33.7452C72.3075 40.2708 72.5598 49.1729 72.2292 57.866Z" fill="#FFAC42"/>
<path fill-rule="evenodd" clip-rule="evenodd" d="M61.4791 61.6959C59.3336 61.8576 57.1634 61.994 54.8271 61.9648C54.7103 58.4043 55.2078 54.5119 54.7599 50.8112C54.4854 48.5416 53.4171 45.3109 50.7288 45.7719C49.6028 45.9649 48.7068 46.9884 48.0407 47.9219C46.0242 50.7476 45.2122 54.7985 44.8158 59.1425C42.5417 58.9087 40.1759 58.766 37.7607 58.6722C38.673 53.7084 39.6096 48.772 41.5904 44.8312C42.6224 42.7783 43.899 41.2784 45.5547 39.9265C47.2849 38.5132 49.3014 37.5644 52.0722 37.3731C54.2828 37.2207 56.4319 38.0757 57.649 39.2546C59.7968 41.3347 60.7682 45.0455 61.4113 48.9969C62.066 53.0145 61.8757 57.7258 61.4791 61.6959Z" fill="#FF4E4E"/>
<path fill-rule="evenodd" clip-rule="evenodd" d="M49.0172 6.10435C48.7393 4.73427 50.6947 4.73084 51.8914 4.63557C53.2209 4.52941 55.9354 4.2099 55.282 5.95075C54.972 6.77445 53.5834 6.69674 52.5007 6.79524C51.3375 6.90161 49.2576 7.28631 49.0172 6.10435Z" fill="#F8FAFF"/>
<path fill-rule="evenodd" clip-rule="evenodd" d="M56.6202 1.47724C57.0824 3.33798 52.379 3.0104 52.6206 1.70935C52.8018 0.72842 55.9212 0.674933 56.6202 1.47724Z" fill="#F8FAFF"/>
<path fill-rule="evenodd" clip-rule="evenodd" d="M59.4393 4.89718C59.1553 5.43185 58.7522 5.69525 58.3304 5.62884C56.1915 5.29197 58.8192 2.99546 59.4393 4.89718Z" fill="#F8FAFF"/>
<path fill-rule="evenodd" clip-rule="evenodd" d="M3.03637 44.4983C1.88448 44.5546 1.90931 43.407 2.24961 42.0981C2.53723 40.9894 3.5226 38.3913 4.56973 39.5204C4.79317 39.7608 4.71142 41.1401 4.61777 41.8526C4.4339 43.2504 3.87622 44.4577 3.03637 44.4983Z" fill="#F8FAFF"/>
<path fill-rule="evenodd" clip-rule="evenodd" d="M7.28417 40.3633C5.63132 40.4509 6.82075 37.4649 7.90401 37.745C8.54182 37.9093 8.39286 39.4213 7.96396 40.0105C7.78937 40.2504 7.55039 40.3489 7.28417 40.3633Z" fill="#F8FAFF"/>
<path fill-rule="evenodd" clip-rule="evenodd" d="M41.9438 33.3082C41.2053 32.7691 41.7925 32.0734 42.6543 31.4348C43.3852 30.8942 45.2877 29.7823 45.3713 31.001C45.3892 31.2604 44.6511 32.071 44.2389 32.4635C43.429 33.2344 42.4823 33.7018 41.9438 33.3082Z" fill="#F8FAFF"/>
<path fill-rule="evenodd" clip-rule="evenodd" d="M44.1497 29.0398C42.9617 28.2607 45.6076 26.1935 46.1897 27.5708C46.383 28.0286 45.857 28.2696 45.3521 28.6408C44.8236 29.0287 44.5683 29.3141 44.1497 29.0398Z" fill="#F8FAFF"/>
<path fill-rule="evenodd" clip-rule="evenodd" d="M87.3686 49.6387C86.289 50.0434 85.9626 48.943 85.887 47.5935C85.8232 46.4493 85.9691 43.6752 87.3107 44.4307C87.5967 44.5914 87.9396 45.9296 88.0678 46.6366C88.3191 48.0238 88.1562 49.3436 87.3686 49.6387Z" fill="#F8FAFF"/>
<path fill-rule="evenodd" clip-rule="evenodd" d="M90.1526 44.4048C88.6051 44.9924 88.8269 41.7858 89.9441 41.7222C90.6015 41.6847 90.9208 43.1698 90.6925 43.8611C90.5992 44.1433 90.4016 44.3102 90.1526 44.4048Z" fill="#F8FAFF"/>
<path fill-rule="evenodd" clip-rule="evenodd" d="M86.6715 42.6158C85.0279 43.3276 84.6822 39.1086 86.5365 39.4489C87.1523 39.5622 87.0429 40.2835 87.0835 41.0725C87.1266 41.8982 87.2504 42.3649 86.6715 42.6158Z" fill="#F8FAFF"/>
</svg>
