<svg width="40" height="40" viewBox="0 0 40 40" fill="none" xmlns="http://www.w3.org/2000/svg">
<g clip-path="url(#clip0_114_9410)">
<path d="M32.8684 27.8591C30.2197 32.1883 25.4471 35.0769 20 35.0769C19.7038 35.0769 19.41 35.0681 19.1179 35.0511C11.6941 31.0681 6.96255 23.7344 4.9231 20.0049V20C4.9231 14.7566 7.59997 10.1377 11.6619 7.43665C13.7456 9.98555 17.8623 13.8752 23.3247 16.9996C25.4647 20.8346 28.5207 24.7573 32.8684 27.8591Z" fill="#FCB44D"/>
<path d="M32.8814 27.868C30.1997 32.264 25.3305 35.1566 19.7748 35.0753C19.5542 35.0721 19.3353 35.0641 19.1181 35.0512C18.0911 34.5007 17.1156 33.885 16.1917 33.2242C16.5522 33.2508 16.9168 33.2637 17.2838 33.2637C17.8134 33.2637 18.3366 33.2363 18.8524 33.1824C19.7957 33.0851 20.1643 31.9076 19.4464 31.287C17.5961 29.6862 15.7321 27.951 13.8907 26.1095C10.6706 22.8894 7.7611 19.584 5.34985 16.425C5.85688 14.3413 6.79696 12.4258 8.06939 10.7816C10.6408 14.4201 14.034 18.3912 17.8215 22.1787C20.7599 25.1172 23.7483 27.7707 26.6344 30.0137C28.1008 28.8523 29.3459 27.4254 30.2972 25.8045C31.1035 26.5231 31.9638 27.2144 32.8814 27.868Z" fill="#FCA62F"/>
<path d="M20.7613 35.0584C20.5094 35.0705 20.2551 35.0769 20 35.0769C11.6733 35.0769 4.9231 28.3268 4.9231 20C4.9231 19.4567 4.95208 18.9199 5.00841 18.3912C6.65349 21.6443 11.9042 30.792 20.7597 35.0576C20.7605 35.0576 20.7605 35.0584 20.7613 35.0584Z" fill="#915EB2"/>
<path d="M20.7615 35.0584C20.4355 35.0745 20.1063 35.0801 19.7748 35.0752C16.182 35.0221 12.8935 33.7127 10.3301 31.567C12.4105 32.6511 14.7752 33.2635 17.2838 33.2635C17.3973 33.2635 17.51 33.2619 17.6227 33.2595C18.6126 33.921 19.658 34.527 20.7598 35.0574C20.7607 35.0576 20.7607 35.0584 20.7615 35.0584Z" fill="#804EA0"/>
<path d="M22.4122 17.4326C16.718 14.1851 13.0415 10.4241 11.0327 7.87928C13.0134 6.41124 15.3659 5.41733 17.9237 5.06561C18.45 7.76897 19.6829 12.5255 22.4122 17.4326Z" fill="#FB6A3B"/>
<path d="M35.0769 20C35.0769 23.2032 34.0773 26.1738 32.3735 28.6157C22.1361 21.5533 18.8757 9.95416 17.9236 5.06564C18.602 4.9715 19.2958 4.92322 20.0001 4.92322C20.9715 4.92322 21.922 5.01494 22.8419 5.19041C23.8833 8.56501 26.9602 15.6484 35.0536 19.1599C35.0689 19.4382 35.0769 19.7183 35.0769 20Z" fill="#FEE7C9"/>
<path d="M35.0768 20.0676C35.0623 23.2588 34.0716 26.2044 32.3871 28.6253C32.3822 28.6221 32.3782 28.6189 32.3734 28.6156C31.4559 27.983 30.5947 27.3134 29.7859 26.6156C31.4108 24.2092 32.3606 21.3094 32.3606 18.1866C32.3606 18.0418 32.3582 17.8977 32.3541 17.7545C33.1855 18.2663 34.0828 18.7388 35.0535 19.1589C35.0703 19.4591 35.0785 19.7626 35.0768 20.0676Z" fill="#FFD597"/>
<path d="M35.0762 19.8704C25.9414 16.293 22.8468 8.23104 21.9583 5.04956C29.3184 6.00323 35.0126 12.2657 35.0762 19.8704Z" fill="#A176BD"/>
<path d="M32.355 18.5843C32.3591 18.4523 32.3606 18.3195 32.3606 18.1867C32.3606 13.5396 30.2576 9.38349 26.9514 6.6181C31.7434 9.11224 35.0279 14.1054 35.0762 19.8704C34.1015 19.4889 33.196 19.0559 32.355 18.5843Z" fill="#915EB2"/>
<path d="M34.0548 25.4647C33.7177 26.3341 33.2963 27.1788 32.7913 27.9854C35.0066 31.0473 36.0534 33.2613 35.409 33.9057C34.1169 35.1977 26.5066 29.6836 18.4115 21.5885C10.3165 13.4934 4.80223 5.88313 6.09426 4.5911C6.73872 3.94665 8.9527 4.99344 12.0146 7.20876C12.8212 6.70368 13.6659 6.28235 14.5353 5.94524C7.92622 1.06094 2.46465 -1.19929 0.632701 0.632585C-2.113 3.37829 4.3327 14.2748 15.029 24.971C25.7252 35.6673 36.6218 42.113 39.3674 39.3673C41.1993 37.5354 38.9391 32.0738 34.0548 25.4647Z" fill="#FFE584"/>
<path d="M39.9276 38.2737C39.8342 38.718 39.6491 39.0858 39.3674 39.3674C36.6213 42.1127 25.7255 35.6677 15.0286 24.9715C4.3324 14.2745 -2.11268 3.3787 0.632555 0.632605C0.914274 0.350886 1.28209 0.165808 1.72631 0.0724487C0.90943 3.95893 7.0849 13.7183 16.6833 23.3167C26.2816 32.9152 36.041 39.0906 39.9276 38.2737Z" fill="#FCC16D"/>
</g>
<defs>
<clipPath id="clip0_114_9410">
<rect width="40" height="40" fill="white"/>
</clipPath>
</defs>
</svg>
