<svg width="417" height="335" viewBox="0 0 417 335" fill="none" xmlns="http://www.w3.org/2000/svg">
<path d="M208.151 228.828C319.184 228.828 409.194 191.346 409.194 145.11C409.194 98.8744 319.184 61.3928 208.151 61.3928C97.1176 61.3928 7.10742 98.8744 7.10742 145.11C7.10742 191.346 97.1176 228.828 208.151 228.828Z" fill="#AAE1F9"/>
<path d="M242.349 195.341C170.459 195.341 104.801 170.711 54.3734 130.13C102.416 100.272 161.324 83.9627 222.016 83.7175C288.338 84.1005 352.318 103.509 402.463 138.458C353.38 90.973 284.513 61.3928 208.151 61.3928C128.26 61.3928 56.5086 93.7636 7.10742 145.11C56.5086 196.457 128.26 228.828 208.151 228.828C287.265 228.828 358.365 197.071 407.718 146.567C361.293 177.778 302.831 195.021 242.349 195.341V195.341Z" fill="#57B7EB"/>
<path d="M312.138 145.11C312.162 130.835 307.651 116.793 299.034 104.317C290.418 91.8405 277.982 81.3454 262.908 73.8284C247.834 66.3115 230.623 62.0226 212.911 61.369C195.198 60.7155 177.572 63.7192 161.707 70.0946C145.843 76.47 132.266 86.0054 122.269 97.7948C112.271 109.584 106.184 123.236 104.585 137.453C102.987 151.669 105.931 165.979 113.137 179.022C120.343 192.065 131.572 203.408 145.757 211.973V228.828H270.543V211.973C283.454 204.197 293.935 194.106 301.156 182.499C308.376 170.893 312.136 158.091 312.138 145.11V145.11Z" fill="#F9E109"/>
<path d="M277.477 228.828H138.826C131.169 228.828 124.961 233.825 124.961 239.99C124.961 246.155 131.169 251.153 138.826 251.153H277.477C285.134 251.153 291.342 246.155 291.342 239.99C291.342 233.825 285.134 228.828 277.477 228.828Z" fill="#D0D8DA"/>
<path d="M277.477 251.153H138.826C131.169 251.153 124.961 256.15 124.961 262.315C124.961 268.48 131.169 273.477 138.826 273.477H277.477C285.134 273.477 291.342 268.48 291.342 262.315C291.342 256.15 285.134 251.153 277.477 251.153Z" fill="#D0D8DA"/>
<path d="M145.758 273.477H270.543V279.058C270.543 292.38 263.97 305.156 252.269 314.577C240.568 323.997 224.698 329.289 208.151 329.289C191.603 329.289 175.733 323.997 164.032 314.577C152.331 305.156 145.758 292.38 145.758 279.058V273.477Z" fill="#93999A"/>
<path d="M284.409 200.922C247.636 200.922 212.37 189.162 186.368 168.228C160.366 147.295 145.758 118.903 145.758 89.2988C145.759 85.4626 146.002 81.629 146.486 77.8127C133.428 85.5327 122.798 95.6082 115.449 107.231C108.099 118.855 104.234 131.703 104.163 144.745C104.092 157.788 107.818 170.662 115.041 182.337C122.265 194.011 132.785 204.161 145.758 211.973V228.828H270.544V211.973C275.922 208.668 280.893 204.955 285.386 200.883C285.054 200.883 284.735 200.922 284.409 200.922Z" fill="#FCBC04"/>
<path d="M208.151 184.179C234.952 184.179 256.678 166.687 256.678 145.11C256.678 123.534 234.952 106.042 208.151 106.042C181.35 106.042 159.623 123.534 159.623 145.11C159.623 166.687 181.35 184.179 208.151 184.179Z" fill="#57B7EB"/>
<path d="M235.882 139.529C247.368 139.529 256.679 132.033 256.679 122.786C256.679 113.539 247.368 106.042 235.882 106.042C224.395 106.042 215.084 113.539 215.084 122.786C215.084 132.033 224.395 139.529 235.882 139.529Z" fill="#AAE1F9"/>
<path d="M160.321 138.848C159.143 144.437 159.498 150.165 161.363 155.631C163.228 161.097 166.557 166.168 171.116 170.488C175.674 174.808 181.352 178.272 187.751 180.637C194.15 183.002 201.114 184.211 208.155 184.178C209.236 184.178 210.304 184.106 211.372 184.05C189.478 173.084 171.803 157.434 160.321 138.848V138.848Z" fill="#4891D3"/>
<path d="M145.759 228.828H138.826C135.149 228.828 131.622 230.004 129.022 232.097C126.422 234.191 124.961 237.03 124.961 239.99C124.961 242.951 126.422 245.79 129.022 247.883C131.622 249.977 135.149 251.153 138.826 251.153H277.477C281.154 251.153 284.681 249.977 287.281 247.883C289.881 245.79 291.342 242.951 291.342 239.99H159.624C155.946 239.99 152.42 238.814 149.82 236.721C147.219 234.628 145.759 231.788 145.759 228.828Z" fill="#93999A"/>
<path d="M145.759 251.153H138.826C135.149 251.153 131.622 252.329 129.022 254.422C126.422 256.515 124.961 259.354 124.961 262.315C124.961 265.275 126.422 268.115 129.022 270.208C131.622 272.301 135.149 273.477 138.826 273.477H277.477C281.154 273.477 284.681 272.301 287.281 270.208C289.881 268.115 291.342 265.275 291.342 262.315H159.624C155.946 262.315 152.42 261.139 149.82 259.046C147.219 256.952 145.759 254.113 145.759 251.153Z" fill="#93999A"/>
<path d="M228.948 295.802H266.918C269.305 290.428 270.531 284.765 270.543 279.058V273.477H145.758V279.058C145.765 289.465 149.789 299.612 157.273 308.097C164.757 316.582 175.331 322.985 187.533 326.42C188.425 318.07 193.174 310.293 200.841 304.624C208.509 298.955 218.538 295.807 228.948 295.802V295.802Z" fill="#656B76"/>
<path d="M248.795 36.0318C249.443 36.1857 250.116 36.2647 250.792 36.2662C252.282 36.2651 253.732 35.8774 254.927 35.1607C256.122 34.4439 256.998 33.4361 257.426 32.2869L265.482 10.6933C265.743 9.9912 265.83 9.25449 265.737 8.5253C265.645 7.7961 265.375 7.08869 264.943 6.44346C264.511 5.79823 263.926 5.22781 263.22 4.76477C262.514 4.30173 261.702 3.95514 260.83 3.74479C259.958 3.53444 259.043 3.46445 258.137 3.53881C257.231 3.61317 256.352 3.83043 255.551 4.17818C254.75 4.52593 254.041 4.99737 253.466 5.56557C252.891 6.13377 252.46 6.78761 252.199 7.48975L244.143 29.0833C243.882 29.7854 243.795 30.5221 243.887 31.2514C243.98 31.9806 244.249 32.688 244.681 33.3332C245.113 33.9785 245.699 34.5489 246.405 35.0119C247.111 35.475 247.923 35.8215 248.795 36.0318V36.0318Z" fill="#323232"/>
<path d="M294.498 44.962C296.112 45.669 298.009 45.8311 299.772 45.4124C301.535 44.9938 303.019 44.0288 303.898 42.7295L317.32 22.8271C317.754 22.1828 318.027 21.476 318.122 20.7468C318.218 20.0177 318.134 19.2806 317.875 18.5776C317.617 17.8745 317.189 17.2194 316.616 16.6495C316.043 16.0796 315.336 15.6062 314.536 15.2562C313.736 14.9063 312.858 14.6866 311.952 14.6098C311.046 14.533 310.131 14.6006 309.258 14.8087C308.384 15.0168 307.571 15.3613 306.863 15.8225C306.155 16.2838 305.567 16.8528 305.132 17.4971L291.711 37.3939C291.276 38.0382 291.004 38.745 290.909 39.474C290.814 40.203 290.898 40.9399 291.157 41.6427C291.416 42.3455 291.844 43.0003 292.417 43.5698C292.99 44.1394 293.697 44.6124 294.498 44.962V44.962Z" fill="#323232"/>
<path d="M346.402 63.1618C347.412 63.1624 348.41 62.9855 349.326 62.6432C350.242 62.301 351.054 61.8017 351.705 61.1804L369.931 43.756C370.531 43.1972 370.988 42.5479 371.274 41.846C371.56 41.144 371.671 40.4032 371.599 39.6666C371.527 38.93 371.273 38.2123 370.854 37.5551C370.435 36.8978 369.858 36.3142 369.156 35.8379C368.454 35.3617 367.642 35.0024 366.767 34.7808C365.891 34.5592 364.97 34.4798 364.056 34.5472C363.142 34.6145 362.253 34.8273 361.442 35.1731C360.631 35.519 359.914 35.991 359.331 36.5619L341.106 53.9863C340.255 54.7993 339.711 55.7907 339.537 56.8441C339.363 57.8975 339.566 58.969 340.122 59.9327C340.679 60.8964 341.565 61.7122 342.677 62.2842C343.79 62.8562 345.082 63.1607 346.402 63.1618Z" fill="#323232"/>
<path d="M388.684 90.8894C390.314 90.8896 391.893 90.4272 393.142 89.5834L414.633 75.0723C415.997 74.1109 416.84 72.7572 416.979 71.3015C417.119 69.8458 416.544 68.4041 415.379 67.2855C414.213 66.1669 412.55 65.4605 410.745 65.3178C408.94 65.175 407.138 65.6073 405.724 66.522L384.233 81.033C383.146 81.7698 382.367 82.7579 382 83.8633C381.634 84.9687 381.698 86.138 382.184 87.213C382.671 88.288 383.556 89.2167 384.72 89.8733C385.884 90.5298 387.27 90.8826 388.691 90.8838L388.684 90.8894Z" fill="#323232"/>
<path d="M64.5948 61.1808C65.1774 61.7517 65.8951 62.2238 66.7061 62.5696C67.5171 62.9155 68.4053 63.1282 69.3192 63.1956C70.2332 63.2629 71.1546 63.1835 72.0302 62.9619C72.9057 62.7404 73.7178 62.381 74.4195 61.9048C75.1212 61.4286 75.6984 60.8449 76.1178 60.1877C76.5371 59.5304 76.7901 58.8127 76.8622 58.0761C76.9343 57.3396 76.8241 56.5988 76.5378 55.8968C76.2515 55.1948 75.795 54.5456 75.1946 53.9867L56.969 36.5623C55.7762 35.452 54.088 34.7647 52.2702 34.6493C50.4524 34.534 48.6513 34.9999 47.2571 35.9461C45.863 36.8923 44.9881 38.2426 44.8218 39.7045C44.6556 41.1664 45.2116 42.6222 46.3692 43.7564L64.5948 61.1808Z" fill="#323232"/>
<path d="M112.401 42.7181C112.835 43.3623 113.423 43.9314 114.13 44.3928C114.838 44.8542 115.651 45.1989 116.524 45.4073C117.397 45.6156 118.312 45.6835 119.218 45.607C120.123 45.5306 121.001 45.3113 121.802 44.9617C122.602 44.6121 123.309 44.139 123.882 43.5695C124.455 42.9999 124.883 42.3451 125.142 41.6423C125.401 40.9396 125.485 40.2027 125.39 39.4737C125.295 38.7447 125.023 38.0379 124.589 37.3936L111.167 17.4856C110.289 16.1845 108.805 15.2174 107.042 14.7972C105.278 14.377 103.379 14.538 101.763 15.2448C100.147 15.9516 98.9458 17.1463 98.4238 18.5661C97.9019 19.9859 98.1018 21.5145 98.9798 22.8156L112.401 42.7181Z" fill="#323232"/>
<path d="M23.3765 89.7226C24.0933 90.1982 24.9214 90.5529 25.8118 90.7658C26.7022 90.9787 27.6366 91.0454 28.5597 90.9619C29.4827 90.8784 30.3755 90.6465 31.185 90.2798C31.9944 89.9131 32.7042 89.4192 33.272 88.8275C33.8398 88.2357 34.2541 87.5581 34.4902 86.8349C34.7264 86.1117 34.7797 85.3577 34.6469 84.6176C34.5141 83.8775 34.1979 83.1664 33.7171 82.5267C33.2363 81.8869 32.6007 81.3314 31.8481 80.8932L11.3416 68.1402C10.6249 67.6646 9.7967 67.3099 8.90631 67.097C8.01592 66.8841 7.08148 66.8174 6.15846 66.9009C5.23544 66.9844 4.34267 67.2163 3.53318 67.583C2.72368 67.9497 2.01396 68.4436 1.44616 69.0353C0.878364 69.6271 0.46407 70.3047 0.227881 71.0279C-0.0083075 71.7511 -0.0615747 72.5051 0.0712437 73.2452C0.204062 73.9853 0.520257 74.6964 1.00105 75.3361C1.48185 75.9759 2.11744 76.5314 2.87007 76.9696L23.3765 89.7226Z" fill="#323232"/>
<path d="M158.871 32.2869C159.298 33.4361 160.175 34.4439 161.37 35.1607C162.565 35.8774 164.015 36.2651 165.505 36.2662C166.181 36.2647 166.853 36.1857 167.502 36.0318C168.374 35.8215 169.186 35.475 169.892 35.0119C170.598 34.5489 171.183 33.9785 171.615 33.3332C172.047 32.688 172.317 31.9806 172.409 31.2514C172.502 30.5221 172.415 29.7854 172.153 29.0833L164.098 7.48975C163.837 6.78761 163.406 6.13377 162.831 5.56557C162.256 4.99737 161.547 4.52593 160.746 4.17818C159.944 3.83043 159.066 3.61317 158.16 3.53881C157.254 3.46445 156.339 3.53444 155.467 3.74479C154.595 3.95514 153.782 4.30173 153.077 4.76477C152.371 5.22781 151.785 5.79823 151.353 6.44346C150.921 7.08869 150.652 7.7961 150.559 8.5253C150.467 9.25449 150.554 9.9912 150.815 10.6933L158.871 32.2869Z" fill="#323232"/>
<path d="M208.149 33.487C209.988 33.487 211.751 32.899 213.051 31.8523C214.351 30.8056 215.082 29.3861 215.082 27.9058V5.58117C215.082 4.10095 214.351 2.68136 213.051 1.63469C211.751 0.588014 209.988 0 208.149 0C206.311 0 204.547 0.588014 203.247 1.63469C201.947 2.68136 201.217 4.10095 201.217 5.58117V27.9058C201.217 29.3861 201.947 30.8056 203.247 31.8523C204.547 32.899 206.311 33.487 208.149 33.487Z" fill="#323232"/>
<path d="M113.918 206.855C75.6553 192.798 42.0779 171.637 15.9403 145.11C29.2611 131.716 44.4402 119.591 61.182 108.972C62.629 108.058 63.5657 106.719 63.786 105.249C64.0064 103.779 63.4924 102.298 62.357 101.134C61.2217 99.9686 59.558 99.2145 57.732 99.0371C55.906 98.8597 54.0673 99.2735 52.6203 100.188C33.5707 112.284 16.4454 126.225 1.63153 141.695C0.691619 142.672 0.181641 143.874 0.181641 145.11C0.181641 146.347 0.691619 147.548 1.63153 148.526C29.6475 178.074 66.2747 201.609 108.275 217.052C109.954 217.654 111.862 217.695 113.579 217.164C115.296 216.634 116.681 215.577 117.429 214.225C118.177 212.873 118.228 211.336 117.569 209.954C116.911 208.572 115.597 207.457 113.918 206.855V206.855Z" fill="#323232"/>
<path d="M414.675 148.526C415.615 147.548 416.125 146.347 416.125 145.11C416.125 143.874 415.615 142.673 414.675 141.695C362.182 87.111 286.902 55.8118 208.148 55.8118C160.621 55.9663 114.143 67.0818 74.2188 87.8421C72.6688 88.6384 71.5753 89.8979 71.1788 91.3433C70.7823 92.7888 71.1152 94.3019 72.1044 95.5497C73.0936 96.7975 74.6579 97.6779 76.4534 97.9971C78.2488 98.3163 80.1282 98.0483 81.6782 97.2519C99.2723 88.2174 118.248 81.0584 138.13 75.9542C125.299 84.3459 114.967 94.9452 107.892 106.973C100.817 119.002 97.1789 132.153 97.2454 145.462C97.3119 158.77 101.081 171.898 108.276 183.88C115.471 195.862 125.909 206.394 138.823 214.702V223.247C133.307 223.247 128.017 225.011 124.117 228.151C120.217 231.291 118.025 235.55 118.025 239.99C118.025 244.431 120.217 248.69 124.117 251.83C128.017 254.97 133.307 256.734 138.823 256.734H277.474C279.312 256.734 281.076 257.322 282.376 258.368C283.676 259.415 284.406 260.835 284.406 262.315C284.406 263.795 283.676 265.215 282.376 266.261C281.076 267.308 279.312 267.896 277.474 267.896H138.823C136.984 267.896 135.221 268.484 133.921 269.531C132.621 270.577 131.891 271.997 131.891 273.477C131.891 274.957 132.621 276.377 133.921 277.424C135.221 278.47 136.984 279.058 138.823 279.058C138.823 293.861 146.127 308.057 159.128 318.523C172.129 328.99 189.762 334.87 208.148 334.87C226.535 334.87 244.168 328.99 257.169 318.523C270.17 308.057 277.474 293.861 277.474 279.058C281.496 279.073 285.437 278.144 288.814 276.384C292.191 274.625 294.859 272.112 296.491 269.153C298.123 266.193 298.65 262.915 298.006 259.718C297.361 256.521 295.575 253.545 292.864 251.153C295.575 248.76 297.361 245.784 298.006 242.587C298.65 239.391 298.123 236.112 296.491 233.152C294.859 230.193 292.191 227.68 288.814 225.921C285.437 224.162 281.496 223.232 277.474 223.247V214.702C290.488 206.387 300.993 195.805 308.197 183.751C315.401 171.698 319.118 158.487 319.069 145.11C319.052 138.699 318.183 132.308 316.476 126.045C316.29 125.323 315.928 124.637 315.411 124.029C314.893 123.42 314.231 122.899 313.463 122.498C312.694 122.096 311.834 121.821 310.933 121.688C310.032 121.556 309.107 121.569 308.211 121.726C307.316 121.883 306.468 122.181 305.717 122.604C304.966 123.026 304.327 123.565 303.836 124.187C303.344 124.81 303.011 125.505 302.856 126.232C302.701 126.959 302.726 127.704 302.93 128.423C304.427 133.904 305.189 139.498 305.204 145.11C305.243 157.231 301.752 169.191 295.01 180.028C288.267 190.866 278.462 200.28 266.382 207.513C265.521 208.033 264.822 208.707 264.34 209.482C263.859 210.257 263.609 211.112 263.609 211.978V223.247H235.878V183.732C247.247 178.478 255.923 170.14 260.355 160.208C264.788 150.277 264.688 139.4 260.073 129.522C259.617 128.542 258.828 127.684 257.796 127.048C256.764 126.411 255.53 126.021 254.236 125.922C252.941 125.815 251.635 126.006 250.47 126.473C249.305 126.941 248.33 127.665 247.657 128.562C246.439 130.203 244.714 131.562 242.65 132.506C240.586 133.45 238.253 133.947 235.878 133.948C232.201 133.948 228.675 132.772 226.074 130.679C223.474 128.585 222.013 125.746 222.013 122.786C222.013 120.874 222.629 118.995 223.8 117.332C224.972 115.669 226.659 114.279 228.696 113.298C229.805 112.752 230.701 111.966 231.282 111.029C231.863 110.093 232.105 109.044 231.98 108.002C231.856 106.961 231.37 105.968 230.579 105.138C229.787 104.308 228.722 103.673 227.504 103.307C219.12 100.769 210.097 99.9067 201.208 100.795C192.319 101.683 183.831 104.295 176.473 108.406C169.115 112.518 163.106 118.006 158.963 124.399C154.82 130.792 152.667 137.9 152.688 145.11C152.727 152.936 155.306 160.617 160.17 167.392C165.035 174.166 172.015 179.8 180.418 183.732V223.247H152.688V211.967C152.688 211.101 152.438 210.246 151.956 209.471C151.475 208.696 150.776 208.022 149.915 207.502C138.288 200.463 128.777 191.408 122.086 181.008C115.394 170.609 111.695 159.13 111.261 147.423C110.827 135.717 113.669 124.081 119.578 113.378C125.487 102.676 134.311 93.1805 145.395 85.5955C156.48 78.0104 169.543 72.53 183.615 69.56C197.687 66.59 212.409 66.2066 226.691 68.4381C240.972 70.6696 254.447 75.4589 266.118 82.4513C277.789 89.4437 287.356 98.4601 294.112 108.833C294.535 109.482 295.113 110.057 295.813 110.527C296.512 110.996 297.32 111.349 298.189 111.567C299.059 111.785 299.973 111.863 300.88 111.797C301.786 111.73 302.668 111.521 303.474 111.18C304.28 110.839 304.995 110.374 305.578 109.81C306.161 109.247 306.6 108.597 306.871 107.897C307.141 107.197 307.238 106.461 307.156 105.731C307.073 105.001 306.813 104.291 306.389 103.642C299.454 93.0073 289.934 83.6028 278.396 75.9877C326.561 88.9477 368.96 112.977 400.36 145.11C374.222 171.638 340.645 192.798 302.382 206.855C301.551 207.153 300.8 207.58 300.174 208.112C299.547 208.644 299.057 209.27 298.731 209.954C298.405 210.639 298.249 211.368 298.273 212.101C298.297 212.834 298.5 213.555 298.871 214.225C299.241 214.894 299.772 215.499 300.433 216.003C301.093 216.507 301.871 216.902 302.721 217.165C303.571 217.427 304.477 217.552 305.387 217.533C306.297 217.513 307.194 217.35 308.025 217.052C350.028 201.61 386.657 178.074 414.675 148.526V148.526ZM208.148 323.708C193.444 323.694 179.348 318.986 168.95 310.616C158.553 302.245 152.705 290.896 152.688 279.058H263.609C263.592 290.896 257.744 302.245 247.346 310.616C236.949 318.986 222.852 323.694 208.148 323.708V323.708ZM284.406 239.99C284.406 241.47 283.676 242.89 282.376 243.937C281.076 244.983 279.312 245.571 277.474 245.571H138.823C136.984 245.571 135.221 244.983 133.921 243.937C132.621 242.89 131.891 241.47 131.891 239.99C131.891 238.51 132.621 237.09 133.921 236.044C135.221 234.997 136.984 234.409 138.823 234.409H277.474C279.312 234.409 281.076 234.997 282.376 236.044C283.676 237.09 284.406 238.51 284.406 239.99ZM190.332 175.327C181.827 172.056 174.955 166.558 170.84 159.732C166.725 152.906 165.611 145.157 167.681 137.754C169.752 130.352 174.883 123.735 182.235 118.988C189.587 114.241 198.724 111.644 208.148 111.623C209.362 111.623 210.575 111.668 211.774 111.752C208.776 116.001 207.593 120.925 208.406 125.768C209.219 130.612 211.984 135.106 216.276 138.562C220.568 142.018 226.15 144.245 232.166 144.9C238.182 145.556 244.298 144.604 249.577 142.191C249.688 143.157 249.744 144.134 249.744 145.11C249.711 151.438 247.463 157.629 243.257 162.974C239.051 168.319 233.057 172.601 225.965 175.327C224.785 175.779 223.788 176.491 223.089 177.38C222.39 178.268 222.017 179.298 222.013 180.35V223.247H194.283V180.367C194.284 179.312 193.912 178.279 193.213 177.387C192.514 176.495 191.515 175.78 190.332 175.327V175.327Z" fill="#323232"/>
<path d="M351.71 221.054C351.121 220.493 350.401 220.032 349.591 219.696C348.781 219.359 347.896 219.155 346.988 219.093C346.08 219.032 345.165 219.116 344.297 219.339C343.429 219.562 342.624 219.921 341.928 220.395C341.232 220.869 340.659 221.448 340.241 222.101C339.823 222.753 339.569 223.465 339.493 224.196C339.417 224.927 339.521 225.664 339.798 226.363C340.075 227.062 340.521 227.71 341.11 228.27L359.335 245.7C359.923 246.26 360.641 246.722 361.45 247.059C362.259 247.396 363.142 247.601 364.049 247.663C364.957 247.725 365.87 247.642 366.738 247.42C367.606 247.198 368.411 246.84 369.107 246.367C369.803 245.894 370.376 245.316 370.795 244.665C371.213 244.013 371.468 243.302 371.545 242.572C371.622 241.841 371.519 241.106 371.243 240.407C370.967 239.709 370.522 239.061 369.935 238.5L351.71 221.054Z" fill="#323232"/>
<path d="M393.145 192.662C392.453 192.16 391.644 191.776 390.764 191.532C389.884 191.288 388.952 191.19 388.023 191.242C387.095 191.294 386.189 191.496 385.36 191.836C384.531 192.176 383.795 192.648 383.197 193.221C382.598 193.795 382.15 194.46 381.878 195.177C381.605 195.893 381.515 196.646 381.612 197.392C381.709 198.137 381.992 198.858 382.442 199.514C382.893 200.169 383.504 200.745 384.237 201.206L405.728 215.717C407.141 216.628 408.941 217.057 410.742 216.914C412.543 216.771 414.204 216.066 415.368 214.95C416.532 213.834 417.108 212.395 416.973 210.942C416.837 209.489 416.001 208.136 414.643 207.173L393.145 192.662Z" fill="#323232"/>
<path d="M64.5924 221.054L46.3667 238.478C45.1808 239.61 44.6019 241.074 44.7572 242.55C44.9126 244.025 45.7895 245.39 47.1952 246.345C48.6008 247.3 50.42 247.766 52.2524 247.641C54.0849 247.515 55.7807 246.809 56.9666 245.678L75.1922 228.27C75.7926 227.711 76.2491 227.062 76.5354 226.36C76.8216 225.658 76.9319 224.917 76.8598 224.181C76.7877 223.444 76.5347 222.726 76.1153 222.069C75.696 221.412 75.1188 220.828 74.4171 220.352C73.7154 219.876 72.9032 219.517 72.0277 219.295C71.1522 219.073 70.2308 218.994 69.3168 219.061C68.4029 219.129 67.5146 219.341 66.7036 219.687C65.8926 220.033 65.175 220.505 64.5924 221.076V221.054Z" fill="#323232"/>
<path d="M23.3765 192.516L2.87007 205.264C2.11744 205.702 1.48185 206.257 1.00105 206.897C0.520257 207.537 0.204062 208.248 0.0712437 208.988C-0.0615747 209.728 -0.0083075 210.482 0.227881 211.206C0.46407 211.929 0.878364 212.606 1.44616 213.198C2.01396 213.79 2.72368 214.284 3.53318 214.65C4.34267 215.017 5.23544 215.249 6.15846 215.333C7.08148 215.416 8.01592 215.349 8.90631 215.136C9.7967 214.924 10.6249 214.569 11.3416 214.093L31.8481 201.346C32.6007 200.908 33.2363 200.352 33.7171 199.712C34.1979 199.073 34.5141 198.362 34.6469 197.621C34.7797 196.881 34.7264 196.127 34.4902 195.404C34.2541 194.681 33.8398 194.003 33.272 193.412C32.7042 192.82 31.9944 192.326 31.185 191.959C30.3755 191.593 29.4827 191.361 28.5597 191.277C27.6366 191.194 26.7022 191.26 25.8118 191.473C24.9214 191.686 24.0933 192.041 23.3765 192.516V192.516Z" fill="#323232"/>
</svg>
