<svg width="417" height="335" viewBox="0 0 417 335" fill="none" xmlns="http://www.w3.org/2000/svg">
<path d="M203.868 334.87C202.121 334.87 200.372 334.854 198.621 334.822C178.157 334.468 158.624 331.875 140.575 327.113C140.184 327.01 139.802 326.889 139.426 326.75C139.095 326.628 131.236 323.712 120.705 318.526C120.474 318.418 120.251 318.304 120.039 318.188C110.147 312.836 100.775 306.552 92.1862 299.512C88.6295 296.637 85.0549 293.46 81.6179 290.119C78.1768 286.801 74.8506 283.288 71.7606 279.707C66.8527 274.06 62.3137 267.996 58.2944 261.708C58.2195 261.599 58.147 261.491 58.0778 261.381C57.0996 259.838 55.8225 257.791 54.609 255.638C52.0068 251.135 49.5439 246.256 47.3449 241.229C45.2518 236.429 43.4095 231.438 41.8579 226.382C41.3986 224.921 40.9637 223.39 40.5507 221.859C39.3967 217.597 38.456 213.305 37.7392 209.039L7.79995 200.221C3.93537 199.083 1.05464 196.242 0.235305 192.759C-0.586478 189.277 0.776916 185.676 3.81401 183.302L39.224 155.626C43.4486 137.097 51.6371 119.236 63.2308 103.19C53.1479 97.3818 45.2135 89.1542 40.2958 79.2247C33.6287 65.7636 33.3746 50.8448 39.5807 37.2183C45.7844 23.5903 57.7064 12.8855 73.1476 7.07332C81.0934 4.08275 89.4831 2.56687 98.078 2.56687C123.238 2.56687 145.94 15.5771 155.911 35.7124C156.389 36.6773 156.835 37.6535 157.247 38.6404C160.768 37.6095 164.332 36.6716 167.921 35.8331C169.095 35.1798 170.275 34.5614 171.447 33.9856C177.996 30.7721 185.474 28.2324 194.309 26.2188L194.904 26.0846C201.349 24.6667 207.988 23.9538 214.69 23.9538C225.801 23.9538 236.816 25.9199 246.862 29.6141C248.819 13.8113 264.212 1.46777 282.851 1.46777C302.811 1.46777 319.051 15.6247 319.051 33.0257C319.051 33.2152 319.05 33.4048 319.046 33.5944C324.719 36.2328 328.539 40.6725 330.206 45.0717L355.922 91.5981C366.398 110.64 378.168 130.079 387.273 148.307L392.889 158.471C393.571 159.702 393.955 161.043 394.019 162.409L394.836 180.041L404.156 179.062C404.615 179.013 405.075 178.99 405.53 178.99C409.127 178.99 412.55 180.466 414.728 183.018C417.186 185.893 417.687 189.695 416.045 192.982L395.744 233.61C394.114 236.869 390.622 239.13 386.571 239.547C386.122 239.593 385.671 239.616 385.225 239.616C384.092 239.616 382.975 239.469 381.909 239.188C380.983 241.411 379.989 243.634 378.933 245.833C376.669 250.605 374.007 255.463 371.036 260.242C370.689 260.793 370.363 261.312 370.023 261.828C369.838 262.136 369.64 262.441 369.439 262.734C347.815 294.153 315.666 318.813 274.365 327.76C258.887 331.113 243.004 332.798 227.138 333.985C219.231 334.573 211.405 334.87 203.868 334.87Z" fill="white"/>
<path d="M381.082 186.017V186.084C381.082 187.917 381.043 189.751 380.967 191.568C380.852 194.084 380.68 196.584 380.413 199.067V199.083C379.706 206.099 378.425 212.982 376.609 219.682C375.557 223.548 374.334 227.348 372.938 231.081C371.561 234.798 370.013 238.431 368.312 241.981C366.114 246.613 363.628 251.113 360.913 255.48C360.588 255.997 355.121 264.063 354.394 265.013C353.438 266.329 352.445 267.613 351.431 268.879C350.418 270.162 349.386 271.412 348.315 272.662C348.047 272.978 346.002 275.311 345.218 276.178C344.645 276.828 344.052 277.478 343.44 278.111C342.79 278.794 342.159 279.478 341.49 280.144C340.668 281.011 339.827 281.843 338.967 282.677C337.973 283.66 336.959 284.627 335.946 285.577C334.914 286.543 333.882 287.477 332.811 288.41C331.894 289.21 330.976 290.009 330.04 290.81C329.81 290.993 329.6 291.16 329.409 291.326C328.395 292.176 327.364 293.01 326.312 293.826C325.261 294.676 324.19 295.493 323.101 296.309C323.062 296.359 323.005 296.392 322.948 296.426C319.621 298.926 316.18 301.308 312.624 303.559C311.63 304.209 310.617 304.825 309.604 305.441C308.572 306.075 307.52 306.691 306.469 307.308C305.417 307.925 304.366 308.525 303.296 309.108C302.397 309.608 301.499 310.091 300.601 310.558C278.386 316.724 252.846 322.024 226.121 324.024C217.116 324.691 207.997 324.99 198.821 324.823C180.488 324.507 161.925 322.307 143.859 317.541C143.859 317.541 136.365 314.775 126.252 309.791C126.195 309.775 126.137 309.741 126.08 309.707C116.713 304.641 107.996 298.774 100.005 292.225C96.5639 289.442 93.2564 286.493 90.1215 283.442C86.8719 280.309 83.794 277.059 80.8881 273.693C76.1659 268.26 71.903 262.544 68.0987 256.561C68.0792 256.544 68.0792 256.544 68.0792 256.544C66.9707 254.795 65.881 253.028 64.8678 251.228C62.3251 246.828 60.0503 242.295 58.0239 237.662C56.0546 233.145 54.354 228.529 52.9002 223.796C52.4604 222.396 52.0589 220.979 51.6769 219.563C50.0903 213.697 48.9053 207.697 48.1976 201.58C47.5476 196.497 47.2227 191.314 47.2227 186.081C47.2227 177.999 47.9679 170.083 49.4404 162.366C53.7994 139.084 64.5241 117.669 79.9702 99.5032C80.9834 98.3033 82.0348 97.1034 83.105 95.9368C96.449 81.1878 113.023 68.7554 131.873 59.4223C135.123 57.8056 138.468 56.2891 141.871 54.8562C142.731 54.4899 143.611 54.1398 144.49 53.7891C146.039 53.1558 147.606 52.5558 149.174 51.9729C156.726 49.1896 164.545 46.8899 172.593 45.09C185.879 42.1236 199.797 40.5403 214.154 40.5403C228.243 40.5403 241.912 42.0569 254.988 44.9402H255.007C258.104 45.6069 261.162 46.3567 264.202 47.2066C271.084 49.0732 277.776 51.3396 284.237 53.956C284.657 54.1058 285.058 54.289 285.479 54.4558C289.092 55.939 292.63 57.5387 296.089 59.2555C298.039 60.2055 299.989 61.2052 301.882 62.2382C302.092 62.3384 302.302 62.4548 302.513 62.5883C303.679 63.2046 304.845 63.8549 305.974 64.5216C306.184 64.6218 306.375 64.7382 306.566 64.8553C308.592 66.0389 310.58 67.2381 312.53 68.4885C316.526 71.0218 320.368 73.7049 324.076 76.5549C332.125 82.688 339.485 89.4878 346.061 96.8705L346.08 96.8868C355.689 114.276 366.988 134.714 376.381 151.7V151.717C377.222 154.683 377.948 157.683 378.56 160.733C380.222 168.952 381.082 177.384 381.082 186.017Z" fill="#FFB289"/>
<path d="M161.278 53.6181C150.575 63.9182 144.612 77.8622 144.97 91.7564C145.074 95.7871 145.675 99.9087 144.417 103.789C142.074 111.014 133.977 115.612 129.813 122.185C126.974 126.666 126.085 131.893 125.892 137.009C125.64 143.677 126.526 150.482 129.603 156.59C135.029 167.363 146.862 174.941 159.642 178.721C172.423 182.502 186.173 182.916 199.665 182.642C219.235 182.247 239.075 180.416 257.219 174.012C275.364 167.608 291.79 156.161 299.809 140.593C307.827 125.025 306.056 105.196 292.793 92.646C289.481 89.512 285.531 86.8445 282.842 83.2852C279.768 79.2169 278.591 74.3199 276.731 69.7261C265.546 42.0925 229.212 28.838 197.72 35.7691C197.535 35.8103 197.348 35.8522 197.162 35.8941C190.153 37.4909 183.366 39.5897 177.027 42.7002C171.159 45.5793 165.803 49.265 161.278 53.6181Z" fill="#F7607D"/>
<path d="M368.306 241.981C366.108 246.613 363.623 251.113 360.908 255.48C360.583 255.997 321.85 293.469 321.792 293.503C318.466 296.003 252.838 322.026 226.113 324.025C217.108 324.692 207.99 324.992 198.813 324.825C180.48 324.508 86.9431 271.354 84.0371 267.988C85.337 265.604 84.7986 266.578 88.3545 260.345C90.3043 256.979 92.5221 253.162 94.95 249.046C108.753 225.748 129.743 192.666 147.847 173.934C152.091 169.534 156.182 165.934 159.986 163.435C160.216 163.268 160.446 163.134 160.656 163.002C161.019 162.768 161.382 162.534 161.746 162.335C161.803 162.302 161.861 162.268 161.918 162.235C162.453 161.935 162.988 161.635 163.542 161.335C163.619 161.285 163.714 161.252 163.791 161.219C181.187 152.003 209.021 146.72 229.764 143.887C232.058 143.57 234.256 143.287 236.34 143.037C236.34 143.037 236.359 143.037 236.378 143.037C242.266 142.303 247.294 141.804 250.907 141.471C250.926 141.471 250.926 141.471 250.945 141.471C254.826 141.121 257.101 140.971 257.101 140.971C257.101 140.971 257.445 141.071 258.076 141.254C258.592 141.404 259.281 141.62 260.16 141.887C265.456 143.554 277.117 147.454 290.518 153.453C293.404 154.736 296.387 156.137 299.388 157.62C317.683 166.653 337.278 179.202 347.888 195C357.505 209.332 364.005 226.597 368.306 241.981Z" fill="#BD6EEB"/>
<path d="M265.934 122.087C272.124 121.515 278.321 119.263 282.243 115.048C286.165 110.834 287.315 104.488 284.059 99.8627C282.831 98.1189 280.982 96.6485 278.739 96.0457C276.337 95.3995 273.724 95.7893 271.339 96.4802C268.932 97.1781 266.639 98.1792 264.556 99.4423C264.512 106.527 264.755 113.214 264.709 120.298C264.705 120.964 265.569 121.504 265.934 122.087Z" fill="#FF8C9D"/>
<path d="M267.203 113.362C267.12 113.362 267.037 113.344 266.962 113.305C266.734 113.189 266.657 112.933 266.79 112.735C268.149 110.713 269.413 108.914 271.108 107.382C272.508 106.114 274.801 104.535 277.762 104.201C278.019 104.164 278.262 104.332 278.298 104.561C278.331 104.789 278.146 104.998 277.885 105.028C275.199 105.331 273.091 106.79 271.795 107.96C270.173 109.426 268.942 111.182 267.616 113.157C267.525 113.288 267.367 113.362 267.203 113.362Z" fill="#512651"/>
<path d="M266.767 89.4985C266.767 89.4985 265.465 60.8481 243.013 50.9193C220.561 40.9905 158.735 44.395 152.227 75.3146C145.718 106.235 156.131 144.247 185.742 152.757C215.353 161.267 258.632 152.19 264.814 130.064C270.997 107.937 266.767 89.4985 266.767 89.4985Z" fill="#FF8C9D"/>
<path d="M226.385 116.112C226.751 118.796 229.543 120.713 232.621 120.394C235.699 120.075 237.898 117.641 237.533 114.957C237.167 112.273 234.375 110.356 231.296 110.675C228.219 110.994 226.02 113.428 226.385 116.112Z" fill="#512651"/>
<path d="M171.159 122.493C171.525 125.177 174.317 127.094 177.395 126.775C180.474 126.456 182.673 124.023 182.307 121.339C181.941 118.656 179.149 116.739 176.072 117.057C172.992 117.376 170.793 119.81 171.159 122.493Z" fill="#512651"/>
<path d="M200.373 133.634C198.192 133.634 196.17 132.474 194.991 131.144C193.129 129.049 192.616 126.092 193.682 123.609C193.775 123.394 194.046 123.281 194.298 123.366C194.545 123.446 194.67 123.686 194.579 123.902C193.625 126.119 194.084 128.762 195.746 130.634C196.965 132.006 199.201 133.172 201.412 132.689C201.675 132.63 201.927 132.77 201.99 132.993C202.055 133.216 201.899 133.443 201.643 133.499C201.216 133.59 200.791 133.634 200.373 133.634Z" fill="#512651"/>
<path d="M206.375 132.641C206.155 132.641 205.957 132.508 205.908 132.313C205.716 131.537 206.153 130.692 206.95 130.307C207.747 129.918 208.8 130.041 209.454 130.594C209.644 130.754 209.648 131.018 209.465 131.183C209.284 131.349 208.981 131.353 208.789 131.193C208.442 130.899 207.835 130.831 207.415 131.035C206.984 131.244 206.739 131.718 206.842 132.137C206.898 132.362 206.733 132.584 206.475 132.632C206.443 132.638 206.409 132.641 206.375 132.641Z" fill="#512651"/>
<path d="M208.275 139.008C206.998 139.008 205.721 138.73 204.608 138.178C204.378 138.064 204.298 137.81 204.426 137.61C204.559 137.41 204.854 137.337 205.078 137.454C206.854 138.333 209.101 138.415 210.955 137.673C212.807 136.931 214.198 135.384 214.586 133.639C214.635 133.413 214.869 133.265 215.146 133.309C215.406 133.353 215.574 133.572 215.523 133.797C215.077 135.802 213.482 137.577 211.354 138.43C210.391 138.817 209.334 139.008 208.275 139.008Z" fill="#512651"/>
<path d="M166.537 108.935C167.5 108.853 168.403 108.503 169.287 108.157C171.412 107.327 174.47 105.878 173.481 103.395C172.881 101.887 171.205 101.535 169.543 101.756C167.627 102.012 165.657 103.053 164.453 104.37C162.742 106.238 163.162 109.223 166.537 108.935Z" fill="#F7607D"/>
<path d="M236.9 100.373C235.97 100.605 234.982 100.568 234.015 100.53C231.689 100.437 228.234 100.068 228.108 97.4419C228.032 95.8465 229.442 94.9832 231.081 94.6573C232.971 94.2817 235.242 94.6211 236.917 95.4596C239.295 96.6503 240.161 99.5613 236.9 100.373Z" fill="#F7607D"/>
<path d="M207.074 90.7536C207.074 90.7536 205.609 68.6275 209.026 57.9894C212.443 47.352 213.419 44.5858 213.419 44.5858C213.419 44.5858 137.276 33.9484 145.573 102.455L207.074 90.7536Z" fill="#F7607D"/>
<path d="M212.688 44.7989L220.497 90.7537L270.528 95.0088C270.528 95.0088 269.582 62.7033 256.617 53.9474C239.288 42.2457 212.688 44.7989 212.688 44.7989Z" fill="#F7607D"/>
<path d="M257.588 90.7537L265.641 106.072L274.427 86.7109L257.588 90.7537Z" fill="#F7607D"/>
<path d="M385.185 229.617L354.672 194.325L405.486 188.99L385.185 229.617Z" fill="#7182FF"/>
<path d="M307.138 36.8774C309.58 25.1625 300.666 13.9399 287.228 11.811C273.79 9.68205 260.917 17.4531 258.474 29.1679C256.032 40.8828 264.947 52.1055 278.385 54.2344C291.823 56.3633 304.696 48.5923 307.138 36.8774Z" fill="#BD6EEB"/>
<path d="M11.4277 190.748L49.1736 161.246L59.5863 204.931L11.4277 190.748Z" fill="#F7607D"/>
<path d="M64.955 184.194C46.4172 180.492 70.4965 125.41 79.7593 105.72C81.7881 101.386 83.101 98.7715 83.101 98.7715L89.4529 100.116C89.4529 100.116 89.4309 101.143 89.3723 102.975C88.8054 118.132 85.1363 188.22 64.955 184.194Z" fill="#BD6EEB"/>
<path d="M89.3728 102.974C86.2615 104.145 83.0436 105.064 79.7598 105.719C81.7886 101.385 83.1015 98.7705 83.1015 98.7705L89.4534 100.115C89.4542 100.115 89.4322 101.142 89.3728 102.974Z" fill="#512651"/>
<path d="M147.286 70.636C155.627 46.9342 140.349 21.8252 113.161 14.5536C85.9735 7.28204 57.1713 20.6014 48.8299 44.3032C40.4886 68.0051 55.7667 93.114 82.9546 100.386C110.143 107.657 138.945 94.3379 147.286 70.636Z" fill="#7182FF"/>
<path d="M131.02 86.2013C149.224 70.3321 149.224 44.603 131.02 28.7337C112.817 12.8645 83.3027 12.8645 65.0991 28.7337C46.8956 44.603 46.8956 70.3321 65.0991 86.2013C83.3027 102.071 112.817 102.071 131.02 86.2013Z" fill="#FFE9DC"/>
<path d="M130.11 56.0946C130.569 57.4401 131.196 58.7728 132.254 59.8307C133.312 60.8886 134.859 61.6433 136.467 61.5851C138.485 61.5113 140.226 60.1644 141.055 58.5591C141.884 56.9537 141.952 55.1311 141.832 53.3738C141.576 49.6108 140.06 43.6332 134.284 44.9084C128.67 46.1488 128.798 52.2534 130.11 56.0946Z" fill="white"/>
<path d="M129.049 67.067C128.123 68.4792 127.708 70.2152 128.301 71.7573C128.895 73.2995 130.648 74.5384 132.509 74.4192C134.428 74.2956 135.92 72.8529 136.687 71.3136C137.457 69.7672 137.672 67.8792 136.636 66.455C135.6 65.0307 133.037 64.4612 131.663 65.6484L129.049 67.067Z" fill="white"/>
<path d="M311.758 274.995L185.833 293.294L75.0303 255.846L69.8879 124.321L69.6777 118.838C69.6777 118.838 149.721 137.553 171.686 170.318C171.686 170.318 234.64 131.604 296.636 131.604L297.305 137.871L311.758 274.995Z" fill="#FFE9DC"/>
<g opacity="0.24">
<g opacity="0.24">
<path opacity="0.24" d="M297.305 137.87C256.911 131.87 171.439 172.132 171.439 172.132C160.335 158.196 86.0613 129.97 69.8879 124.321L69.6777 118.838C69.6777 118.838 149.721 137.553 171.686 170.318C171.686 170.318 234.64 131.604 296.636 131.604L297.305 137.87Z" fill="#FFA9DD"/>
</g>
</g>
<path d="M171.685 170.673C171.667 170.673 171.648 170.672 171.631 170.668C171.568 170.655 171.514 170.619 171.48 170.572C150.461 139.657 70.417 120.224 69.6107 120.031C69.4836 120.001 69.4087 119.886 69.4445 119.775C69.4779 119.665 69.6107 119.599 69.7377 119.629C69.9397 119.677 90.1894 124.555 112.783 133.202C133.575 141.159 160.643 154.021 171.764 170.174C175.974 167.855 241.582 132.245 296.328 132.245C296.434 132.245 296.533 132.245 296.639 132.245C296.772 132.245 296.878 132.338 296.878 132.454C296.878 132.568 296.771 132.661 296.639 132.661C296.535 132.661 296.43 132.661 296.328 132.661C240.168 132.661 172.494 170.26 171.814 170.64C171.775 170.662 171.73 170.673 171.685 170.673Z" fill="#FFA9DD"/>
<path d="M171.684 170.673C171.621 170.673 171.557 170.651 171.511 170.608C137.3 139.032 69.7963 122.182 69.1186 122.015C68.9916 121.985 68.9191 121.87 68.9541 121.759C68.9899 121.649 69.1146 121.582 69.2489 121.615C69.9266 121.781 137.391 138.621 171.731 170.205C175.634 168.367 246.844 135.174 297.117 133.733C297.119 133.733 297.123 133.733 297.125 133.733C297.253 133.733 297.36 133.822 297.363 133.935C297.367 134.049 297.264 134.146 297.132 134.15C245.804 135.621 172.533 170.297 171.798 170.648C171.763 170.665 171.723 170.673 171.684 170.673Z" fill="#FFA9DD"/>
<path d="M171.932 172.233C171.866 172.233 171.8 172.209 171.753 172.162C146.895 147.574 72.8411 124.667 69.9677 124.519C69.9156 124.534 69.8578 124.533 69.8057 124.515C69.6827 124.471 69.6224 124.35 69.6713 124.243C69.703 124.176 69.791 124.118 69.8724 124.106C69.8838 124.104 69.8969 124.103 69.9115 124.103C71.2277 124.103 90.597 129.974 112.121 138.556C132.154 146.543 158.772 158.779 171.99 171.766C175.996 170.027 249.676 138.323 297.358 135.648C297.498 135.631 297.602 135.727 297.612 135.843C297.62 135.957 297.521 136.056 297.388 136.064C248.705 138.796 172.801 171.876 172.041 172.21C172.006 172.225 171.97 172.233 171.932 172.233Z" fill="#FFA9DD"/>
<path d="M239.942 224.088C236.382 224.565 232.687 223.402 229.938 221.374C227.188 219.346 225.318 216.527 224.14 213.561C222.468 209.351 222.157 204.557 224.347 200.531C225.726 200.943 226.98 201.026 228.358 201.438C229.918 201.905 231.49 202.376 232.921 203.093C236.853 205.065 239.358 208.768 240.354 212.626C241.349 216.485 240.64 220.181 239.942 224.088Z" fill="#7182FF"/>
<path d="M239.864 225.214C239.794 225.214 239.728 225.177 239.702 225.117C236.291 217.246 232.266 209.014 225.958 202.149C225.453 201.599 224.944 201.077 224.295 200.722C224.213 200.677 224.189 200.583 224.239 200.512C224.293 200.442 224.401 200.423 224.478 200.464C225.174 200.844 225.704 201.389 226.23 201.959C232.569 208.858 236.607 217.114 240.027 225.009C240.061 225.087 240.016 225.175 239.926 225.204C239.905 225.212 239.885 225.214 239.864 225.214Z" fill="#512651"/>
<path d="M278.857 245.018C278.579 245.754 278.3 246.479 278.004 247.194C274.962 254.478 269.712 261.074 262.53 265.721C261.114 266.637 259.63 267.462 258.057 268.149C249.85 271.743 240.257 272.758 231.29 271.06C223.688 269.624 218.931 264.085 214.55 258.947C213.1 257.242 211.724 255.467 210.494 253.629C207.942 249.889 205.885 245.878 204.57 241.668C203.135 237.081 202.889 232.077 204.906 227.658C210.081 216.382 230.916 214.84 239.417 224.032C242.403 220.452 246.837 217.737 247.774 217.213C251.247 215.267 255.184 213.945 259.287 213.533C267.311 212.717 274.974 215.941 278.632 222.362C282.569 229.267 281.484 237.765 278.857 245.018Z" fill="#F7607D"/>
<path d="M222.51 192.482C223.417 192.407 224.167 192.95 224.251 193.74L224.459 195.666C224.537 196.393 223.956 197.109 223.014 197.186L210.663 198.16C209.43 198.261 208.327 197.522 208.209 196.417L208.006 194.523C207.84 192.975 208.92 191.805 208.92 191.805C208.92 191.805 216.423 183.072 216.711 182.699C216.966 182.328 217.058 181.843 217.009 181.369C216.852 179.916 215.592 179.413 214.034 179.54C213.818 179.557 213.637 179.572 213.424 179.621C212.384 179.802 211.335 180.238 210.273 180.899C210.273 180.899 209.346 181.45 208.944 181.802L208.16 180.943C207.995 180.796 205.945 178.035 209.629 175.919C210.279 175.515 212.112 174.888 213.888 174.744C218.631 174.356 222.188 176.519 222.646 180.782C222.804 182.265 222.474 183.597 221.755 184.74C221.029 185.817 214.616 193.125 214.616 193.125L222.51 192.482Z" fill="#512651"/>
<path d="M237.613 184.53L244.567 183.964C245.002 183.928 245.359 184.185 245.4 184.564L245.596 186.397C245.637 186.775 245.342 187.085 244.907 187.121L237.953 187.688L238.611 193.812C238.65 194.192 238.356 194.503 237.922 194.538L235.819 194.709C235.385 194.745 235.029 194.488 234.989 194.108L234.331 187.982L227.306 188.555C226.871 188.591 226.513 188.333 226.474 187.955L226.277 186.124C226.236 185.745 226.531 185.434 226.966 185.398L233.993 184.825L233.344 178.763C233.302 178.385 233.598 178.074 234.033 178.039L236.133 177.868C236.568 177.831 236.922 178.089 236.964 178.468L237.613 184.53Z" fill="#512651"/>
<path d="M263.893 189.11C264.799 189.035 265.551 189.579 265.635 190.368L265.842 192.293C265.919 193.021 265.338 193.736 264.397 193.813L252.044 194.788C250.811 194.889 249.71 194.15 249.591 193.045L249.389 191.151C249.223 189.603 250.302 188.433 250.302 188.433C250.302 188.433 257.805 179.7 258.095 179.327C258.347 178.955 258.442 178.471 258.39 177.997C258.235 176.544 256.974 176.041 255.415 176.168C255.199 176.186 255.018 176.201 254.805 176.25C253.765 176.43 252.716 176.867 251.654 177.525C251.654 177.525 250.727 178.079 250.327 178.431L249.539 177.572C249.379 177.425 247.329 174.662 251.01 172.548C251.662 172.144 253.495 171.517 255.269 171.373C260.015 170.985 263.569 173.148 264.027 177.41C264.186 178.894 263.855 180.226 263.137 181.369C262.412 182.446 255.999 189.753 255.999 189.753L263.893 189.11Z" fill="#512651"/>
<path d="M185.837 293.502C185.715 293.502 185.611 293.423 185.6 293.315L171.445 170.77C171.432 170.655 171.527 170.553 171.657 170.541C171.812 170.529 171.906 170.614 171.919 170.728L186.074 293.273C186.087 293.387 185.992 293.49 185.861 293.502C185.851 293.502 185.844 293.502 185.837 293.502Z" fill="#FFA9DD"/>
<path d="M359.916 257.029C359.782 257.263 359.629 257.496 359.476 257.712C358.807 258.762 358.118 259.779 357.411 260.795C357.125 261.245 356.819 261.678 356.494 262.112C355.824 263.095 355.117 264.062 354.391 265.011C353.434 266.328 352.441 267.611 351.428 268.877C350.414 270.161 349.382 271.411 348.312 272.66C348.044 272.977 347.795 273.276 347.528 273.56C346.763 274.443 345.999 275.31 345.215 276.176C344.642 276.827 344.049 277.476 343.437 278.11C342.787 278.793 342.156 279.476 341.487 280.142C340.665 281.009 339.824 281.842 338.964 282.676C337.97 283.659 336.956 284.625 335.943 285.575C334.911 286.542 333.879 287.475 332.808 288.408C331.891 289.208 330.973 290.008 330.037 290.808C329.807 290.991 329.597 291.158 329.406 291.325C328.392 292.175 324.187 295.491 323.097 296.308C323.059 296.358 323.002 296.391 322.944 296.424C322.121 294.308 321.147 291.858 320.095 289.258C317.151 281.976 313.653 273.592 311.072 268.393C310.02 266.294 309.14 264.709 308.51 263.926C305.987 260.793 286.927 257.426 274.081 254.427C267.179 252.827 262.075 251.327 262.305 250.027C262.744 247.578 272.073 246.761 278.287 246.494C281.441 246.344 283.792 246.344 283.792 246.344C283.792 246.344 281.632 246.228 278.478 245.994C270.334 245.378 255.633 243.894 255.155 241.244C254.601 238.061 275.305 236.345 281.039 235.945C281.957 235.878 282.492 235.845 282.492 235.845L283.142 233.295C283.142 233.295 282.435 233.262 281.211 233.162C274.501 232.711 252.555 230.895 252.555 227.062C252.555 223.596 270.41 223.112 278.993 223.079C281.689 223.045 283.467 223.079 283.467 223.079C283.467 223.079 281.536 222.845 278.669 222.428C270.066 221.195 252.956 218.329 253.205 215.146C253.224 215.029 253.243 214.913 253.3 214.796C254.848 210.896 277.292 211.145 289.317 210.313C293.771 210.012 299.181 210.362 305.089 211.629C315.622 213.895 327.723 219.045 338.773 228.478C346.075 234.711 353.263 245.394 359.114 255.626C359.381 256.096 359.648 256.563 359.916 257.029Z" fill="#FF8C9D"/>
<path d="M198.814 324.825C180.481 324.508 161.918 322.308 143.852 317.542C143.852 317.542 136.358 314.776 126.245 309.792C126.188 309.776 126.13 309.743 126.073 309.709C116.706 304.643 107.989 298.776 99.9979 292.227C96.5569 289.443 93.2494 286.494 90.1146 283.444C86.8649 280.311 83.7871 277.061 80.8811 273.695C76.1589 268.262 71.8961 262.545 68.0917 256.562C68.0722 256.546 68.0722 256.546 68.0722 256.546C66.9637 254.796 65.874 253.029 64.8608 251.229C62.3181 246.829 60.0433 242.297 58.017 237.663C56.0476 233.147 54.347 228.53 52.8932 223.797C52.4534 222.397 52.0519 220.981 51.6699 219.564C56.1437 218.498 60.9612 218.364 65.4537 219.297C68.3597 219.897 71.1313 220.863 73.7123 222.131C81.2443 225.78 87.2469 231.964 90.9559 238.83C92.7143 242.096 94.015 245.529 94.9516 249.045C96.2132 253.695 96.8631 258.495 97.1123 263.311C97.2076 265.127 97.2655 266.928 97.2655 268.727C98.6231 267.378 100.114 266.078 101.72 264.861C108.182 260.011 116.478 256.578 124.737 256.478C135.08 256.361 145.575 261.044 150.622 268.894C153.355 273.127 154.426 277.943 154.828 282.81C154.981 284.56 155.018 286.327 155.038 288.06C155.076 292.942 154.828 297.81 154.273 302.659C160.773 299.759 168.649 298.876 175.876 299.742C183.102 300.609 190.041 303.992 194.037 309.325C197.418 313.876 198.451 319.359 198.814 324.825Z" fill="#7182FF"/>
<path d="M360.904 255.479C360.579 255.996 360.254 256.512 359.909 257.029C350.366 271.92 337.767 285.311 322.937 296.427C319.61 298.927 316.17 301.31 312.614 303.56C309.577 305.502 306.465 307.353 303.285 309.11C303.276 309.115 303.267 309.12 303.258 309.125C301.555 310.072 299.711 310.808 297.781 311.329C276.234 317.164 251.716 322.11 226.109 324.025C228.939 318.626 233.47 313.909 239.147 310.642C247.635 305.742 258.512 304.126 268.377 306.326C268.722 297.96 271.761 290.71 277.515 284.027C278.987 282.311 280.631 280.695 282.448 279.261C284.436 277.644 286.635 276.278 289.062 275.228C293.669 273.229 299.117 272.478 304.069 273.729C305.655 274.128 307.166 274.728 308.543 275.462C314.144 278.445 318.006 283.895 320.013 289.477C320.017 289.477 320.013 289.477 320.017 289.477C322.977 280.536 327.579 272.798 335.134 266.229C341.576 260.596 350.103 256.563 359.106 255.63C359.718 255.562 360.311 255.513 360.904 255.479Z" fill="#FFB289"/>
<path d="M286.53 63.5815C286.53 63.5815 276.43 52.7914 295.006 44.3984C315.462 35.1554 319.443 48.7095 319.443 48.7095L305.225 58.4672L286.53 63.5815Z" fill="#FFA9DD"/>
<path d="M326.807 62.0386L381.902 161.702L382.515 162.813L370.219 177.131L349.982 174.985L349.628 174.351L294.076 76.8274L307.538 64.7075L326.807 62.0386Z" fill="#F7607D"/>
<path d="M352.063 166.709C351.956 166.709 351.853 166.656 351.805 166.566L300.546 72.3218C300.477 72.1976 300.539 72.0492 300.68 71.9895C300.828 71.9313 300.994 71.9839 301.062 72.1081L352.322 166.352C352.391 166.476 352.329 166.625 352.187 166.684C352.145 166.701 352.104 166.709 352.063 166.709Z" fill="#512651"/>
<path d="M369.93 158.635C369.823 158.635 369.723 158.583 369.673 158.495L317.308 65.067C317.239 64.9427 317.298 64.7936 317.441 64.7332C317.579 64.6729 317.755 64.7233 317.824 64.8468L370.188 158.275C370.257 158.399 370.198 158.549 370.055 158.609C370.016 158.627 369.973 158.635 369.93 158.635Z" fill="#512651"/>
<path d="M381.904 161.702L382.518 162.813L383.63 186.85L384.341 202.195L371.269 191.841L349.984 174.985L349.631 174.351L352.066 166.459L367.749 170.751L370.171 158.279L381.904 161.702Z" fill="#FFA9DD"/>
<path d="M383.633 186.85L384.344 202.195L371.271 191.841C372.864 188.742 376.125 186.326 379.3 186.007C380.358 185.901 381.49 185.959 382.561 186.343C382.94 186.47 383.305 186.652 383.633 186.85Z" fill="#512651"/>
<path d="M319.44 48.7097L321.917 53.1913L321.64 53.6663L322.189 53.6883L323.735 56.4851L323.344 57.0147L324.007 56.9821L326.804 62.0388L294.074 76.8276L291.204 71.8043L291.47 71.4344L290.932 71.3073L289.349 68.5269L289.602 68.1612L289.059 68.0384L286.525 63.5816L319.44 48.7097Z" fill="#7182FF"/>
<path d="M321.917 53.1914L322.189 53.6884L289.349 68.527L289.059 68.0385L321.917 53.1914Z" fill="#FFE9DC"/>
<path d="M323.735 56.4851L324.007 56.9821L291.204 71.8043L290.932 71.3073L323.735 56.4851Z" fill="#FFE9DC"/>
<path d="M324.137 151.918L326.578 136.175L332.598 150.926L350.17 149.13L336.514 157.694L340.347 171.478L328.607 161.662L319.743 174.402L321.42 159.364L306.566 156.022L324.137 151.918Z" fill="#FFE9DC"/>
<path d="M122.389 276.166L124.83 260.423L130.85 275.174L148.422 273.378L134.766 281.942L138.599 295.726L126.859 285.91L117.995 298.65L119.672 283.612L104.818 280.27L122.389 276.166Z" fill="#FFE9DC"/>
</svg>
