<svg width="421" height="339" viewBox="0 0 421 339" fill="none" xmlns="http://www.w3.org/2000/svg">
<path d="M220.62 234.421C227.223 268.798 180.861 295.769 144.397 286.29C143.674 286.101 142.95 285.902 142.248 285.685C122.207 279.696 110.895 265.374 102.689 249.339L175.55 240.116L220.62 234.421Z" fill="#FC09B2"/>
<g opacity="0.25">
<path opacity="0.25" d="M220.614 234.421C227.217 268.798 180.855 295.769 144.391 286.29C143.667 286.101 142.944 285.902 142.242 285.685C152.831 279.592 161.671 271.296 167.572 261.656C171.68 254.949 174.375 247.608 175.555 240.116L220.614 234.421Z" fill="#0C1A40"/>
</g>
<path d="M377.417 135.591C374.567 125.1 367.063 116.265 356.496 109.671C356.92 105.102 356.574 100.504 355.327 95.9349C352.689 86.21 346.42 77.7716 337.535 71.0455C334.451 68.7089 331.066 66.5804 327.403 64.6789C314.956 58.1609 299.424 54.1877 282.456 53.3647C269.997 41.568 245.012 36.3366 218.781 41.4829C201.089 44.9452 186.347 52.4376 177.039 61.6233C163.267 57.2055 145.864 56.2216 127.927 59.7408C91.2745 66.9209 66.2788 90.1075 72.0907 111.516C72.1464 111.733 72.2354 111.922 72.3022 112.14C40.281 125.649 21.1974 150.567 27.6439 174.311C30.8728 186.212 40.036 195.984 52.8512 202.824C43.2983 210.203 37.4864 219.162 37.0633 228.149C36.9408 230.466 37.1857 232.775 37.8092 235.054C38.1655 236.35 38.6109 237.59 39.1899 238.81C47.351 256.179 77.2457 265.109 108.933 258.894C119.243 256.869 128.54 253.473 136.367 249.178C152.422 252.366 170.626 252.489 189.186 248.857C195.366 247.646 201.267 246.085 206.901 244.202C200.977 256.756 198.428 270.549 199.652 283.755C199.775 285.06 199.886 286.394 200.064 287.719C200.677 293.139 201.701 298.692 204.273 303.63C207.48 309.817 216.854 315.512 223.524 308.323C228.3 303.176 235.081 272.45 247.74 240.844C248.263 239.539 248.775 238.252 249.321 236.956C249.666 236.105 250.034 235.272 250.39 234.421C254.498 234.118 258.674 233.56 262.904 232.737C285.751 228.262 303.71 217.052 311.337 204.148C355.762 194.376 385.166 164.142 377.417 135.591Z" fill="#FF8EDE"/>
<g opacity="0.5">
<g opacity="0.5">
<path opacity="0.5" d="M249.244 240.873C236.574 272.479 229.804 303.205 225.028 308.351C218.358 315.541 208.984 309.836 205.777 303.659C203.216 298.721 202.181 293.168 201.568 287.747C203.261 287.35 204.897 286.839 206.478 286.167C215.285 282.478 220.596 274.702 224.716 267.115C228.835 259.528 232.487 251.421 239.635 245.678C242.319 243.531 245.681 241.847 249.244 240.873Z" fill="#FC09B2"/>
</g>
<g opacity="0.5">
<path opacity="0.5" d="M378.923 135.611C386.672 164.161 357.256 194.405 312.854 204.177C305.227 217.081 287.268 228.291 264.421 232.765C260.19 233.598 256.015 234.156 251.906 234.449C244.781 234.988 237.911 234.752 231.509 233.844C224.573 237.883 216.823 241.402 208.406 244.221C202.772 246.104 196.871 247.665 190.692 248.876C172.132 252.518 153.928 252.395 137.872 249.197C130.045 253.492 120.76 256.888 110.438 258.913C78.7512 265.128 48.8565 256.198 40.6953 238.829C66.9492 244.231 97.022 237.59 114.881 220.098C127.874 207.346 135.69 189.495 153.861 182.75C166.398 178.115 180.927 180.082 193.932 183.706C206.925 187.319 219.429 192.522 232.945 194.263C246.462 196.004 261.86 193.516 270.266 184.349C277.993 175.882 277.904 164.208 277.871 153.509C277.804 136.699 278.817 119.566 285.375 103.74C291.955 87.8752 304.793 73.231 322.963 66.5522C324.912 65.8427 326.882 65.2184 328.909 64.7075C332.561 66.609 335.957 68.7375 339.041 71.0741C347.926 77.8002 354.194 86.2386 356.833 95.9635C358.069 100.533 358.425 105.13 358.002 109.7C368.568 116.284 376.072 125.11 378.923 135.611Z" fill="#FC09B2"/>
</g>
</g>
<path opacity="0.5" d="M51.0157 157.236C47.4974 165.854 48.5997 176.307 48.5997 176.146C48.7221 179.107 44.0793 180.243 42.3313 177.67C28.5363 157.302 45.9943 132.375 72.4931 128.364C75.6775 127.881 77.5146 131.344 74.9872 133.056C64.8553 139.914 55.4359 146.905 51.0157 157.236Z" fill="white"/>
<path d="M308.697 189.467C306.604 185.541 303.698 181.653 299.701 178.541C295.682 175.428 290.928 173.234 285.773 171.843C280.595 170.443 274.928 170.263 269.729 170.878C264.473 171.455 259.608 172.713 254.954 173.962L244.388 176.762C245.312 174.851 245.902 172.808 246.08 170.717C246.492 165.931 244.599 160.907 240.78 157.095C236.939 153.311 231.773 151.069 226.774 149.678C224.246 148.978 221.697 148.486 219.158 148.136C216.653 147.777 213.992 147.55 211.743 147.351C202.413 146.604 193.238 145.374 184.442 143.198C175.647 141.013 167.307 137.73 159.58 133.246L159.569 133.237C158.723 132.745 157.565 132.801 156.797 133.426C155.917 134.145 155.884 135.327 156.719 136.084C163.589 142.214 172.44 146.802 181.815 149.782C185.289 150.908 188.829 151.826 192.403 152.573C190.021 153.85 187.627 155.033 185.2 156.035C180.846 157.823 176.37 159.025 171.828 159.422C167.285 159.867 162.664 159.422 158.088 158.344C153.557 157.246 148.936 155.392 144.761 153.254L144.561 153.15C143.815 152.772 142.846 152.781 142.1 153.245C141.12 153.859 140.909 155.042 141.621 155.874C143.425 157.965 145.463 159.554 147.745 161.087C150.039 162.563 152.533 163.868 155.227 164.862C160.582 166.905 166.74 167.841 172.752 167.302C178.775 166.801 184.52 164.918 189.33 162.184C193.428 159.904 196.946 157.085 199.83 153.916C203.482 154.474 207.156 154.891 210.797 155.222C213.324 155.42 215.439 155.572 217.666 155.865C219.871 156.139 221.997 156.556 224.057 157.057C228.21 158.003 231.862 159.649 234.579 161.853C237.151 164.114 238.876 167.227 239.055 170.604C239.255 173.357 238.509 176.214 236.928 178.768C229.079 180.963 221.352 183.233 213.591 185.049C204.517 187.216 195.332 188.928 186.224 189.06L182.817 189.117L179.432 188.947L177.74 188.862L176.07 188.654L172.73 188.237C168.343 187.424 164.001 186.393 159.87 184.822C151.62 181.691 144.193 176.914 137.947 171.086C131.634 165.287 126.479 158.495 122.037 151.343C121.513 150.511 120.333 150.113 119.275 150.473C118.14 150.851 117.594 151.939 118.04 152.904C121.658 160.69 126.501 168.163 132.825 174.842C133.393 175.438 133.995 176.015 134.585 176.601C134.562 176.601 134.551 176.592 134.529 176.592C129.764 175.722 124.742 175.58 119.788 176.214C114.822 176.791 109.934 178.361 105.737 180.717C101.405 182.921 98.0653 186.232 95.5045 189.685C95.0369 190.319 95.0034 191.16 95.5156 191.832C96.217 192.759 97.6756 193.034 98.7779 192.438L99.0117 192.305C102.719 190.281 106.015 188.199 109.778 186.913L111.137 186.374L112.551 185.957C113.508 185.702 114.399 185.343 115.367 185.125L118.262 184.491C119.22 184.264 120.233 184.198 121.213 184.028C125.176 183.498 129.274 183.346 133.46 183.479C136.912 183.611 140.508 183.961 144.037 184.378C147.834 186.989 151.965 189.278 156.407 191.113C158.701 192.125 161.139 192.863 163.566 193.648C164.758 194.084 166.027 194.33 167.274 194.623C168.532 194.897 169.779 195.209 171.037 195.455L174.856 196.013L176.771 196.288L178.697 196.43L182.55 196.704L186.391 196.732C196.679 196.723 206.588 194.869 216.13 192.684C225.66 190.394 234.813 187.566 243.92 184.974L250.222 183.176C248.084 185.087 246.258 187.32 244.967 189.864C242.317 195.02 242.417 200.942 244.288 205.814C246.058 210.781 249.175 215.047 252.983 218.614C253.629 219.219 254.675 219.455 255.622 219.134C256.835 218.718 257.437 217.554 256.947 216.513L256.936 216.485C254.965 212.275 253.172 208.16 252.393 204.14C251.58 200.119 251.87 196.326 253.54 192.967C255.21 189.6 258.305 186.62 262.124 184.037C265.865 181.54 270.352 179.373 274.839 177.5C277.823 177.349 280.773 177.547 283.646 178.172C287.766 179.08 291.818 180.717 295.103 183.015C298.465 185.276 301.104 188.322 303.331 191.738C305.535 195.162 307.372 198.918 309.276 202.711C309.744 203.638 310.969 204.14 312.127 203.827C313.363 203.496 314.053 202.39 313.663 201.339C312.238 197.414 310.791 193.412 308.697 189.467Z" fill="#FC09B2"/>
<path d="M179.662 90.5528C182.011 92.0285 184.805 93.1543 187.444 93.7692C190.038 94.4692 192.644 94.8855 195.227 95.2449C200.393 95.8693 205.403 95.9734 210.18 96.2477C214.956 96.4464 219.521 96.7869 223.752 97.714C225.879 98.1303 227.916 98.783 229.753 99.4831C231.535 100.297 233.238 101.205 234.719 102.349C236.177 103.513 237.424 104.885 238.516 106.398C239.573 107.931 240.408 109.634 241.076 111.422C242.424 115.016 242.969 118.961 243.236 122.991V123.029C243.303 123.947 244.105 124.732 245.218 124.883C246.499 125.054 247.701 124.306 247.902 123.218C248.681 118.961 248.792 114.525 247.857 110.022C247.334 107.78 246.554 105.547 245.385 103.371C244.183 101.214 242.557 99.1803 240.609 97.364C238.638 95.5571 236.289 94.0814 233.795 92.8799C231.267 91.7731 228.751 90.8933 226.168 90.269C226.268 88.008 226.513 85.766 227.003 83.7037C227.816 80.3832 229.208 77.4222 231.379 75.0288C233.516 72.6165 236.511 70.7529 240.074 69.2771C243.648 67.8013 247.723 66.7607 252.032 65.7296L252.066 65.7201C252.934 65.512 253.624 64.8876 253.769 64.0741C253.97 62.9673 253.068 61.9361 251.765 61.7658C247.011 61.1604 242.012 61.378 237.09 62.6645C232.192 63.8849 227.27 66.4391 223.952 70.242C220.59 74.0071 218.976 78.6331 218.853 82.9658C218.775 85.0659 218.976 87.1093 219.432 89.0865C216.459 88.7081 213.509 88.4999 210.658 88.3486C205.67 88.1688 200.894 88.0742 196.351 87.658C194.102 87.4404 191.864 87.185 189.771 86.7025C187.678 86.2957 185.941 85.6903 184.249 84.8294C180.931 83.0604 178.793 80.5819 178.671 77.2992C178.459 73.9882 180.129 70.2231 182.122 66.5999L182.133 66.5715C182.567 65.7863 182.3 64.8214 181.454 64.2727C180.474 63.6484 179.094 63.8187 178.359 64.6511C175.342 68.0757 172.514 72.0489 171.901 77.1195C171.667 79.6359 172.191 82.3793 173.649 84.7632C175.119 87.1471 177.279 89.0675 179.662 90.5528Z" fill="#FC09B2"/>
<path d="M118.126 211.963C116.857 211.159 115.431 210.506 114.062 209.825C112.692 209.21 111.312 208.633 109.931 208.103C104.375 205.984 98.775 204.631 93.5866 203.014C90.9701 202.191 88.5763 201.415 86.2827 200.422C84.0114 199.438 81.8959 198.284 80.0922 196.931C78.2551 195.606 76.7075 194.093 75.5273 192.399C74.336 190.706 73.5789 188.814 73.1001 186.809C72.1871 182.769 72.7661 178.266 74.0576 173.839C75.3158 169.374 77.3533 164.965 79.5467 160.557L79.5578 160.538C79.9586 159.724 79.6469 158.76 78.7562 158.258C77.743 157.681 76.3735 157.908 75.6943 158.769C72.4321 162.884 69.6374 167.321 67.5331 172.136C65.5179 176.942 64.1261 182.258 64.9389 187.868C65.3286 190.649 66.2973 193.459 67.9117 196.004C69.515 198.549 71.6527 200.828 74.091 202.711C78.99 206.457 84.9244 208.794 90.4913 210.449C96.0694 212.095 101.447 213.448 106.402 215.16C107.638 215.586 108.84 216.04 110.02 216.532C111.123 217.052 112.258 217.506 113.305 218.131C115.443 219.285 117.48 220.628 119.339 222.161C119.662 222.426 119.952 222.71 120.252 222.984C119.284 222.861 118.304 222.776 117.324 222.766C110.165 222.634 103.83 224.545 98.0179 226.352C95.1676 227.326 92.1614 228.357 90.0571 228.868C87.7412 229.36 85.4031 229.36 83.0316 228.991C78.3108 228.187 73.4119 225.358 69.515 222L69.348 221.858C68.7133 221.309 67.7113 221.13 66.8428 221.48C65.7406 221.924 65.2618 223.041 65.7851 223.977C67.277 226.683 69.2589 228.877 71.7418 230.949C74.2358 232.945 77.2642 234.686 80.7937 235.689C84.3009 236.748 88.2311 236.9 91.9387 236.379C95.8022 235.622 98.441 234.629 101.325 233.768C104.13 232.841 106.881 231.98 109.586 231.299C112.269 230.561 114.941 230.088 117.502 229.871C121.177 229.587 125.185 230.268 128.035 232.122C130.663 236.37 132.433 241.062 133.045 245.924V245.962C133.168 246.908 134.081 247.675 135.239 247.741C136.53 247.807 137.644 246.965 137.722 245.868C138.456 235.537 133.68 225.056 125.252 217.27C123.103 215.302 120.765 213.476 118.126 211.963Z" fill="#FC09B2"/>
<path d="M221.852 217.014C217.265 213.41 211.342 211.263 205.519 210.392C199.662 209.465 193.828 209.607 188.25 210.402C182.65 211.197 177.316 212.549 172.217 214.791C171.427 215.141 170.926 215.879 171.037 216.674C171.171 217.714 172.262 218.462 173.486 218.348L173.631 218.339C178.764 217.866 184.008 217.45 189.052 217.327C194.118 217.241 199.117 217.393 203.804 218.169C208.514 218.897 212.823 220.297 216.553 222.473C220.26 224.687 223.222 227.827 225.794 231.583L225.838 231.649C226.317 232.34 227.263 232.756 228.254 232.624C229.546 232.453 230.437 231.422 230.225 230.325C229.323 225.491 226.484 220.59 221.852 217.014Z" fill="#FC09B2"/>
<path d="M88.1554 127.929C91.9187 130.739 96.3388 133.378 101.728 134.675C104.378 135.346 107.239 135.706 110.056 135.564C112.85 135.479 115.756 135.043 118.596 133.984C121.435 132.943 123.984 131.146 125.799 129.131C127.636 127.116 128.906 124.94 129.863 122.868C131.7 118.668 132.68 114.685 134.038 111.128C135.33 107.553 137.089 104.535 139.739 102.605C142.5 100.647 146.386 99.5115 150.628 99.2277C154.892 98.8777 159.435 99.2939 164.033 99.8426H164.056C165.124 99.9656 166.193 99.4547 166.583 98.5655C167.039 97.5344 166.416 96.3802 165.202 95.9924C160.615 94.5355 155.727 93.476 150.483 93.2773C146.286 93.1543 141.721 93.7219 137.557 95.5004C137.356 94.3842 136.989 93.2679 136.399 92.1705C134.595 88.7554 130.965 86.1917 127.325 84.8957C123.65 83.5429 119.898 83.0605 116.291 83.0794C112.661 83.1362 109.21 83.5902 105.78 84.7727C105.112 85.0092 104.589 85.5106 104.422 86.1539C104.155 87.1945 104.934 88.2162 106.159 88.4432L106.371 88.4811C109.466 89.0487 112.617 89.4649 115.523 90.0325C118.44 90.5718 121.201 91.2434 123.55 92.1327C125.922 93.0314 127.714 94.1287 129.095 95.614C130.064 96.6167 130.765 97.9506 131.355 99.4926C130.375 100.429 129.529 101.432 128.805 102.454C127.336 104.497 126.289 106.597 125.421 108.631C123.739 112.708 122.726 116.653 121.168 120.002C119.676 123.398 117.727 125.858 114.766 127.04C113.296 127.684 111.47 128.081 109.533 128.213C107.618 128.384 105.68 128.27 103.743 127.939C99.8683 127.277 96.016 125.574 92.3529 123.417C88.6453 121.279 85.1381 118.659 81.4861 116.076C80.7068 115.527 79.56 115.49 78.7249 116.029C77.7563 116.663 77.5781 117.845 78.3241 118.668C81.2412 121.903 84.4255 125.044 88.1554 127.929Z" fill="#FC09B2"/>
<path d="M362.717 128.288C363.708 125.034 364.109 121.619 363.63 118.27C363.196 114.921 361.916 111.724 360.112 108.848C359.566 107.968 358.319 107.561 357.206 107.93C356.003 108.328 355.402 109.482 355.87 110.504L355.881 110.522C358.286 115.801 358.375 121.477 356.193 126.595C354.066 131.741 349.969 136.273 345.081 139.972C340.149 143.633 334.315 146.527 328.213 148.107C322.179 149.668 315.632 149.782 311.345 147.369C307.014 145.023 304.977 140.208 304.643 134.56C304.119 128.251 302.683 121.95 300.278 115.858C297.773 109.804 294.166 103.957 289.133 99.0285C286.628 96.5689 283.778 94.3553 280.649 92.4822C277.442 90.628 274.213 89.0955 270.205 88.1495C269.181 87.9035 268.068 88.3292 267.622 89.1806C267.121 90.1172 267.611 91.224 268.724 91.6402L268.936 91.7254C270.228 92.2173 271.764 93.0025 273.1 93.7971C274.47 94.5918 275.783 95.481 277.019 96.427C279.524 98.2906 281.707 100.457 283.666 102.727C287.541 107.325 290.324 112.566 292.195 118.053C293.13 120.796 293.854 123.615 294.399 126.463C294.889 129.32 295.279 132.205 295.49 135.109C295.68 138.24 296.27 141.873 297.907 145.231C299.465 148.637 302.427 151.901 306.324 153.991C310.221 156.11 314.719 156.962 318.905 157.028C321.856 157.085 324.695 156.744 327.434 156.186C327.044 157.738 326.833 159.327 326.81 160.992C326.833 164.511 327.89 168.541 331.175 171.814C332.789 173.422 334.894 174.699 337.098 175.504C339.303 176.298 341.596 176.733 343.756 176.781C348.121 176.942 352.084 176.109 355.625 174.671C356.371 174.368 356.916 173.744 356.983 172.987C357.095 171.861 356.104 170.868 354.779 170.783L354.701 170.774C351.105 170.518 347.709 170.376 344.814 169.723C341.874 169.128 339.737 168.115 338.223 166.658C336.686 165.192 335.617 162.969 334.971 160.358C334.493 158.504 334.237 156.451 334.036 154.37C340.271 152.194 345.849 148.997 350.615 145.071C356.17 140.511 360.635 134.806 362.717 128.288Z" fill="#FC09B2"/>
<path d="M288.853 68.9936L288.975 69.0598C293.217 71.3775 297.504 73.7899 301.512 76.2968C305.509 78.8415 309.295 81.5093 312.713 84.4135C316.109 87.3272 319.104 90.4679 321.52 93.9019C323.925 97.3548 325.617 101.11 326.864 105.235L326.886 105.311C327.12 106.086 327.889 106.701 328.879 106.805C330.182 106.947 331.362 106.162 331.529 105.065C332.242 100.297 331.273 95.2642 328.991 90.7517C326.753 86.2014 323.279 82.1998 319.293 78.8131C315.274 75.4454 310.731 72.6357 305.877 70.4221C301.011 68.199 295.99 66.4583 290.467 65.5501C289.599 65.4082 288.675 65.711 288.174 66.3826C287.517 67.2624 287.817 68.426 288.853 68.9936Z" fill="#FC09B2"/>
<path d="M274.48 155.912C279.658 158.504 285.303 159.913 290.914 160.301C291.872 160.367 292.818 159.932 293.252 159.157C293.82 158.154 293.308 156.943 292.128 156.47L292.105 156.46C287.351 154.54 282.898 152.525 279.157 150.037C275.393 147.559 272.543 144.579 270.661 141.154C268.824 137.711 268.023 133.785 267.956 129.66C267.911 125.564 268.602 121.174 269.615 116.993L269.659 116.813C269.837 116.076 269.481 115.29 268.691 114.855C267.666 114.288 266.297 114.534 265.629 115.413C262.433 119.604 260.563 124.211 259.784 129.197C258.993 134.144 259.594 139.518 262.166 144.408C264.749 149.29 269.27 153.395 274.48 155.912Z" fill="#FC09B2"/>
<path d="M213.239 116.369C209.298 114.439 204.566 113.73 200.357 114.193C196.126 114.647 192.285 115.944 189.112 117.892C188.444 118.299 188.043 118.999 188.121 119.746C188.243 120.872 189.424 121.705 190.749 121.601L190.804 121.591C194.356 121.317 197.64 121.08 200.636 121.298C203.642 121.468 206.258 122.149 208.619 123.237C210.968 124.372 213.117 126.028 215.076 128.09C217.047 130.115 218.828 132.622 220.51 135.072L220.654 135.289C221.033 135.838 221.734 136.216 222.536 136.226C223.772 136.245 224.796 135.412 224.818 134.362C224.896 130.815 223.883 127.56 222.013 124.372C220.153 121.251 217.192 118.299 213.239 116.369Z" fill="#FC09B2"/>
<path d="M217.813 315.966C217.245 315.966 216.677 315.938 216.154 315.89C209.173 315.134 203.606 310.072 201.179 305.39C198.206 299.629 197.148 293.158 196.569 288.163C196.447 287.113 196.335 286.053 196.235 284.994L196.168 284.086C196.146 283.878 196.124 283.66 196.113 283.452C185.057 289.279 172.375 292.448 159.805 292.448C153.882 292.448 148.203 291.748 142.926 290.358C142.202 290.187 141.378 289.951 140.588 289.724C126.325 285.467 114.935 277.066 105.805 264.068C100.683 264.797 95.4951 265.175 90.3512 265.175C64.4313 265.175 43.0987 255.46 36.0286 240.437C35.3383 238.98 34.815 237.542 34.4142 236.048C33.6905 233.38 33.401 230.665 33.5569 227.988C33.9577 219.568 38.5449 210.959 46.5502 203.467C34.9486 196.05 27.2773 186.373 24.26 175.314C17.6687 151.049 35.2492 124.968 68.1389 109.869C66.2573 98.9052 71.0894 87.4774 81.8894 77.4498C93.1458 67.0343 109.624 59.277 128.318 55.6254C135.922 54.1307 143.594 53.3739 151.131 53.3739C160.361 53.3739 169.079 54.4902 177.085 56.6944C187.473 47.4992 202.325 40.6691 219.171 37.3486C226.308 35.9485 233.5 35.239 240.537 35.239C259.32 35.239 275.887 40.3285 286.264 49.2494C303.132 50.3089 318.775 54.3862 331.557 61.065C335.443 63.0894 339.084 65.3882 342.402 67.8951C352.277 75.3686 358.958 84.7435 361.752 95.0076C362.866 99.1795 363.333 103.437 363.166 107.684C373.877 114.921 381.003 124.211 383.831 134.664C384.744 138.013 385.212 141.485 385.212 144.976C385.212 172.495 356.943 198.188 316.281 207.809C307.263 221.441 287.99 232.538 265.566 236.918C262.126 237.58 258.797 238.081 255.601 238.413L255.59 238.441C255.123 239.51 254.699 240.569 254.276 241.629L254.02 242.272C248.008 257.266 243.321 272.128 239.557 284.067L239.513 284.19C234.536 300.016 232.008 307.764 228.98 311.018C225.161 315.105 220.797 315.966 217.813 315.966ZM212.29 247.485C208.739 255.441 206.634 263.747 206.033 272.194C205.966 273.235 205.877 274.616 205.877 275.988C205.833 278.495 205.922 280.992 206.144 283.442L206.245 284.445C206.334 285.372 206.412 286.318 206.545 287.245C207.035 291.644 207.903 297.235 210.353 301.927C211.622 304.396 214.595 307.111 217.356 307.405C217.523 307.424 217.668 307.433 217.802 307.433C218.214 307.433 219.483 307.433 221.064 305.721C222.912 303.734 226.364 292.779 229.704 282.184L229.815 281.825C233.623 269.754 238.366 254.741 244.501 239.482L244.679 238.98C244.612 238.98 244.534 238.98 244.467 238.98C242.096 238.98 239.869 238.914 237.809 238.772C236.006 238.649 234.313 238.498 232.665 238.299C232.12 238.602 231.574 238.904 231.018 239.207C229.67 239.936 228.212 240.683 226.419 241.553C225.785 241.865 225.128 242.187 224.437 242.499C223.536 242.925 222.578 243.36 221.554 243.795L221.064 244.022C220.63 244.221 220.218 244.391 219.772 244.571C219.071 244.855 218.347 245.158 217.601 245.46C215.898 246.179 214.105 246.851 212.29 247.485ZM116.215 262.063C123.842 272.043 132.716 278.315 143.905 281.664C144.551 281.863 145.141 282.014 145.743 282.165L145.854 282.194C150.252 283.338 154.962 283.925 159.849 283.925C172.408 283.925 185.469 280.027 195.934 273.188C196.313 265.724 197.772 258.326 200.277 251.117C197.538 251.827 194.71 252.461 191.826 253.038C182.229 254.92 172.52 255.866 162.945 255.866C154.661 255.866 146.544 255.157 138.795 253.747C131.859 257.352 124.287 260.133 116.215 262.063ZM59.332 202.417C59.5101 203.77 58.8978 205.113 57.6842 206.021C48.9551 212.785 43.9226 220.722 43.5663 228.338C43.4661 230.305 43.6665 232.245 44.1787 234.127C44.4682 235.177 44.8467 236.208 45.3477 237.268C50.8702 249.036 68.4841 256.652 90.2176 256.652C95.1499 256.652 100.194 256.254 105.226 255.479C106.362 255.318 107.442 255.138 108.511 254.92L108.7 254.883C108.856 254.864 109.012 254.835 109.168 254.797L109.301 254.769C118.81 252.896 127.505 249.812 135.143 245.612L135.266 245.545C136.067 245.148 136.969 244.931 137.871 244.931C138.294 244.931 138.706 244.978 139.118 245.072C146.644 246.567 154.683 247.333 162.911 247.333C171.74 247.333 180.703 246.454 189.566 244.713C195.333 243.578 201.056 242.074 206.59 240.248C210.487 238.933 214.305 237.448 217.913 235.83C219.026 235.347 220.028 234.884 220.986 234.401C223.513 233.2 226.018 231.876 228.691 230.324C229.448 229.851 230.45 229.577 231.519 229.577C231.786 229.577 232.042 229.596 232.309 229.634C236.228 230.182 240.281 230.466 244.401 230.466C246.728 230.466 249.11 230.381 251.482 230.201C255.323 229.927 259.298 229.388 263.306 228.593C283.893 224.563 301.161 214.469 308.399 202.256C309 201.168 310.191 200.345 311.627 200.033C353.781 190.753 381.203 162.865 374.033 136.556C372.82 132.044 370.582 127.749 367.375 123.795C364.169 119.812 360.027 116.227 355.039 113.133C353.636 112.244 352.868 110.796 353.012 109.34C353.402 105.092 353.046 100.901 351.955 96.8996C349.639 88.3856 344.027 80.5527 335.71 74.2428C332.904 72.1143 329.742 70.1277 326.291 68.3208C314.4 62.1056 299.67 58.4067 283.703 57.631C282.367 57.5742 281.076 57.0444 280.207 56.1741C272.035 48.4547 257.06 43.8193 240.203 43.8193C233.979 43.8193 227.666 44.4342 221.442 45.6545C205.565 48.7574 191.325 55.597 182.373 64.4233C181.405 65.3693 180.024 65.899 178.566 65.899C177.987 65.899 177.419 65.8139 176.884 65.6531C169.113 63.1367 160.473 61.8691 151.143 61.8691C144.418 61.8691 137.503 62.5502 130.6 63.8935C113.855 67.1762 99.2027 74.0252 89.338 83.1731C79.9409 91.8574 76.0997 101.563 78.5047 110.513C78.5937 110.721 78.6939 110.986 78.7496 111.307C79.2061 113.161 78.1038 115.101 76.0775 115.962C45.1696 129.007 28.2905 152.071 34.0802 173.356C36.8971 183.762 44.8467 192.702 57.0607 199.22C58.3411 199.939 59.1761 201.093 59.332 202.417Z" fill="white"/>
<path d="M380.56 135.298C377.787 125.053 370.584 115.971 359.728 109.027C360.073 104.477 359.639 99.9835 358.481 95.6414C355.853 85.9448 349.496 77.0808 340.166 70.0141C337.004 67.6207 333.519 65.426 329.8 63.4772C317.141 56.8646 301.598 52.9009 284.741 52.0022C271.28 39.6757 245.917 35.0119 219.919 40.1109C202.851 43.4692 188.054 50.4886 178.055 59.9675C163.626 55.5686 146.279 55.001 129.077 58.3782C111.007 61.9068 95.1407 69.3614 84.3519 79.3512C73.5854 89.341 69.1541 100.721 71.8596 111.392C38.9031 125.734 21.0999 151.03 27.5242 174.652C30.6195 186.013 38.9365 195.804 51.6626 203.041C42.5439 210.572 37.3221 219.426 36.9101 228.101C36.7765 230.551 37.0437 233.011 37.7006 235.404C38.0681 236.795 38.558 238.091 39.1592 239.368C45.9064 253.69 66.3149 262.328 90.3865 262.328C95.9535 262.328 101.721 261.873 107.544 260.918C114.659 271.589 125.002 282.052 141.703 287.037C142.438 287.255 143.206 287.472 143.941 287.643C149.018 288.976 154.384 289.601 159.829 289.601C173.435 289.601 187.564 285.618 199.232 278.22C199.254 280.122 199.343 282.004 199.533 283.887L199.599 284.767C199.689 285.807 199.811 286.848 199.922 287.87C200.479 292.619 201.448 298.777 204.265 304.236C206.246 308.067 210.967 312.456 216.579 313.062C216.968 313.1 217.414 313.119 217.848 313.119C220.342 313.119 223.504 312.333 226.365 309.23C229.071 306.326 231.955 297.226 236.297 283.423C240.083 271.419 244.792 256.462 250.871 241.317L251.105 240.749C251.539 239.652 251.985 238.554 252.463 237.429C252.675 236.88 252.931 236.312 253.154 235.764C257.006 235.451 260.936 234.884 264.822 234.137C286.99 229.804 305.773 218.811 314.034 205.369C354.339 196.268 381.885 170.972 381.885 144.957C381.851 141.75 381.428 138.514 380.56 135.298ZM144.876 284.918C144.186 284.738 143.484 284.568 142.794 284.351C129.745 280.444 119.613 272.857 110.995 260.275C120.927 258.335 130.046 255.119 138.173 250.739C154.852 253.955 173.112 253.804 191.06 250.285C196.003 249.301 200.824 248.109 205.512 246.652C201.659 255.696 199.533 265.175 199.21 274.616C183.489 285.419 162.434 289.487 144.876 284.918ZM249.268 236.502C248.778 237.618 248.344 238.715 247.887 239.841L247.676 240.409C241.552 255.639 236.82 270.643 233.012 282.714C229.082 295.173 225.987 305.021 223.704 307.48C221.767 309.58 219.474 310.498 216.957 310.224C212.827 309.789 208.963 306.298 207.304 303.081C204.677 298.02 203.752 292.155 203.24 287.576C203.107 286.574 203.006 285.552 202.917 284.559L202.828 283.66C202.595 281.106 202.505 278.561 202.55 275.988C202.55 274.673 202.617 273.358 202.706 272.024C203.352 262.98 205.712 253.918 209.709 245.318C211.925 244.571 214.096 243.767 216.222 242.906C216.957 242.613 217.681 242.319 218.394 242.026C218.783 241.865 219.151 241.714 219.552 241.534V241.515C220.687 241.042 221.789 240.55 222.903 240.021C223.549 239.727 224.172 239.434 224.796 239.122C226.321 238.375 227.802 237.627 229.249 236.842C230.151 236.35 231.031 235.858 231.91 235.347C233.948 235.622 235.996 235.82 238.101 235.953C240.183 236.085 242.298 236.152 244.425 236.152H244.492C245.304 236.152 246.128 236.133 246.941 236.114C247.72 236.114 248.489 236.076 249.279 236.038H249.468C249.379 236.189 249.313 236.35 249.268 236.502ZM312.431 202.795C311.963 202.89 311.574 203.164 311.373 203.543C303.702 216.494 285.576 227.146 264.054 231.365C259.968 232.169 255.837 232.736 251.762 233.03C244.904 233.541 238.179 233.342 231.788 232.443C231.354 232.386 230.908 232.462 230.563 232.68C228.024 234.155 225.386 235.565 222.669 236.861C221.611 237.391 220.542 237.883 219.462 238.356C215.699 240.04 211.813 241.553 207.794 242.906C202.183 244.77 196.315 246.321 190.314 247.494C172.622 250.966 154.629 251.089 138.263 247.825C137.828 247.731 137.361 247.806 136.971 248.005C128.977 252.404 119.925 255.601 110.071 257.541C109.815 257.597 109.559 257.635 109.314 257.673C108.156 257.91 107.01 258.108 105.852 258.26C76.7586 262.753 49.8701 254.495 42.2767 238.299C41.7423 237.164 41.308 236 40.9629 234.751C40.3839 232.613 40.1501 230.419 40.2726 228.215C40.6623 219.814 46.0956 211.186 55.515 203.883C55.9047 203.59 56.1162 203.155 56.0494 202.71C56.0049 202.256 55.7265 201.868 55.2923 201.632C42.3101 194.707 33.8594 185.171 30.831 174.008C24.6851 151.408 42.2878 127.068 74.5986 113.436C75.2889 113.142 75.6563 112.471 75.4782 111.846C75.4559 111.686 75.4114 111.572 75.3445 111.43C75.3223 111.355 75.3 111.288 75.2777 111.213C72.5499 101.327 76.6583 90.6938 86.8459 81.2716C97.1448 71.7169 112.409 64.5557 129.823 61.1406C136.982 59.7499 144.164 59.0404 151.111 59.0404C160.675 59.0404 169.838 60.3554 177.966 62.9853C178.612 63.1839 179.347 63.0231 179.814 62.569C189.211 53.3076 204.086 46.1275 220.665 42.8921C245.427 38.0486 270.345 42.6367 282.714 54.3293C282.993 54.6037 283.405 54.7834 283.872 54.8023C300.406 55.6064 315.671 59.4567 328.03 65.9084C331.581 67.7721 334.91 69.8533 337.917 72.1237C346.735 78.8119 352.725 87.1557 355.197 96.2563C356.377 100.57 356.744 105.045 356.332 109.557C356.288 110.049 356.544 110.541 357 110.834C362.311 114.136 366.72 117.958 370.116 122.177C373.534 126.396 375.961 131.003 377.275 135.913C384.846 163.744 356.354 193.118 312.431 202.795Z" fill="white"/>
<path d="M312.093 112.329C327.425 134.873 323.984 162.24 305.936 181.416C300.481 187.206 293.689 192.238 285.683 196.174C277.678 200.1 269.15 202.588 260.521 203.713C231.962 207.422 202.335 196.278 187.014 173.734C167.051 144.38 178.887 106.852 213.424 89.8995C247.962 72.9376 292.13 82.9653 312.093 112.329Z" fill="#6280FF"/>
<path d="M249.541 191.85C281.289 191.85 307.026 169.983 307.026 143.008C307.026 116.033 281.289 94.1655 249.541 94.1655C217.793 94.1655 192.057 116.033 192.057 143.008C192.057 169.983 217.793 191.85 249.541 191.85Z" fill="white"/>
<path d="M267.687 144.796C263.545 143.746 263.635 139.697 266.362 136.972C270.582 132.753 276.684 131.419 280.202 132.346C289.666 134.815 277.719 147.35 267.687 144.796Z" fill="#FC09B2"/>
<path d="M241.29 157.756C242.281 154.19 238.105 152.232 233.975 152.865C227.562 153.859 223.164 157.69 222.34 160.746C220.124 168.948 238.874 166.422 241.29 157.756Z" fill="#FC09B2"/>
<g opacity="0.18">
<path opacity="0.18" d="M299.328 118.592C315.205 141.948 305.797 171.823 278.307 185.313C262.608 193.023 244.393 193.714 228.705 188.539C238.57 188.255 248.501 185.957 257.631 181.473C287.403 166.857 297.602 134.494 280.4 109.188C277.271 104.591 273.475 100.551 269.144 97.0984C281.435 100.892 292.28 108.223 299.328 118.592Z" fill="#0C1A40"/>
<path opacity="0.18" d="M242.303 106.776C243.606 106.672 244.753 107.486 244.864 108.583C245.02 110.04 243.328 110.731 243.461 110.617C243.294 110.702 233.207 115.253 233.04 115.328C226.593 118.923 224.923 120.096 225.068 120.001C219.189 125.044 213.767 127.768 207.498 140.747L207.365 141.022C206.897 141.977 205.617 142.441 204.481 142.043C198.936 140.114 206.63 109.586 242.303 106.776Z" fill="#0C1A40"/>
</g>
<path d="M372.81 285.192C377.887 292.06 375.249 301.133 366.987 305.191L356.243 310.47C347.982 314.528 337.416 311.936 332.951 304.765L327.083 295.315L326.794 294.851L321.973 287.103L312.086 271.163L307.243 263.378L297.378 247.504L292.512 239.652L278.951 217.837C285.453 219.256 292.579 218.603 298.859 215.529C305.138 212.445 309.358 207.544 311.173 202.039L319.935 213.854L326.604 222.832L332.238 230.457L343.428 245.545L349.039 253.104L360.262 268.249L365.829 275.78L372.81 285.192Z" fill="#FFCF00"/>
<path d="M332.223 230.438C330.586 231.554 328.927 232.623 327.257 233.701C323.482 236.01 319.563 238.157 315.577 240.163C311.502 242.093 307.36 243.899 303.107 245.498C301.215 246.189 299.311 246.851 297.373 247.485L292.508 239.633C294.534 238.838 296.549 238.034 298.542 237.164C302.428 235.527 306.258 233.815 309.988 231.932C313.751 230.126 317.403 228.148 321 226.086C322.915 225.036 324.763 223.929 326.6 222.803L332.223 230.438Z" fill="#FD8A02"/>
<path d="M349.014 253.085C347.099 254.447 345.095 255.743 343.091 257.011C339.317 259.319 335.397 261.467 331.411 263.472C327.336 265.402 323.195 267.209 318.941 268.808C316.681 269.631 314.399 270.416 312.072 271.154L307.229 263.368C309.645 262.46 312.016 261.514 314.376 260.483C318.262 258.846 322.092 257.134 325.822 255.251C329.585 253.445 333.237 251.467 336.834 249.405C339.072 248.175 341.265 246.87 343.403 245.517L349.014 253.085Z" fill="#FD8A02"/>
<path d="M365.815 275.752C363.599 277.332 361.283 278.836 358.956 280.321C355.182 282.629 351.263 284.777 347.277 286.782C343.202 288.712 339.06 290.519 334.807 292.118C332.157 293.073 329.507 294.01 326.801 294.842L321.98 287.094C324.764 286.054 327.536 284.975 330.242 283.793C334.128 282.156 337.958 280.444 341.688 278.562C345.451 276.755 349.103 274.777 352.699 272.715C355.282 271.287 357.776 269.764 360.259 268.222L365.815 275.752Z" fill="#FD8A02"/>
<g opacity="0.5">
<path opacity="0.5" d="M372.811 285.193C377.888 292.061 375.249 301.133 366.987 305.191L356.243 310.47C347.982 314.528 337.416 311.936 332.951 304.765L327.083 295.315C330.078 293.574 332.84 291.663 334.487 288.863C339.386 280.529 332.929 270.548 329.756 262.394C323.932 247.438 314.702 225.528 319.924 213.835L372.811 285.193Z" fill="#FD8A02"/>
</g>
<path d="M308.574 184.614C312.304 190.101 313.017 196.373 311.157 202.02C309.343 207.517 305.123 212.426 298.843 215.51C295.403 217.194 291.729 218.15 288.021 218.424C284.97 218.679 281.886 218.452 278.936 217.819C272.233 216.371 266.221 212.72 262.491 207.242C261.711 206.088 261.055 204.915 260.531 203.704C263.415 203.326 266.31 202.805 269.171 202.096C274.827 200.753 280.383 198.766 285.694 196.164C286.44 195.796 287.153 195.427 287.865 195.048C292.319 192.702 296.383 189.968 300.001 186.969C302.15 185.219 304.132 183.356 305.958 181.416C306.915 182.4 307.795 183.469 308.574 184.614Z" fill="#00D5FE"/>
<g opacity="0.25">
<path opacity="0.25" d="M308.576 184.614C312.306 190.101 313.019 196.373 311.159 202.02C309.345 207.516 305.125 212.426 298.845 215.51C295.405 217.194 291.731 218.15 288.023 218.424C289.103 215.037 289.693 211.546 289.804 208.056C289.938 203.657 289.248 199.258 287.867 195.039C292.321 192.693 296.385 189.959 300.003 186.96C302.152 185.21 304.134 183.346 305.96 181.407C306.917 182.4 307.797 183.469 308.576 184.614Z" fill="#322BBF"/>
</g>
<path d="M279.152 186.543C292.835 179.827 302.622 168.985 306.708 156.016C310.794 143.046 308.69 129.499 300.785 117.873C284.463 93.8725 248.21 85.6234 219.964 99.4918C191.717 113.36 182.008 144.162 198.33 168.162C209.275 184.263 229.205 193.279 249.658 193.279C259.69 193.279 269.855 191.112 279.152 186.543ZM201.236 166.743C185.838 144.105 195.001 115.044 221.645 101.961C230.418 97.6566 240.005 95.6132 249.469 95.6132C268.764 95.6132 287.558 104.118 297.89 119.301C305.35 130.265 307.332 143.046 303.479 155.278C299.627 167.51 290.397 177.736 277.493 184.074C250.838 197.157 216.635 189.381 201.236 166.743Z" fill="#0C1A40"/>
<path d="M221.139 140.179C218.066 141.73 217.098 144.909 218.846 147.548C220.46 149.989 224.557 150.964 227.597 149.403C230.603 147.861 231.661 144.72 229.79 141.995C228.02 139.384 224.268 138.599 221.139 140.179Z" fill="#0C1A40"/>
<path d="M259.714 121.24C256.062 123.123 256.018 126.5 257.331 128.638C258.801 131.012 263.155 132.062 265.871 130.643C273.465 126.689 266.684 117.645 259.714 121.24Z" fill="#0C1A40"/>
<path d="M250.07 131.42C249.324 131.883 249.157 132.772 249.703 133.406C253.733 138.117 253.822 142.091 252.553 144.247C251.74 145.619 250.36 146.395 248.667 146.414C248.645 146.414 248.623 146.414 248.6 146.414C245.227 146.414 241.43 143.585 238.435 138.817C238.001 138.127 236.977 137.862 236.164 138.231C235.351 138.6 235.039 139.461 235.473 140.161C239.114 145.95 243.891 149.261 248.6 149.261C248.634 149.261 248.678 149.261 248.712 149.261C251.64 149.223 254.19 147.833 255.548 145.525C257.764 141.769 256.583 136.613 252.408 131.732C251.863 131.098 250.816 130.956 250.07 131.42Z" fill="#0C1A40"/>
<path d="M347.858 315.711C345.92 315.711 343.983 315.474 342.09 315.011C336.623 313.677 332.148 310.583 329.487 306.307L276.233 220.59C268.974 218.641 262.906 214.507 259.098 208.897C258.753 208.396 258.43 207.866 258.107 207.289C255.067 207.592 252.139 207.743 249.389 207.743C221.988 207.743 197.416 195.644 183.643 175.38C162.644 144.493 175.137 104.855 211.478 87.0138C223.024 81.3472 236.151 78.3484 249.433 78.3484C276.623 78.3484 301.93 90.7316 315.48 110.664C330.7 133.056 328.83 160.67 310.815 181.416C311.238 181.945 311.628 182.456 311.962 182.958C315.781 188.567 316.961 195.095 315.335 201.424L376.116 283.423C379.144 287.52 380.057 292.363 378.699 297.046C377.329 301.729 373.867 305.645 368.945 308.057L358.201 313.336C355.028 314.888 351.465 315.711 347.858 315.711ZM336.401 303.214C338.06 305.882 340.854 307.802 344.261 308.634C345.442 308.918 346.655 309.07 347.858 309.07C350.096 309.07 352.322 308.559 354.293 307.594L365.048 302.315C368.11 300.811 370.27 298.37 371.128 295.457C371.985 292.533 371.406 289.516 369.524 286.971L311.828 209.134C311.672 209.351 311.516 209.569 311.361 209.786C311.316 209.853 311.26 209.919 311.194 209.994C310.748 210.581 310.281 211.149 309.802 211.678C309.668 211.83 309.523 211.972 309.379 212.114L309.223 212.274C308.844 212.672 308.455 213.069 308.043 213.447C307.809 213.656 307.575 213.864 307.341 214.072C306.929 214.431 306.506 214.772 306.072 215.103C305.794 215.32 305.549 215.5 305.304 215.68C304.825 216.021 304.335 216.342 303.845 216.664L303.634 216.806C303.467 216.91 303.3 217.023 303.133 217.118C302.331 217.6 301.563 218.017 300.806 218.386C300.026 218.773 299.158 219.142 298.145 219.53C297.922 219.615 297.699 219.691 297.477 219.776L297.354 219.823C296.675 220.069 295.951 220.296 295.239 220.505L295.072 220.552C294.893 220.599 294.715 220.656 294.537 220.703C291.731 221.441 288.803 221.829 285.853 221.848L336.401 303.214ZM279.896 214.611C279.918 214.611 279.985 214.62 280.063 214.639C280.698 214.772 281.321 214.885 281.934 214.97C282.201 215.008 282.468 215.027 282.724 215.056L283.281 215.112C283.515 215.131 283.737 215.16 283.971 215.169C284.383 215.198 284.806 215.198 285.229 215.207L285.942 215.216C286.443 215.207 286.944 215.188 287.456 215.15L287.779 215.122C288.425 215.065 289.093 214.989 289.816 214.876L290.262 214.81C290.752 214.725 291.286 214.602 291.999 214.431L292.277 214.365C292.388 214.337 292.488 214.318 292.6 214.289C293.145 214.138 293.669 213.958 294.181 213.779L294.504 213.665C294.604 213.637 294.693 213.608 294.793 213.57C295.561 213.277 296.252 212.984 296.898 212.662C302.064 210.127 305.794 206.04 307.408 201.149C309 196.315 308.354 191.273 305.582 186.874C305.27 187.158 304.947 187.442 304.613 187.744C304.446 187.896 303.467 188.728 303.467 188.728C303.21 188.955 302.954 189.173 302.698 189.381C301.73 190.185 300.672 191.008 299.503 191.869C299.302 192.02 299.091 192.162 298.879 192.304L298.512 192.569C297.076 193.591 295.617 194.556 294.192 195.426L293.903 195.606C293.736 195.71 293.58 195.814 293.413 195.908C292.232 196.608 291.063 197.271 289.917 197.876C289.204 198.264 288.436 198.661 287.645 199.049L287.534 199.097C286.476 199.617 285.251 200.175 283.837 200.78C283.604 200.884 282.802 201.216 282.802 201.216C281.766 201.651 280.709 202.058 279.684 202.436L278.816 202.758C276.066 203.732 273.216 204.583 270.332 205.274C270.332 205.274 270.087 205.331 269.998 205.35C269.063 205.567 268.205 205.766 267.348 205.936C266.992 206.012 266.624 206.078 266.257 206.144C269.374 210.382 274.184 213.381 279.896 214.611ZM249.445 84.9893C237.52 84.9893 225.752 87.676 215.386 92.7655C182.763 108.781 171.563 144.351 190.401 172.069C202.771 190.251 224.816 201.111 249.4 201.111C252.907 201.111 256.448 200.884 259.944 200.43C261.091 200.279 262.304 200.09 263.674 199.844C263.93 199.797 264.743 199.636 264.743 199.636C266.056 199.38 267.047 199.163 267.949 198.945L268.061 198.917C270.699 198.283 273.271 197.526 275.799 196.627L276.556 196.344C277.513 195.994 278.449 195.625 279.384 195.237L280.308 194.849C281.599 194.3 282.713 193.78 283.726 193.288C285.441 192.446 287.178 191.5 288.903 190.469C289.015 190.403 289.493 190.091 289.627 190.015C290.896 189.239 292.188 188.378 293.468 187.47L293.847 187.205C294.025 187.082 294.203 186.959 294.381 186.827C295.539 185.975 296.742 185.01 298.055 183.885C298.456 183.554 298.835 183.223 299.213 182.882C300.705 181.539 301.874 180.413 302.888 179.334C320.613 160.499 322.895 134.853 308.711 113.984C296.552 96.0954 273.839 84.9893 249.445 84.9893Z" fill="white"/>
<path d="M374.232 284.435L312.951 201.764C314.754 195.672 313.741 189.362 310.034 183.903C309.432 183.023 308.753 182.191 308.041 181.396C326.456 161.114 328.672 133.86 313.552 111.619C293.166 81.6401 247.873 71.3381 212.589 88.6595C177.306 105.981 165.181 144.464 185.567 174.443C198.984 194.177 223.222 205.86 249.387 205.86C252.716 205.86 256.09 205.633 259.463 205.255C259.92 206.172 260.432 207.09 261.022 207.97C264.73 213.428 270.664 217.326 277.767 219.028L331.455 305.446C333.838 309.268 337.824 312.021 342.701 313.213C344.404 313.629 346.13 313.837 347.844 313.837C351.051 313.837 354.202 313.118 357.063 311.718L367.808 306.439C372.206 304.282 375.29 300.792 376.514 296.61C377.75 292.41 376.938 288.087 374.232 284.435ZM188.473 173.005C169.011 144.389 180.579 107.655 214.27 91.1191C225.36 85.6796 237.474 83.0875 249.443 83.0875C273.837 83.0875 297.597 93.8341 310.646 113.029C325.298 134.579 322.938 161.057 304.634 180.507C303.431 181.784 302.151 182.995 300.837 184.178C300.447 184.528 300.046 184.878 299.646 185.218C298.421 186.268 297.163 187.29 295.849 188.255C295.548 188.482 295.225 188.69 294.914 188.917C293.633 189.835 292.308 190.705 290.939 191.547C290.694 191.698 290.449 191.859 290.193 192.011C288.467 193.042 286.686 194.016 284.849 194.924C283.691 195.492 282.499 196.031 281.319 196.542C281.007 196.674 280.684 196.807 280.373 196.939C279.415 197.337 278.447 197.715 277.467 198.074C277.2 198.169 276.943 198.273 276.676 198.368C274.093 199.285 271.454 200.071 268.771 200.714C268.715 200.733 268.649 200.742 268.582 200.761C267.502 201.026 266.377 201.262 265.242 201.48C264.874 201.556 264.507 201.622 264.139 201.688C262.87 201.915 261.59 202.123 260.276 202.294C231.305 206.049 203.125 194.555 188.473 173.005ZM263.939 206.532C263.56 205.974 263.204 205.397 262.892 204.819C263.115 204.782 263.327 204.744 263.549 204.706C264.128 204.611 264.707 204.507 265.275 204.403C265.798 204.309 266.322 204.214 266.834 204.1C267.669 203.93 268.493 203.741 269.317 203.552C269.417 203.523 269.528 203.505 269.628 203.486C269.662 203.476 269.695 203.467 269.729 203.457C272.523 202.786 275.273 201.972 277.957 201.017C278.246 200.912 278.524 200.808 278.803 200.704C279.816 200.335 280.829 199.938 281.831 199.522C282.165 199.38 282.51 199.247 282.833 199.106C284.069 198.576 285.283 198.027 286.485 197.441C286.496 197.431 286.519 197.431 286.53 197.422C287.298 197.043 288.033 196.665 288.745 196.277C289.903 195.672 291.028 195.028 292.141 194.366C292.397 194.215 292.642 194.044 292.898 193.893C294.335 193.013 295.726 192.086 297.085 191.121C297.408 190.894 297.731 190.677 298.042 190.45C299.111 189.664 300.147 188.86 301.149 188.028C301.516 187.725 301.872 187.404 302.24 187.091C302.496 186.874 302.741 186.666 302.997 186.448C303.977 185.578 304.957 184.688 305.903 183.733C306.337 184.253 306.749 184.802 307.128 185.37C310.512 190.346 311.37 196.145 309.544 201.679C307.773 207.043 303.676 211.536 298.009 214.317C297.263 214.686 296.495 215.017 295.704 215.311C295.482 215.396 295.248 215.462 295.025 215.538C294.446 215.736 293.878 215.935 293.288 216.096C293.065 216.162 292.843 216.2 292.62 216.257C291.985 216.417 291.351 216.559 290.705 216.673C290.549 216.701 290.382 216.72 290.226 216.749C289.491 216.862 288.745 216.966 287.988 217.023C287.877 217.032 287.766 217.042 287.643 217.051C287.086 217.099 286.519 217.118 285.962 217.127C285.706 217.127 285.45 217.127 285.183 217.118C284.715 217.108 284.258 217.108 283.791 217.08C283.446 217.061 283.101 217.023 282.744 216.985C282.343 216.947 281.954 216.919 281.553 216.862C280.874 216.768 280.195 216.645 279.515 216.503C279.449 216.493 279.393 216.484 279.326 216.465C272.802 215.027 267.324 211.508 263.939 206.532ZM373.274 295.91C372.272 299.335 369.745 302.192 366.149 303.951L355.404 309.23C351.808 310.99 347.633 311.425 343.647 310.46C339.65 309.485 336.388 307.225 334.439 304.103L282.054 219.785C283.145 219.899 284.236 219.946 285.327 219.956C285.394 219.956 285.461 219.965 285.528 219.965C285.606 219.965 285.684 219.956 285.75 219.956C288.512 219.946 291.239 219.587 293.878 218.896C294.09 218.839 294.301 218.773 294.524 218.716C295.192 218.527 295.849 218.319 296.495 218.082C296.74 217.997 296.985 217.912 297.218 217.818C298.053 217.496 298.877 217.146 299.679 216.749C300.425 216.38 301.138 215.982 301.839 215.566C302.062 215.434 302.273 215.282 302.496 215.15C302.964 214.857 303.42 214.554 303.854 214.242C304.099 214.071 304.333 213.892 304.567 213.702C304.968 213.39 305.357 213.078 305.736 212.747C305.959 212.558 306.181 212.369 306.393 212.17C306.771 211.82 307.139 211.451 307.495 211.082C307.673 210.893 307.851 210.713 308.029 210.524C308.475 210.022 308.909 209.502 309.31 208.972C309.366 208.906 309.421 208.84 309.477 208.764C309.922 208.159 310.334 207.534 310.724 206.891C310.835 206.702 310.935 206.513 311.036 206.324C311.225 205.983 311.436 205.642 311.603 205.283L371.404 285.949C373.608 288.948 374.276 292.486 373.274 295.91Z" fill="white"/>
<path d="M392.652 11.8378L392.65 11.8364C387.717 8.17798 380.242 8.57886 375.903 12.8125C371.648 16.9475 367.265 23.7198 363.583 30.5533C359.892 37.4031 356.851 44.4181 355.309 49.1079L355.308 49.1113C354.93 50.2744 355.524 51.2881 356.328 51.8081C357.125 52.3229 358.241 52.4575 359.244 51.9364C364.022 49.4738 371.131 45.121 377.916 40.2587C384.681 35.4111 391.225 29.9861 394.794 25.3696C398.119 21.0774 397.236 15.2532 392.652 11.8378Z" fill="#FD8A02" stroke="white" stroke-width="2"/>
<path d="M419.482 48.1375L419.482 48.1367C417.731 43.6859 412.213 41.4514 407.257 42.848L407.257 42.8482C402.373 44.2282 396.15 47.3745 390.378 50.8026C384.593 54.2389 379.175 58.0107 375.888 60.6982L375.888 60.6982L375.883 60.7023C375.081 61.366 374.918 62.3667 375.309 63.1795C375.685 63.9615 376.516 64.4727 377.49 64.459C381.947 64.4063 388.898 63.8552 395.865 62.844C402.812 61.8357 409.879 60.3558 414.517 58.4122C418.773 56.63 421.113 52.2938 419.482 48.1375Z" fill="#FD8A02" stroke="white" stroke-width="2"/>
<path d="M338.504 40.4462L338.507 40.4404C340.642 37.0043 343.409 31.5251 345.693 25.8386C347.968 20.1766 349.816 14.183 350.024 9.75371L350.024 9.7529C350.246 4.96218 345.905 1.18102 340.687 1.00673C335.905 0.842772 331.612 3.72966 330.745 7.89317C329.817 12.2825 330.111 18.5132 330.9 24.4726C331.693 30.4565 333.004 36.3036 334.189 39.9815C334.508 40.977 335.422 41.4415 336.212 41.5139C337.004 41.5864 337.965 41.299 338.504 40.4462Z" fill="#FD8A02" stroke="white" stroke-width="2"/>
<path d="M60.1776 286.24L60.1755 286.241C55.1567 288.096 47.5897 291.525 40.2591 295.484C32.9493 299.431 25.7707 303.96 21.6006 308.033C17.7406 311.798 17.6535 317.563 21.6236 321.431L21.6249 321.432C25.885 325.569 33.2031 325.972 38.0482 322.379L38.0487 322.379C42.807 318.846 48.0993 312.768 52.7235 306.551C57.3574 300.32 61.3868 293.859 63.6063 289.488C64.1575 288.41 63.745 287.332 63.0125 286.712C62.2952 286.104 61.2195 285.858 60.1776 286.24Z" fill="#FD8A02" stroke="white" stroke-width="2"/>
<path d="M1.17423 283.197L1.174 283.196C0.230216 278.953 3.17797 275.04 7.54308 273.797C12.34 272.427 19.4252 271.78 26.3218 271.577C33.2371 271.374 40.0653 271.615 44.3939 272.061L1.17423 283.197ZM1.17423 283.197C2.19649 287.771 7.26419 290.546 12.2835 289.747L12.285 289.746M1.17423 283.197L12.285 289.746M12.285 289.746C17.2355 288.95 23.7545 286.592 29.8793 283.912C36.019 281.225 41.8528 278.174 45.4541 275.939L45.4541 275.939M12.285 289.746L45.4541 275.939M45.4541 275.939L45.4612 275.935M45.4541 275.939L45.4612 275.935M45.4612 275.935C46.3106 275.397 46.6394 274.459 46.3755 273.598M45.4612 275.935L46.3755 273.598M46.3755 273.598C46.1187 272.761 45.3569 272.159 44.3945 272.061L46.3755 273.598Z" fill="#FD8A02" stroke="white" stroke-width="2"/>
<path d="M78.5239 299.681L78.5239 299.681L78.5194 299.686C75.9215 302.778 72.3941 307.781 69.3015 313.039C66.2226 318.275 63.5054 323.88 62.6182 328.156C61.6465 332.811 65.3252 336.998 70.3752 337.749C75.002 338.439 79.5766 336.112 81.0659 332.196L81.0661 332.196C82.6428 328.044 83.3208 321.965 83.4759 316.093C83.6316 310.198 83.2628 304.378 82.678 300.677C82.5166 299.635 81.6585 299.07 80.8937 298.912C80.1239 298.754 79.1607 298.934 78.5239 299.681Z" fill="#FD8A02" stroke="white" stroke-width="2"/>
</svg>
