<svg width="417" height="335" viewBox="0 0 417 335" fill="none" xmlns="http://www.w3.org/2000/svg">
<path d="M208.49 334.87C171.567 334.854 134.759 326.837 102.872 311.777C39.4296 281.815 0 226.498 0 167.426C0 142.859 6.79287 118.431 19.714 96.3061C19.5356 95.9987 19.3784 95.6815 19.2416 95.3571C18.2121 92.9118 18.4849 90.233 19.9982 87.9564C19.9982 87.9564 63.1607 23.0007 63.1786 22.9732C66.0285 18.6843 73.1846 16.8328 78.6197 18.9897L96.6306 26.1255C130.064 9.0148 168.586 0 208.49 0C252.718 0 294.582 10.844 330.14 31.4328C331.576 30.9442 333.124 30.6911 334.686 30.6911C340.043 30.6911 344.82 33.7519 346.032 37.9257L347.373 42.5502C391.674 74.3335 417 119.667 417 167.426C417 185.353 413.478 202.986 406.524 219.897L414.24 236.164C416.378 240.673 413.895 245.749 408.507 247.885L384.259 257.494C371.283 273.792 355.04 288.055 335.942 299.916C299.755 322.459 254.283 334.89 208.49 334.87Z" fill="white"/>
<path d="M407.377 167.426C407.377 196.115 397.572 224.558 379.071 249.11C364.877 267.944 346.148 284.396 323.444 296.804C323.425 296.819 315.001 295.49 315.001 295.49C307.85 299.529 300.102 308.202 300.102 308.202C289.622 312.465 278.655 316.067 267.398 318.775C257.805 321.098 247.901 322.845 237.725 323.967C234.074 324.388 230.403 324.716 226.694 324.934C224.053 325.121 221.393 325.261 218.713 325.339C216.014 325.448 213.275 325.495 210.517 325.495C210.129 325.495 209.741 325.495 209.352 325.48C197.117 325.433 185.135 324.466 173.542 322.72C169.93 322.159 166.356 321.519 162.822 320.817C144.596 317.142 127.012 311.417 110.836 303.727C52.6939 276.267 13.6797 225.511 13.6797 167.426C13.6797 80.1345 101.807 9.3562 210.519 9.3562C319.251 9.3562 407.377 80.1339 407.377 167.426Z" fill="#A2B7FF"/>
<path d="M373.917 226.01L345.031 263.411L341.142 264.958L305.559 197.071L310.231 195.353L363.782 198.468L373.917 226.01Z" fill="#58304D"/>
<path d="M405.38 239.496L345.03 263.411L310.23 195.352L373.407 172.068L405.38 239.496Z" fill="#7B50B6"/>
<path d="M329.051 201.822L336.35 215.721L374.934 202.157L366.801 188.089L329.051 201.822Z" fill="#FFE7E1"/>
<path d="M92.3488 100.396L36.2603 93.8081L32.3125 92.3608L75.492 27.377L80.0996 29.2049L115.9 55.2133L92.3488 100.396Z" fill="#58304D"/>
<path d="M97.4334 116.337L36.2617 93.808L80.101 29.2048L142.446 53.8928L97.4334 116.337Z" fill="#FFA71D"/>
<path d="M85.7113 45.0117L76.8789 58.3259L114.321 73.8174L122.789 59.8772L85.7113 45.0117Z" fill="#FFE7E1"/>
<path d="M271.287 317.8C270.025 318.19 268.678 318.416 267.396 318.775C257.802 321.098 247.898 322.845 237.722 323.967C234.071 324.388 230.4 324.716 226.691 324.934L224.885 318.603L212.943 319.211L209.35 325.48C197.115 325.433 185.133 324.466 173.54 322.72C169.928 322.159 166.354 321.519 162.82 320.817L169.19 291.861L170.257 286.995L220.011 285.639L267.803 284.329L268.424 290.317L271.287 317.8Z" fill="#7B50B6"/>
<path d="M228.284 187.078H209.855V213.387H228.284V187.078Z" fill="#FFACA9"/>
<path d="M228.284 187.078V200.297C227.041 201.07 225.717 201.73 224.253 202.149C218.638 203.791 213.685 202.697 209.855 200.169V187.078H228.284Z" fill="#58304D"/>
<path d="M108.692 163.189C107.613 164.334 106.258 165.29 104.739 166.069C103.879 166.51 102.964 166.907 102.031 167.23C93.2476 170.301 82.3415 168.332 75.424 163.013C68.5066 157.679 65.5972 149.421 67.1708 141.825C67.903 138.328 69.6045 134.86 72.7883 132.392C76.4845 129.541 81.9196 128.366 87.0249 128.806C90.9043 129.129 94.5638 130.305 97.7297 132.083C98.2054 132.348 98.6632 132.626 99.1209 132.921C101.445 134.405 103.421 136.227 104.922 138.269C105.379 138.887 105.8 139.533 106.166 140.194C109.973 147.026 115.152 156.282 108.692 163.189Z" fill="#FFACA9"/>
<path d="M103.77 162.616C103.366 162.616 102.985 162.417 102.833 162.095C98.8208 153.601 92.0987 146.045 83.3926 140.243C81.2033 138.784 78.5545 137.211 75.5034 136.602C74.9659 136.495 74.6385 136.058 74.772 135.627C74.9048 135.193 75.4489 134.927 75.9864 135.039C79.4293 135.726 82.3093 137.429 84.6722 139.003C93.6455 144.984 100.573 152.771 104.709 161.525C104.905 161.941 104.644 162.406 104.126 162.563C104.009 162.599 103.889 162.616 103.77 162.616Z" fill="#58304D"/>
<path d="M360.121 157.796C353.203 163.129 342.297 165.084 333.514 162.013C333.111 161.881 332.727 161.719 332.342 161.572C330.201 160.691 328.28 159.515 326.834 157.987C320.374 151.081 325.553 141.824 329.359 134.977C329.761 134.272 330.201 133.566 330.731 132.905C332.579 130.437 335.141 128.291 338.161 126.675C338.417 126.528 338.673 126.396 338.948 126.278C341.839 124.838 345.097 123.898 348.5 123.604C353.624 123.163 359.041 124.324 362.756 127.189C365.939 129.643 367.623 133.126 368.355 136.623C369.929 144.219 367.019 152.477 360.121 157.796Z" fill="#FFACA9"/>
<path d="M331.116 157.638C331.023 157.638 330.926 157.628 330.832 157.605C330.301 157.478 329.997 157.03 330.155 156.604C332.551 150.103 335.677 144.801 339.711 140.397C344.515 135.153 350.585 131.306 357.267 129.276C357.779 129.115 358.363 129.327 358.56 129.744C358.756 130.16 358.495 130.624 357.977 130.781C351.658 132.703 345.9 136.358 341.327 141.351C337.433 145.602 334.408 150.742 332.079 157.061C331.949 157.411 331.549 157.638 331.116 157.638Z" fill="#58304D"/>
<path d="M338.409 123.595C337.577 136.188 336.057 149.301 332.339 161.575C332.16 162.166 331.962 162.741 331.742 163.332C331.545 163.894 331.25 164.634 331.038 165.138C330.019 167.567 328.692 170.016 327.046 172.216C318.072 184.168 298.59 188.705 282.592 190.831C280.363 191.119 278.135 191.374 275.886 191.598C260.126 193.18 244.167 193.116 228.287 193.627C228.128 193.627 227.949 193.643 227.79 193.643C221.462 193.851 215.512 194.043 209.861 194.187C193.862 194.586 180.151 194.618 166.481 193.675C164.596 193.544 162.711 193.407 160.83 193.244C156.315 192.852 151.768 192.31 147.288 191.706C144.245 191.296 141.208 190.853 138.186 190.352C134.524 189.745 131.141 188.818 128.037 187.619C126.517 187.049 124.988 186.378 123.6 185.622C121.377 184.411 119.217 183.086 117.272 181.595C113.203 178.477 110.007 174.695 107.362 170.73C106.387 169.212 105.511 167.662 104.735 166.064C97.1099 150.367 98.0759 132.413 101.153 116.037C102.328 109.789 107.701 104.876 109.532 98.8367C114.646 82.0118 137.7 79.3762 156.485 71.6112C194.374 55.9602 229.755 44.829 270.761 52.4868C271.473 52.6195 271.559 53.3566 272.27 53.4939C288.503 56.6273 304.823 59.2524 316.963 68.8002C329.618 78.7549 330.741 93.9657 332.274 107.819C332.891 113.539 338.409 123.595 338.409 123.595Z" fill="#FFACA9"/>
<g opacity="0.53">
<g opacity="0.53">
<path opacity="0.53" d="M171.463 179.671C171.463 184.808 169.639 189.622 166.49 193.679C157.286 193.051 148.082 192.005 138.196 190.362C123.498 187.915 113.532 180.379 107.355 170.735C111.927 160.494 124.119 153.168 138.437 153.168C156.684 153.168 171.463 165.035 171.463 179.671Z" fill="#FF676C"/>
</g>
<g opacity="0.53">
<path opacity="0.53" d="M331.766 163.329C330.583 166.517 329.079 169.528 327.054 172.217C318.07 184.164 298.599 188.705 282.597 190.83C280.371 191.12 278.145 191.377 275.899 191.603C272.35 187.385 270.285 182.28 270.285 176.805C270.285 162.153 285.064 150.286 303.312 150.286C315.424 150.286 326.011 155.519 331.766 163.329Z" fill="#FF676C"/>
</g>
</g>
<path d="M159.693 153.504C166.102 153.504 171.298 149.332 171.298 144.185C171.298 139.039 166.102 134.867 159.693 134.867C153.284 134.867 148.088 139.039 148.088 144.185C148.088 149.332 153.284 153.504 159.693 153.504Z" fill="#58304D"/>
<path d="M280.513 153.504C286.922 153.504 292.118 149.332 292.118 144.185C292.118 139.039 286.922 134.867 280.513 134.867C274.104 134.867 268.908 139.039 268.908 144.185C268.908 149.332 274.104 153.504 280.513 153.504Z" fill="#58304D"/>
<path d="M222.924 161.013C222.415 161.013 221.904 161.003 221.39 160.98C214.029 160.647 204.72 157.602 200.52 151.543C200.253 151.158 200.426 150.672 200.906 150.457C201.384 150.244 201.992 150.38 202.259 150.767C206.07 156.264 214.905 159.087 221.502 159.384C230.182 159.763 238.415 156.568 244.074 150.591C244.404 150.24 245.03 150.171 245.467 150.438C245.905 150.706 245.989 151.207 245.657 151.557C239.926 157.614 231.71 161.013 222.924 161.013Z" fill="#58304D"/>
<path d="M147.524 114.438C144.101 115.805 140.605 118.169 140.782 121.236C140.911 123.474 143.088 125.377 145.638 126.287C148.188 127.196 151.062 127.287 153.852 127.264C158.454 127.228 163.276 126.863 167.127 124.841C170.979 122.818 173.446 118.669 171.548 115.303C170.344 113.169 167.62 111.751 164.759 111.294C159.355 110.432 152.295 112.532 147.524 114.438Z" fill="#58304D"/>
<path d="M290.768 114.438C294.192 115.805 297.687 118.169 297.511 121.236C297.382 123.474 295.205 125.377 292.655 126.287C290.105 127.196 287.231 127.287 284.441 127.264C279.839 127.228 275.018 126.863 271.166 124.841C267.314 122.818 264.847 118.669 266.746 115.303C267.95 113.169 270.673 111.751 273.535 111.294C278.937 110.432 285.996 112.532 290.768 114.438Z" fill="#58304D"/>
<path d="M281.835 62.83C280.979 68.2308 279.069 73.6793 274.95 78.0252C274.851 78.137 274.752 78.2331 274.652 78.345C268.782 84.2886 258.912 87.3244 249.5 86.6534C240.107 85.9824 231.312 81.8118 225.402 75.9003C224.765 84.5606 222.477 94.1313 213.801 99.2921C207.792 102.855 199.534 103.526 192.43 101.657C185.346 99.7715 179.416 95.5695 175.456 90.4885C174.302 98.7813 166.9 106.323 157.109 109.167C147.319 112.011 135.639 110.014 128.136 104.213C128.913 109.933 129.689 115.749 128.255 121.39C126.842 127.015 122.803 132.527 116.336 134.972C110.645 137.097 102.749 136.073 98.8691 132.302C99.1477 126.837 100.138 121.439 101.153 116.038C103.401 104.077 106.237 91.5526 114.818 81.3756C122.568 72.1823 133.65 64.9326 145.887 59.8746C185.878 43.3544 233.16 42.8109 276.095 51.1914C277.831 51.5301 279.557 51.882 281.278 52.2685C282.532 55.6562 282.373 59.2991 281.835 62.83Z" fill="#58304D"/>
<path d="M338.411 123.595C337.894 124.905 337.357 126.183 336.8 127.461V127.477C336.561 128.004 336.342 128.515 336.103 129.042C335.307 130.8 334.093 132.829 331.785 133.069C331.386 133.117 331.008 133.101 330.65 133.021C328.641 132.686 327.148 130.88 326.352 129.235C323.168 122.572 323.725 114.822 327.865 108.511C323.904 112.682 316.005 113.656 310.135 111.388C304.244 109.103 300.404 104.165 299.23 99.0047C298.056 93.844 299.27 88.491 301.399 83.5382C298.772 87.2771 292.723 89.0024 287.529 88.0122C282.316 87.0378 278.077 83.7462 275.828 79.8476C275.49 79.2564 275.191 78.6488 274.953 78.0262C273.48 74.6071 273.241 70.8518 273.679 67.2411C274.316 61.9521 276.345 56.5357 279.768 51.9341C280.266 52.0459 280.783 52.1577 281.28 52.2696C294.931 55.4494 308.264 60.1464 318.491 68.1998C331.147 78.1544 336.639 92.5824 338.172 106.436C338.789 112.155 338.789 117.875 338.411 123.595Z" fill="#58304D"/>
<path d="M276.984 50.9871C274.936 48.2717 273.481 45.2685 272.708 42.1554C271.925 39.0083 271.983 35.4054 274.631 33.0026C275.512 32.2041 276.768 31.5579 278.089 31.6724C279.797 31.8208 280.948 33.1445 281.596 34.4218C282.92 37.0293 283.127 39.9063 283.19 42.7218C283.288 47.1193 283.727 52.3311 282.302 56.5814C280.16 55.9144 278.221 52.6286 276.984 50.9871Z" fill="#58304D"/>
<path d="M286.274 50.732C288.998 48.4319 292.224 46.5157 295.762 45.0971C299.337 43.6636 303.682 42.761 307.265 44.1815C308.456 44.6537 309.563 45.4568 309.772 46.5098C310.044 47.8721 308.756 49.1121 307.391 49.9498C304.605 51.6607 301.203 52.5783 297.837 53.367C292.579 54.5992 286.431 56.3087 280.949 56.3231C281.187 54.4893 284.626 52.1231 286.274 50.732Z" fill="#58304D"/>
<path d="M323.441 296.804C323.169 296.975 322.897 297.163 322.626 297.334C322.606 297.35 322.587 297.365 322.587 297.365C320.819 298.363 319.053 299.314 317.246 300.25C314.469 301.7 311.692 303.072 308.818 304.413C305.944 305.723 303.05 307.002 300.099 308.202L267.551 255.777L292.952 250.351L323.441 296.804Z" fill="#FFACA9"/>
<path d="M209.383 206.217L219.545 211.929L228.436 204.79C228.436 204.79 266.032 210.909 267.302 212.948C268.573 214.988 285.593 288.42 285.593 288.42C285.593 288.42 201.254 299.639 148.67 288.828L173.819 217.436L209.383 206.217Z" fill="#FFE7E1"/>
<path d="M173.814 217.436L105.988 236.406L121.738 276.997L174.83 258.027L173.814 217.436Z" fill="#FFE7E1"/>
<path d="M267.295 212.948L321.15 256.803L272.376 273.326L267.295 212.948Z" fill="#FFE7E1"/>
<path d="M232.236 230.685C232.059 230.685 231.89 230.609 231.801 230.479L219.505 212.71L205.728 230.093C205.602 230.25 205.353 230.315 205.137 230.253C204.918 230.189 204.784 230.009 204.815 229.823L208.88 206.162C208.918 205.944 209.164 205.78 209.441 205.821C209.713 205.852 209.903 206.052 209.866 206.271L206.112 228.119L219.115 211.714C219.21 211.595 219.362 211.519 219.55 211.53C219.725 211.534 219.885 211.612 219.97 211.735L231.441 228.312L227.931 204.837C227.899 204.617 228.093 204.419 228.365 204.393C228.649 204.346 228.886 204.524 228.919 204.742L232.73 230.237C232.759 230.426 232.615 230.606 232.39 230.665C232.337 230.679 232.286 230.685 232.236 230.685Z" fill="#7B50B6"/>
<path d="M220.044 293.51C219.77 293.51 219.548 293.334 219.546 293.113L219.039 211.93C219.038 211.709 219.26 211.53 219.534 211.53C219.535 211.53 219.536 211.53 219.537 211.53C219.81 211.53 220.033 211.706 220.034 211.927L220.542 293.11C220.543 293.331 220.321 293.51 220.047 293.51C220.046 293.51 220.045 293.51 220.044 293.51Z" fill="#7B50B6"/>
<path d="M247.37 260.716C244.68 260.716 242.283 259.966 240.231 258.484C232.251 252.715 232.005 237.856 231.998 237.226C231.996 237.007 232.214 236.827 232.488 236.824L262.464 236.416C262.467 236.416 262.47 236.416 262.472 236.416C262.734 236.416 262.952 236.578 262.969 236.788C263.042 237.712 264.593 259.421 248.549 260.669C248.149 260.699 247.757 260.716 247.37 260.716ZM233.006 237.615C233.103 240.035 233.945 252.864 240.898 257.889C243.029 259.429 245.572 260.09 248.452 259.873C262.432 258.786 262.132 240.135 261.998 237.221L233.006 237.615Z" fill="#7B50B6"/>
<path d="M148.662 289.227C148.621 289.227 148.58 289.223 148.537 289.214C148.272 289.159 148.111 288.942 148.18 288.728L166.723 230.799C166.792 230.584 167.061 230.453 167.329 230.511C167.595 230.566 167.755 230.784 167.687 230.997L149.143 288.927C149.086 289.108 148.884 289.227 148.662 289.227Z" fill="#7B50B6"/>
<path d="M285.58 288.818C285.35 288.818 285.143 288.689 285.094 288.5L269.091 226.49C269.034 226.274 269.208 226.064 269.478 226.018C269.737 225.971 270.009 226.112 270.066 226.329L286.069 288.338C286.125 288.555 285.951 288.765 285.682 288.81C285.648 288.817 285.614 288.818 285.58 288.818Z" fill="#7B50B6"/>
<path d="M119.037 270.036L87.2177 280.997C81.5863 282.93 75.2186 279.958 74.5622 275.069L67.8564 226.383V226.287L67.797 225.84L67.7375 225.376L67.081 220.631L66.7227 218.074L67.6186 217.995L69.4691 217.835L69.6288 217.819L72.6334 217.547L72.7931 217.531L75.7977 217.259L75.9769 217.244L78.5043 217.02L82.0066 216.7L84.9119 216.445L85.0512 217.227L92.2546 255.831L110.9 249.056L119.037 270.036Z" fill="#FFACA9"/>
<path d="M66.7172 218.07C66.7172 218.07 53.6984 192.798 54.2245 191.13C54.7507 189.463 70.8451 176.102 70.8451 176.102L84.2671 194.669L84.9081 216.448L66.7172 218.07Z" fill="#FFACA9"/>
<path d="M84.8653 217.815C84.8653 217.815 92.0182 195.847 91.4489 195.199C90.8804 194.551 73.091 193.149 73.7719 195.019C74.4529 196.887 80.4744 201.44 80.4744 201.44L73.2441 213.322L84.8653 217.815Z" fill="#FFACA9"/>
<path d="M76.3023 227.513L73.8857 226.445L68.633 225.648L65.9297 226.116L78.4794 166.174L80.2354 166.411L80.3935 166.433L83.2637 166.822L83.4217 166.843L86.2855 167.229L86.4427 167.25L88.8479 167.576L76.3023 227.513Z" fill="#7B50B6"/>
<path d="M80.3555 165.884L67.7148 226.257L67.8739 226.278L80.5146 165.905L80.3555 165.884Z" fill="#FFE7E1"/>
<path d="M83.3829 166.292L70.7422 226.665L70.9012 226.687L83.5419 166.313L83.3829 166.292Z" fill="#FFE7E1"/>
<path d="M86.4044 166.7L73.7637 227.073L73.9227 227.095L86.5634 166.721L86.4044 166.7Z" fill="#FFE7E1"/>
<path d="M86.4224 157.583L88.0237 160.311L88.8456 167.575L85.006 171.605L82.7197 169.247L80.7014 171.469L78.4746 166.175L83.3974 159.498L86.4224 157.583Z" fill="#FFE7E1"/>
<path d="M76.3029 227.513L73.8861 227.189L68.1518 226.416L65.9297 226.117L67.0204 225.643C67.3079 225.518 67.6003 225.412 67.9058 225.327C67.9595 225.306 68.0165 225.295 68.0776 225.278C69.0469 225.018 70.0724 224.939 71.0694 225.042C71.1248 225.045 71.1802 225.049 71.2315 225.058C72.2082 225.174 73.1538 225.461 73.9977 225.908C74.0474 225.932 74.0995 225.965 74.1492 225.989C74.3985 226.133 74.6322 226.286 74.8652 226.452L76.3029 227.513Z" fill="#FFE7E1"/>
<path d="M87.3328 154.169L88.0309 160.311C87.5919 160.446 87.1194 160.518 86.6494 160.518C85.5066 160.521 84.3109 160.123 83.4043 159.498L87.3328 154.169Z" fill="#58304D"/>
<path d="M73.8867 227.19L68.1523 226.416C68.3886 226.244 69.2218 225.739 70.8868 225.931C70.9381 225.94 70.9935 225.944 71.044 225.953C71.0953 225.962 71.1507 225.966 71.202 225.975C72.467 226.184 73.2913 226.683 73.7613 227.074C73.7613 227.074 73.7613 227.074 73.7645 227.084C73.8118 227.122 73.8533 227.158 73.8867 227.19Z" fill="#58304D"/>
<path d="M70.7418 177.744C70.7418 177.744 85.6357 192.918 83.7908 193.641C81.9468 194.364 71.3429 185.685 71.3429 185.685C71.3429 185.685 84.1598 196.278 82.6163 197.494C81.0729 198.71 68.1045 189.251 68.1045 189.251C68.1045 189.251 81.7562 200.613 79.0912 202.1C76.4262 203.587 66.2914 194.472 66.2914 194.472C66.2914 194.472 74.9389 202.653 73.2684 203.876C71.5979 205.1 56.5762 192.695 56.5762 192.695L70.7418 177.744Z" fill="#FFACA9"/>
<path d="M91.4465 195.2C91.4465 195.2 73.8152 193.209 74.1011 194.931C74.3862 196.652 83.8937 201.714 83.8937 201.714L91.4465 195.2Z" fill="#FFACA9"/>
<path d="M186.492 31.3504L178.721 15.1494L192.708 27.2747L207.987 18.2559L197.957 31.3929L209.944 42.5947L196.241 37.2698L195.747 53.8998L188.721 37.2096L168.551 39.7086L186.492 31.3504Z" fill="#FFD27B"/>
<path d="M360.476 107.579L352.704 91.3779L366.692 103.504L381.971 94.4845L371.942 107.622L383.929 118.824L370.225 113.499L369.73 130.128L362.704 113.439L342.535 115.938L360.476 107.579Z" fill="#FFD27B"/>
<path d="M152.722 216.434L144.95 200.233L158.938 212.358L174.217 203.34L164.188 216.477L176.175 227.678L162.472 222.354L161.976 238.984L154.951 222.293L134.781 224.792L152.722 216.434Z" fill="#FFD27B"/>
<path d="M324.068 248.159L316.296 231.958L330.284 244.084L345.563 235.065L335.533 248.202L347.52 259.403L333.817 254.079L333.322 270.708L326.296 254.018L306.127 256.518L324.068 248.159Z" fill="#FFD27B"/>
<path d="M43.8277 168.729L44.8434 151.387L51.5613 167.01L70.0715 163.698L54.2996 172.478L59.65 186.608L49.7808 177.301L40.9835 192.362L42.9269 174.813L23.2129 170.576L43.8277 168.729Z" fill="#FFD27B"/>
<path d="M348.757 81.6611C348.268 80.338 347.3 79.0117 345.722 78.7142C343.783 78.3453 341.61 78.9875 340.408 80.2687C340.281 77.8751 338.275 75.6096 335.487 74.7385C332.709 73.8575 329.308 74.4173 327.193 76.1093C326.893 73.3409 324.932 70.6352 321.849 69.4044C318.755 68.1644 314.614 68.6353 312.386 70.7517C312.098 68.8655 310.512 67.1501 308.354 66.3908C306.197 65.6315 303.18 65.2704 301.266 66.3816L307.324 61.8912L323.738 49.6934L336.714 40.0461L340.811 54.172L346.182 72.7679L348.757 81.6611Z" fill="#FFACA9"/>
<path d="M340.811 54.1726C338.832 54.8855 336.642 55.1621 334.521 54.8829C331.121 54.4342 326.279 52.4238 323.738 49.6934L336.714 40.0461L340.811 54.1726Z" fill="#FF676C"/>
<path d="M348.757 81.6608C348.268 80.3377 347.3 79.0114 345.722 78.7138C343.783 78.345 341.61 78.9872 340.408 80.2684C340.281 77.8747 338.275 75.6093 335.487 74.7381C332.709 73.8572 329.308 74.417 327.193 76.1089C326.893 73.3405 324.932 70.6349 321.849 69.4041C318.755 68.1641 314.614 68.635 312.386 70.7513C312.098 68.8652 310.512 67.1497 308.354 66.3904C306.197 65.6311 303.18 65.2701 301.266 66.3813L307.324 61.8909C310.943 63.1675 315.079 65.8371 317.779 66.8646C326.66 70.2647 336.323 72.7081 346.182 72.7683L348.757 81.6608Z" fill="#FF676C"/>
</svg>
