<svg width="417" height="335" viewBox="0 0 417 335" fill="none" xmlns="http://www.w3.org/2000/svg">
<path d="M82.0925 334.87C70.6527 334.87 59.8042 331.048 51.0431 324.38C49.6488 325.727 47.9254 326.743 45.9951 327.3C44.8899 327.619 43.7595 327.775 42.6388 327.775C39.46 327.775 36.3536 326.521 34.0495 324.198L23.7443 313.814L9.46854 310.632C5.15112 309.668 1.70191 306.427 0.475347 302.176C-0.752034 297.928 0.437883 293.346 3.5776 290.23L13.9619 279.928L17.1431 265.649C18.1066 261.332 21.3465 257.883 25.5972 256.656C25.7609 256.609 25.9221 256.566 26.0858 256.526C18.1978 244.407 20.1949 229.827 20.4588 228.141C20.6673 226.818 21.0949 225.538 21.7236 224.352L33.3996 202.326C33.9942 196.127 34.9658 189.751 36.3048 183.255C34.6368 181.671 33.4053 179.6 32.8539 177.209C32.5444 175.873 32.2985 174.494 32.1038 172.991C29.2931 151.36 40.3844 130.271 59.3888 120.151C73.1254 94.3324 91.1908 71.6401 111.906 54.2027L130.899 18.3659C133.008 14.3865 137.136 11.9317 141.587 11.9317C141.912 11.9317 142.237 11.9448 142.566 11.9708C143.053 12.0107 143.533 12.0783 144.006 12.1744C150.597 5.29394 157.825 2.23486 163.653 0.928479C163.811 0.892643 163.969 0.861694 164.126 0.833188C165.349 0.574192 166.624 0.375464 168.008 0.223976C169.405 0.0741165 170.799 0 172.182 0C177.618 0 181.453 1.11417 182.498 1.45543C182.77 1.54421 183.038 1.64275 183.302 1.75026C191.908 5.25078 197.318 10.0683 200.708 14.9289C204.793 14.4818 208.904 14.1976 213.016 14.0754C213.601 13.4841 214.188 12.9091 214.773 12.3512C217.032 10.2018 220.024 9.01437 223.118 9.01437C223.447 9.01437 223.778 9.02821 224.109 9.05428L405.889 23.9881C410.449 24.3636 414.406 27.276 416.119 31.5169C417.833 35.7586 417.008 40.6037 413.986 44.0391C413.831 44.2183 397.569 63.0867 381.56 98.5863C382.082 99.3364 382.596 100.091 383.098 100.849C384.048 101.059 384.979 101.386 385.874 101.829C389.833 103.801 392.403 107.776 392.573 112.196L392.811 118.314C394.314 121.632 395.633 124.94 396.747 128.18C397.498 130.37 398.183 132.611 398.825 134.979L401.5 138.815C404.029 142.445 404.376 147.164 402.406 151.126C402.323 151.291 402.237 151.455 402.148 151.615C403.677 163.431 403.667 176.011 402.111 189.128C400.007 206.85 394.916 224.002 387.362 239.25C388.467 240.991 389.127 243.016 389.229 245.145L391.975 302.132C392.178 306.359 390.161 310.383 386.653 312.748C384.62 314.119 382.261 314.816 379.888 314.816C378.163 314.816 376.433 314.448 374.816 313.701L368.685 310.873V322.768C368.685 329.45 363.266 334.869 356.584 334.869H82.0925V334.87Z" fill="white"/>
<path d="M55.9034 160.593C45.2219 192.11 40.4329 227.637 53.8412 258.093C67.5249 289.174 98.7982 310.234 131.968 317.51C165.138 324.785 199.963 319.732 232.395 309.663C245.106 305.716 257.59 301.007 270.481 297.693C290.68 292.501 311.985 290.694 330.852 281.804C366.046 265.22 386.404 226.235 390.99 187.601C393.2 168.973 392.279 149.75 386.195 132.006C378.578 109.791 363.156 90.8257 344.848 76.1167C326.54 61.4076 305.379 50.6634 283.831 41.3216C270.802 35.6725 257.446 30.4608 243.442 28.1087C153.729 13.0381 82.8667 81.0327 55.9034 160.593Z" fill="#FE8CD1"/>
<path d="M146.773 249.141C146.773 249.141 171.491 70.9651 224.017 21.0146L405.796 35.9485C405.796 35.9485 368.204 78.6902 349.151 159.538C332.644 229.581 335.247 253.776 335.247 253.776L146.773 249.141Z" fill="#FFE9DC"/>
<path d="M328.01 71.8791C331.377 64.4472 335.984 57.7003 340.591 50.9973C339.676 50.7497 338.761 50.5021 337.846 50.2537C338.251 57.8338 338.655 65.4139 339.06 72.9941C339.161 74.8795 342.107 74.8917 342.005 72.9941C341.6 65.4139 341.196 57.8338 340.792 50.2537C340.712 48.7551 338.878 48.3015 338.047 49.5101C333.44 56.2123 328.833 62.9592 325.466 70.3919C324.69 72.1055 327.228 73.6049 328.01 71.8791Z" fill="#BD6EEB"/>
<path d="M332.651 65.1394C332.88 65.0677 333.235 64.9113 333.481 64.9423C333.289 64.9667 333.278 64.9692 333.449 64.9504C333.51 64.9447 333.569 64.9407 333.629 64.9374C333.77 64.9293 333.91 64.9252 334.051 64.926C334.329 64.9276 334.626 64.9309 334.9 64.9822C334.85 64.9757 334.8 64.9692 334.751 64.9626C334.832 64.9749 334.913 64.9887 334.993 65.0026C335.136 65.0278 335.277 65.0571 335.418 65.0889C336.542 65.3406 337.618 65.7633 338.682 66.1957C339.398 66.4865 340.331 65.8805 340.493 65.1671C340.688 64.3127 340.231 63.6669 339.465 63.3557C337.074 62.3841 334.442 61.4947 331.866 62.2994C331.131 62.5291 330.586 63.3362 330.837 64.1107C331.078 64.8486 331.864 65.3845 332.651 65.1394Z" fill="#BD6EEB"/>
<path d="M348.634 55.6616C348.748 58.9381 348.862 62.2139 348.977 65.4904C349.003 66.2593 349.635 66.9996 350.449 66.9629C351.224 66.9279 351.951 66.3146 351.922 65.4904C351.808 62.2139 351.694 58.9381 351.579 55.6616C351.552 54.8927 350.921 54.1524 350.106 54.1891C349.332 54.2233 348.605 54.8365 348.634 55.6616Z" fill="#BD6EEB"/>
<path d="M345.745 61.822C348.588 61.607 351.431 61.392 354.273 61.1761C355.04 61.1183 355.783 60.54 355.746 59.7036C355.713 58.9551 355.096 58.1683 354.273 58.2311C351.431 58.4461 348.588 58.6611 345.745 58.8769C344.979 58.9347 344.235 59.513 344.273 60.3495C344.306 61.0971 344.923 61.8839 345.745 61.822Z" fill="#BD6EEB"/>
<path d="M332.745 43.598C324.888 47.0936 319.14 54.5589 316.957 62.8044C314.917 70.51 317.339 79.0145 324.735 82.8375C333.08 87.1517 343.827 84.7474 351.198 79.5089C358.671 74.1986 363.261 65.1957 361.314 55.9663C359.335 46.5878 349.741 40.1382 340.327 42.3274C338.482 42.7567 339.263 45.5975 341.11 45.1674C348.214 43.5149 355.688 48.0131 357.964 54.8676C360.534 62.6057 357.137 70.8634 351.078 75.9139C345.019 80.9651 335.811 83.7497 328.154 81.1158C321.305 78.7596 318.146 71.9483 319.467 65.0344C321.024 56.8882 326.65 49.5142 334.233 46.1407C335.961 45.3719 334.464 42.8332 332.745 43.598Z" fill="#FFB289"/>
<path d="M351.725 96.5071C351.663 96.5071 351.599 96.4973 351.536 96.4786C287.854 77.1703 203.621 83.0564 202.779 83.1158C202.423 83.1427 202.109 82.8731 202.082 82.514C202.056 82.1556 202.325 81.8437 202.685 81.8176C203.531 81.7549 287.998 75.8534 351.915 95.2324C352.26 95.3367 352.454 95.7008 352.349 96.0445C352.263 96.3263 352.005 96.5071 351.725 96.5071Z" fill="#BD6EEB"/>
<path d="M347.606 114.016C347.544 114.016 347.48 114.007 347.417 113.988C283.735 94.6796 199.503 100.567 198.66 100.625C198.306 100.641 197.99 100.382 197.963 100.023C197.937 99.6649 198.206 99.3529 198.565 99.3269C199.41 99.2642 283.878 93.3626 347.795 112.742C348.14 112.846 348.334 113.21 348.229 113.554C348.144 113.835 347.886 114.016 347.606 114.016Z" fill="#BD6EEB"/>
<path d="M340.054 133.241C339.992 133.241 339.928 133.231 339.865 133.212C276.178 113.901 191.95 119.789 191.107 119.849C190.75 119.87 190.437 119.607 190.41 119.247C190.384 118.889 190.653 118.577 191.013 118.551C191.857 118.489 276.324 112.587 340.243 131.966C340.587 132.07 340.782 132.434 340.677 132.778C340.592 133.059 340.334 133.241 340.054 133.241Z" fill="#BD6EEB"/>
<path d="M335.935 153.152C335.873 153.152 335.809 153.143 335.746 153.124C272.058 133.815 187.831 139.702 186.988 139.761C186.632 139.78 186.318 139.519 186.291 139.159C186.265 138.801 186.534 138.489 186.894 138.463C187.738 138.401 272.206 132.499 336.124 151.878C336.468 151.982 336.662 152.346 336.558 152.69C336.473 152.972 336.214 153.152 335.935 153.152Z" fill="#BD6EEB"/>
<path d="M331.128 173.751C331.066 173.751 331.001 173.741 330.939 173.722C267.257 154.414 183.024 160.3 182.181 160.359C181.83 160.373 181.511 160.116 181.484 159.758C181.458 159.399 181.728 159.087 182.087 159.061C182.932 158.999 267.399 153.097 331.317 172.476C331.66 172.58 331.855 172.944 331.751 173.288C331.665 173.57 331.407 173.751 331.128 173.751Z" fill="#BD6EEB"/>
<path d="M325.977 198.125C325.915 198.125 325.851 198.115 325.788 198.096C262.105 178.788 177.874 184.673 177.031 184.734C176.675 184.77 176.361 184.49 176.334 184.132C176.308 183.773 176.577 183.461 176.936 183.435C177.782 183.374 262.249 177.471 326.167 196.85C326.512 196.954 326.705 197.319 326.601 197.662C326.516 197.944 326.257 198.125 325.977 198.125Z" fill="#BD6EEB"/>
<path d="M336.871 183.291V187.816L320.502 215.685L336.871 240.622V244.087H124.129C107.335 244.087 93.7402 230.475 93.7402 213.68C93.7402 205.283 97.1341 197.699 102.632 192.201C108.131 186.685 115.732 183.291 124.129 183.291H336.871V183.291Z" fill="#5B6DF7"/>
<path d="M336.87 187.816V240.621H265.167C263.345 240.621 261.56 240.445 259.845 240.091C259.244 239.967 258.661 239.827 258.078 239.65C255.001 238.801 252.155 237.404 249.645 235.566C249.45 235.424 249.255 235.284 249.062 235.124C247.506 233.94 246.092 232.579 244.854 231.058C244.712 230.917 244.607 230.776 244.483 230.617C243.475 229.362 242.592 228.001 241.831 226.551C241.743 226.41 241.672 226.268 241.601 226.109C240.929 224.819 240.381 223.439 239.94 222.025C239.905 221.883 239.852 221.742 239.816 221.583C239.427 220.275 239.144 218.913 238.985 217.517C238.967 217.375 238.949 217.217 238.932 217.076C238.826 216.138 238.773 215.184 238.773 214.212C238.773 213.806 238.791 213.398 238.809 213.01C238.809 212.851 238.809 212.709 238.827 212.568C238.916 211.171 239.11 209.81 239.393 208.484C239.428 208.325 239.464 208.183 239.499 208.043C239.835 206.646 240.277 205.285 240.825 203.976C240.896 203.835 240.949 203.675 241.02 203.535C241.656 202.103 242.399 200.741 243.265 199.468C243.371 199.309 243.478 199.167 243.584 199.026C244.45 197.789 245.422 196.621 246.5 195.543C246.695 195.348 246.907 195.137 247.119 194.96C247.278 194.801 247.438 194.659 247.596 194.518C249.418 192.891 251.468 191.512 253.696 190.434C254.014 190.275 254.332 190.134 254.668 189.992C257.886 188.595 261.439 187.817 265.169 187.817H336.87V187.816Z" fill="#FFE9DC"/>
<path d="M336.87 189.991V190.433H253.693C254.012 190.274 254.329 190.133 254.666 189.991H336.87Z" fill="#FFB289"/>
<path d="M336.87 194.516V194.958H247.117C247.276 194.8 247.436 194.658 247.594 194.516H336.87Z" fill="#FFB289"/>
<path d="M336.87 194.516V194.958H247.117C247.276 194.8 247.436 194.658 247.594 194.516H336.87Z" fill="#FFB289"/>
<path d="M336.871 199.024V199.466H243.264C243.37 199.308 243.476 199.166 243.582 199.024H336.871Z" fill="#FFB289"/>
<path d="M336.871 199.024V199.466H243.264C243.37 199.308 243.476 199.166 243.582 199.024H336.871Z" fill="#FFB289"/>
<path d="M336.871 203.532V203.974H240.824C240.895 203.833 240.948 203.673 241.019 203.532H336.871Z" fill="#FFB289"/>
<path d="M336.871 203.532V203.974H240.824C240.895 203.833 240.948 203.673 241.019 203.532H336.871Z" fill="#FFB289"/>
<path d="M336.871 208.041V208.482H239.393C239.428 208.324 239.463 208.182 239.498 208.041H336.871Z" fill="#FFB289"/>
<path d="M336.871 208.041V208.482H239.393C239.428 208.324 239.463 208.182 239.498 208.041H336.871Z" fill="#FFB289"/>
<path d="M336.87 212.566V213.008H238.809C238.809 212.85 238.809 212.708 238.827 212.566H336.87Z" fill="#FFB289"/>
<path d="M336.87 217.074V217.515H238.985C238.967 217.374 238.949 217.215 238.932 217.074H336.87Z" fill="#FFB289"/>
<path d="M336.87 217.074V217.515H238.985C238.967 217.374 238.949 217.215 238.932 217.074H336.87Z" fill="#FFB289"/>
<path d="M336.871 221.582V222.024H239.94C239.905 221.883 239.852 221.742 239.816 221.582H336.871Z" fill="#FFB289"/>
<path d="M336.871 226.108V226.55H241.831C241.743 226.409 241.672 226.268 241.602 226.108H336.871Z" fill="#FFB289"/>
<path d="M336.87 230.616V231.057H244.854C244.712 230.916 244.606 230.775 244.482 230.616H336.87Z" fill="#FFB289"/>
<path d="M336.871 235.124V235.566H249.646C249.451 235.424 249.256 235.283 249.062 235.124H336.871Z" fill="#FFB289"/>
<path d="M336.871 239.649V240.09H259.845C259.244 239.967 258.661 239.826 258.078 239.649H336.871Z" fill="#FFB289"/>
<path d="M130.141 191.511C123.281 200.527 120.612 213.485 122.999 226.161C124.254 232.843 126.853 238.995 130.424 244.086H125.792C122.663 239.013 120.383 233.161 119.198 226.868C116.564 212.937 119.446 199.201 127.065 189.159C128.692 187.021 130.531 185.058 132.546 183.291H138.946C135.585 185.5 132.598 188.294 130.141 191.511Z" fill="#FFB289"/>
<path d="M220.123 191.511C213.245 200.527 210.576 213.485 212.963 226.161C214.218 232.843 216.817 238.995 220.387 244.086H215.755C212.626 239.013 210.346 233.161 209.162 226.868C206.546 212.937 209.409 199.201 217.028 189.159C218.655 187.021 220.511 185.058 222.526 183.291H228.926C225.549 185.5 222.562 188.294 220.123 191.511Z" fill="#FFB289"/>
<path d="M357.479 244.225V250.064L345.494 283.445L357.479 318.195V322.665H82.9907C61.3213 322.665 43.7812 305.103 43.7812 283.433C43.7812 272.599 48.1606 262.813 55.2545 255.72C62.3483 248.603 72.156 244.224 82.9907 244.224H357.479V244.225Z" fill="#AD27FC"/>
<path d="M357.479 250.064V318.196H264.964C262.615 318.196 260.311 317.968 258.098 317.512C257.323 317.352 256.57 317.17 255.817 316.942C251.848 315.847 248.176 314.045 244.937 311.673C244.686 311.49 244.435 311.308 244.184 311.103C242.177 309.575 240.352 307.818 238.756 305.857C238.573 305.674 238.437 305.492 238.277 305.287C236.977 303.668 235.836 301.911 234.855 300.041C234.741 299.858 234.65 299.676 234.559 299.471C233.692 297.806 232.985 296.026 232.415 294.202C232.37 294.02 232.301 293.837 232.256 293.632C231.754 291.944 231.389 290.188 231.184 288.386C231.161 288.204 231.138 287.998 231.115 287.816C230.979 286.607 230.91 285.375 230.91 284.121C230.91 283.596 230.933 283.072 230.956 282.57C230.956 282.365 230.956 282.182 230.979 282C231.093 280.198 231.343 278.442 231.708 276.731C231.754 276.526 231.8 276.344 231.845 276.161C232.278 274.359 232.849 272.603 233.556 270.915C233.647 270.733 233.715 270.528 233.806 270.345C234.627 268.498 235.585 266.741 236.703 265.099C236.84 264.894 236.977 264.712 237.114 264.529C238.231 262.932 239.486 261.427 240.877 260.036C241.128 259.785 241.402 259.511 241.676 259.283C241.881 259.078 242.086 258.896 242.291 258.713C244.641 256.614 247.286 254.836 250.161 253.444C250.571 253.239 250.982 253.057 251.416 252.874C255.567 251.073 260.151 250.069 264.964 250.069H357.479V250.064Z" fill="#FFE9DC"/>
<path d="M357.479 252.869V253.439H250.16C250.571 253.234 250.981 253.052 251.415 252.869H357.479Z" fill="#FFB289"/>
<path d="M357.48 258.709V259.279H241.676C241.881 259.074 242.086 258.891 242.291 258.709H357.48Z" fill="#FFB289"/>
<path d="M357.48 258.709V259.279H241.676C241.881 259.074 242.086 258.891 242.291 258.709H357.48Z" fill="#FFB289"/>
<path d="M357.479 264.525V265.095H236.703C236.84 264.89 236.977 264.707 237.114 264.525H357.479Z" fill="#FFB289"/>
<path d="M357.479 264.525V265.095H236.703C236.84 264.89 236.977 264.707 237.114 264.525H357.479Z" fill="#FFB289"/>
<path d="M357.479 270.342V270.912H233.555C233.646 270.729 233.714 270.524 233.806 270.342H357.479Z" fill="#FFB289"/>
<path d="M357.479 270.342V270.912H233.555C233.646 270.729 233.714 270.524 233.806 270.342H357.479Z" fill="#FFB289"/>
<path d="M357.479 276.158V276.728H231.707C231.753 276.523 231.798 276.34 231.844 276.158H357.479Z" fill="#FFB289"/>
<path d="M357.479 276.158V276.728H231.707C231.753 276.523 231.798 276.34 231.844 276.158H357.479Z" fill="#FFB289"/>
<path d="M357.479 281.998V282.568H230.955C230.955 282.362 230.955 282.18 230.978 281.998H357.479Z" fill="#FFB289"/>
<path d="M357.478 287.813V288.384H231.182C231.159 288.201 231.136 287.996 231.113 287.813H357.478Z" fill="#FFB289"/>
<path d="M357.478 287.813V288.384H231.182C231.159 288.201 231.136 287.996 231.113 287.813H357.478Z" fill="#FFB289"/>
<path d="M357.48 293.63V294.2H232.415C232.37 294.018 232.301 293.835 232.256 293.63H357.48Z" fill="#FFB289"/>
<path d="M357.479 299.469V300.039H234.855C234.741 299.857 234.65 299.674 234.559 299.469H357.479Z" fill="#FFB289"/>
<path d="M357.479 305.286V305.856H238.756C238.574 305.674 238.437 305.491 238.277 305.286H357.479Z" fill="#FFB289"/>
<path d="M357.478 311.102V311.672H244.936C244.685 311.49 244.434 311.307 244.184 311.102H357.478Z" fill="#FFB289"/>
<path d="M357.479 316.941V317.511H258.098C257.322 317.351 256.57 317.169 255.816 316.941H357.479Z" fill="#FFB289"/>
<path d="M90.7453 254.831C81.8954 266.464 78.4511 283.183 81.5305 299.538C83.1497 308.159 86.5028 316.097 91.1101 322.666H85.1337C81.0964 316.12 78.1538 308.57 76.6259 300.45C73.2272 282.476 76.9452 264.753 86.7764 251.798C88.8745 249.037 91.247 246.506 93.8475 244.225H102.104C97.7707 247.076 93.9159 250.68 90.7453 254.831Z" fill="#FFB289"/>
<path d="M206.844 254.831C197.972 266.464 194.527 283.183 197.607 299.538C199.226 308.159 202.579 316.097 207.187 322.666H201.21C197.173 316.12 194.23 308.57 192.702 300.45C189.326 282.476 193.022 264.753 202.853 251.798C204.952 249.037 207.346 246.506 209.947 244.225H218.204C213.847 247.076 209.992 250.68 206.844 254.831Z" fill="#FFB289"/>
<path d="M305.128 131.388V135.279L294.759 158.169L305.128 180.668V183.647H122.261C107.824 183.647 96.1387 171.946 96.1387 157.51C96.1387 150.291 99.0569 143.773 103.782 139.047C108.509 134.306 115.043 131.389 122.261 131.389H305.128V131.388Z" fill="#F76A7E"/>
<path d="M305.128 135.278V180.668H243.494C241.928 180.668 240.394 180.517 238.92 180.212C238.403 180.106 237.902 179.984 237.4 179.833C234.756 179.103 232.31 177.902 230.151 176.322C229.984 176.201 229.817 176.079 229.65 175.942C228.312 174.924 227.096 173.753 226.033 172.447C225.911 172.326 225.82 172.204 225.713 172.067C224.847 170.988 224.088 169.818 223.434 168.573C223.358 168.451 223.297 168.329 223.236 168.193C222.658 167.084 222.188 165.899 221.807 164.683C221.777 164.561 221.732 164.439 221.701 164.303C221.367 163.178 221.124 162.008 220.987 160.808C220.972 160.686 220.957 160.55 220.942 160.428C220.85 159.623 220.805 158.803 220.805 157.966C220.805 157.617 220.82 157.267 220.835 156.933C220.835 156.796 220.835 156.674 220.85 156.553C220.926 155.352 221.093 154.182 221.337 153.043C221.367 152.906 221.398 152.785 221.428 152.662C221.716 151.462 222.096 150.291 222.567 149.168C222.628 149.046 222.674 148.909 222.734 148.787C223.281 147.557 223.919 146.386 224.664 145.292C224.756 145.156 224.847 145.034 224.938 144.912C225.682 143.848 226.518 142.846 227.445 141.919C227.612 141.752 227.794 141.569 227.977 141.417C228.114 141.28 228.25 141.159 228.387 141.038C229.953 139.639 231.715 138.454 233.63 137.527C233.904 137.391 234.177 137.269 234.465 137.147C237.231 135.946 240.286 135.278 243.492 135.278H305.128V135.278Z" fill="#FFE9DC"/>
<path d="M305.128 137.147V137.527H233.631C233.905 137.391 234.178 137.269 234.466 137.147H305.128Z" fill="#FFB289"/>
<path d="M305.128 141.037V141.416H227.979C228.115 141.279 228.252 141.158 228.389 141.037H305.128Z" fill="#FFB289"/>
<path d="M305.128 141.037V141.416H227.979C228.115 141.279 228.252 141.158 228.389 141.037H305.128Z" fill="#FFB289"/>
<path d="M305.128 144.912V145.292H224.666C224.757 145.155 224.848 145.034 224.94 144.912H305.128Z" fill="#FFB289"/>
<path d="M305.128 144.912V145.292H224.666C224.757 145.155 224.848 145.034 224.94 144.912H305.128Z" fill="#FFB289"/>
<path d="M305.128 148.787V149.167H222.568C222.629 149.046 222.675 148.909 222.735 148.787H305.128Z" fill="#FFB289"/>
<path d="M305.128 148.787V149.167H222.568C222.629 149.046 222.675 148.909 222.735 148.787H305.128Z" fill="#FFB289"/>
<path d="M305.128 152.662V153.042H221.338C221.368 152.905 221.399 152.784 221.429 152.662H305.128Z" fill="#FFB289"/>
<path d="M305.128 152.662V153.042H221.338C221.368 152.905 221.399 152.784 221.429 152.662H305.128Z" fill="#FFB289"/>
<path d="M305.128 156.552V156.932H220.836C220.836 156.795 220.836 156.673 220.851 156.552H305.128Z" fill="#FFB289"/>
<path d="M305.128 160.427V160.807H220.989C220.973 160.685 220.959 160.549 220.943 160.427H305.128Z" fill="#FFB289"/>
<path d="M305.128 160.427V160.807H220.989C220.973 160.685 220.959 160.549 220.943 160.427H305.128Z" fill="#FFB289"/>
<path d="M305.128 164.302V164.682H221.809C221.779 164.561 221.733 164.439 221.703 164.302H305.128Z" fill="#FFB289"/>
<path d="M305.128 168.192V168.572H223.434C223.358 168.451 223.297 168.328 223.236 168.192H305.128Z" fill="#FFB289"/>
<path d="M305.127 172.067V172.446H226.032C225.911 172.325 225.82 172.203 225.713 172.067H305.127Z" fill="#FFB289"/>
<path d="M305.128 175.942V176.322H230.152C229.985 176.201 229.817 176.079 229.65 175.942H305.128Z" fill="#FFB289"/>
<path d="M305.129 179.833V180.212H238.92C238.404 180.106 237.902 179.984 237.4 179.833H305.129Z" fill="#FFB289"/>
<path d="M127.426 138.454C121.53 146.204 119.236 157.343 121.286 168.238C122.365 173.982 124.599 179.27 127.668 183.647H123.687C120.998 179.285 119.038 174.255 118.02 168.845C115.755 156.871 118.232 145.064 124.782 136.433C126.18 134.594 127.76 132.908 129.493 131.388H134.994C132.106 133.287 129.538 135.688 127.426 138.454Z" fill="#FFB289"/>
<path d="M204.774 138.454C198.862 146.204 196.568 157.343 198.62 168.238C199.699 173.982 201.932 179.27 205.002 183.647H201.021C198.331 179.285 196.371 174.255 195.353 168.845C193.104 156.871 195.565 145.064 202.115 136.433C203.514 134.594 205.109 132.908 206.842 131.388H212.342C209.439 133.287 206.87 135.688 204.774 138.454Z" fill="#FFB289"/>
<path d="M194.141 40.8328C193.878 41.8819 193.576 42.8698 193.253 43.7975C192.426 46.2783 191.437 48.3755 190.671 49.8684V49.8888C189.905 51.3808 189.339 52.2482 189.339 52.2482L68.3255 258.236C27.6444 265.962 33.3121 229.919 33.3121 229.919L142.487 23.9313L143.354 26.4928L144.162 28.9329C144.162 28.9532 144.162 28.9931 144.182 29.0339L144.746 30.7483L145.573 33.2087C151.543 19.4535 160.115 14.4519 167.154 12.8987C174.112 11.3456 179.558 13.1211 179.558 13.1211C195.713 19.6962 196.399 31.8177 194.141 40.8328Z" fill="#FFE9DC"/>
<g opacity="0.47">
<path opacity="0.47" d="M194.141 40.833C193.879 41.882 193.577 42.8699 193.254 43.7976C192.427 46.1571 191.499 48.1745 190.752 49.6063V49.6266C187.001 52.43 182.463 54.2454 177.784 54.7699C173.871 55.1934 169.878 54.73 166.106 53.5401C165.945 53.4994 165.763 53.4391 165.602 53.3788C165.441 53.3185 165.279 53.2778 165.117 53.1972C160.922 51.7247 157.03 49.3245 153.823 46.2385C149.567 42.1443 146.38 36.5978 144.746 30.7484C144.565 30.083 144.403 29.4372 144.262 28.7717L145.654 32.9466C151.603 19.2117 160.175 14.2093 167.194 12.6366C167.235 12.6366 167.275 12.6163 167.316 12.6163C168.324 12.3947 169.292 12.253 170.22 12.152C175.686 11.5672 179.639 12.8581 179.639 12.8581C195.956 19.4943 196.501 31.7974 194.141 40.833Z" fill="#FFB289"/>
</g>
<path d="M176.534 38.2918L166.106 53.54L166.026 53.6605C165.925 53.8014 165.763 53.8821 165.602 53.8821C165.501 53.8821 165.4 53.8617 165.319 53.8014C165.138 53.6605 165.057 53.4186 165.117 53.1963C165.138 53.1759 165.158 53.136 165.178 53.0953L175.041 38.7145C174.436 38.7748 173.83 38.6135 173.266 38.5125L173.024 38.4726C168.385 37.7266 164.311 34.5999 162.334 30.324C160.398 26.0685 160.701 20.9252 163.142 16.9116C164.049 15.3992 165.259 14.0879 166.631 13.0389C166.651 13.0389 166.651 13.0389 166.651 13.0389C166.833 12.8972 167.014 12.7563 167.196 12.6357C167.237 12.6357 167.277 12.6154 167.317 12.6154C168.326 12.3938 169.294 12.2521 170.222 12.1511C169.959 12.2521 169.697 12.3727 169.435 12.494C167.216 13.6237 165.3 15.3381 164.009 17.4353C161.73 21.1663 161.447 25.9463 163.263 29.8997C165.078 33.8734 168.891 36.7777 173.186 37.4831L173.428 37.5238C174.316 37.685 175.223 37.8259 175.929 37.5441C176.151 37.4635 176.373 37.5238 176.514 37.685C176.654 37.8683 176.674 38.1102 176.534 38.2918Z" fill="#FFB289"/>
<path d="M382.081 130.722L392.467 145.633L374.308 146.334L359.397 156.721L358.696 138.562L348.309 123.65L366.468 122.95L381.379 112.562L382.081 130.722Z" fill="#BD6EEB"/>
<path d="M42.6542 281.079L60.3914 285.033L47.4921 297.834L43.5379 315.571L30.7372 302.672L13 298.718L25.8985 285.917L29.8535 268.18L42.6542 281.079Z" fill="#FFB289"/>
<path d="M327.229 277.896L378.037 245.625L380.784 302.614L327.229 277.896Z" fill="#7182FF"/>
<path d="M79.6688 126.324C101.67 123.466 121.806 138.971 124.664 160.973C124.799 162.013 124.891 163.038 124.924 164.071L45.5392 174.383C45.307 173.376 45.1344 172.361 44.9992 171.321C42.1413 149.32 57.668 129.182 79.6688 126.324Z" fill="#BD6EEB"/>
</svg>
