<svg width="417" height="335" viewBox="0 0 417 335" fill="none" xmlns="http://www.w3.org/2000/svg">
<path d="M391.263 215.737C388.531 231.827 382.132 247.216 372.211 261.537C358.261 281.715 337.722 298.962 312.813 311.414C312.368 311.648 311.919 311.874 311.459 312.084C283.413 325.853 250.943 333.13 217.548 333.13C186.207 333.13 155.663 326.719 128.865 314.551C117.637 326.848 104.973 333.627 91.1306 334.731C89.9748 334.824 88.8198 334.87 87.6987 334.87C79.44 334.87 72.1411 332.343 66.5934 327.563C49.6561 312.969 53.2737 280.07 54.0225 274.516C53.9962 273.142 53.8317 268.013 52.77 263.335C51.9975 259.934 48.457 255.127 46.5541 252.545C45.8299 251.563 45.3135 250.861 44.9183 250.23C44.591 249.895 43.9973 249.323 43.5394 248.882C38.42 243.941 31.4086 237.175 34.3427 230.387C34.3614 230.345 34.3792 230.302 34.3987 230.26L27.3 220.647C24.7857 217.225 24.5855 213.075 26.7539 209.532C28.9189 205.991 33.1954 203.472 38.1936 202.796L38.5616 202.746H15.7654C7.07156 202.746 0 197.291 0 190.586V179.903C0 173.198 7.07241 167.743 15.7654 167.743H46.7356C48.0924 163.17 49.763 158.643 51.7329 154.201C39.4766 147.343 31.9098 136.215 31.9098 124.328C31.9098 104.002 53.3501 87.4658 79.7054 87.4658C89.2464 87.4658 98.3981 89.6248 106.186 93.638C107.802 92.6118 109.443 91.6072 111.1 90.6281C110.944 90.1768 109.868 87.0767 109.868 87.0767C109.517 86.0721 109.163 85.0531 108.813 84.0242C99.5946 82.8378 91.6785 79.6762 86.1723 74.9187C77.1376 67.1074 75.3627 55.1476 81.8551 45.8334C86.9033 38.5912 95.91 33.2777 105.529 31.5321C108.136 22.3794 115.6 15.1692 126.789 11.2587C133.219 9.01206 139.73 7.91915 146.693 7.91915C154.102 7.91915 160.821 9.14614 167.306 10.3967C173.323 7.60063 180.24 6.08979 187.218 6.08979C188.701 6.08979 190.193 6.15978 191.65 6.29843C202.707 7.34817 212.747 12.2954 218.828 19.3898C218.839 19.3898 218.85 19.3898 218.862 19.3898C222.076 19.3898 225.329 19.8168 228.464 20.6226C236.342 8.26906 252.846 0 271.374 0C297.73 0 319.17 16.5362 319.17 36.8625C319.17 54.0723 303.801 68.5653 283.091 72.606C288.031 74.143 292.883 75.8572 297.637 77.7454H395.438C407.328 77.7454 417 85.2055 417 94.3758V181.935C417 185.932 412.798 189.173 407.616 189.173H392.392C392.647 192.138 392.775 195.081 392.775 197.983C392.775 200.419 392.687 202.891 392.509 205.375C392.509 205.376 391.494 214.429 391.263 215.737Z" fill="white"/>
<path d="M382.583 197.984C382.583 219.72 375.545 240.202 363.127 258.127C349.849 277.33 330.393 293.615 306.808 305.387C306.464 305.568 306.12 305.749 305.76 305.906C280.048 318.56 249.504 325.894 216.738 325.894C184.332 325.894 154.102 318.728 128.561 306.316C128.405 306.256 128.233 306.172 128.076 306.086C127.857 305.99 127.654 305.894 127.45 305.785C126.684 305.411 125.918 305.025 125.167 304.639C121.538 302.782 118.004 300.816 114.578 298.741C114.125 298.475 113.656 298.186 113.202 297.897C103.177 291.733 94.1219 284.676 86.2083 276.896C80.6402 271.42 75.6361 265.593 71.2722 259.454C71.0687 259.188 70.8813 258.911 70.6939 258.634C66.3614 252.458 62.6861 245.968 59.6994 239.225C58.3231 236.101 57.1028 232.929 56.0394 229.696C55.1168 226.945 54.3349 224.171 53.6624 221.349C52.6304 217.054 51.8799 212.676 51.4262 208.236C51.0667 204.859 50.8945 201.433 50.8945 197.984C50.8945 154.825 78.5923 116.659 121.039 93.5114C124.073 91.8469 127.169 90.2667 130.344 88.7709C130.485 88.6865 130.641 88.6139 130.798 88.5538C134.582 86.7807 138.461 85.1279 142.433 83.5961C142.761 83.4634 143.09 83.3306 143.434 83.2102C147.281 81.7386 151.238 80.3756 155.258 79.1454H155.273C158.494 78.144 161.763 77.2277 165.094 76.3951C175.166 73.8378 185.677 72.0163 196.499 71.0156C197.406 70.9188 198.313 70.8469 199.22 70.7743C202.958 70.461 206.743 70.2556 210.559 70.1588C212.608 70.0862 214.673 70.062 216.737 70.062C217.691 70.062 218.629 70.0738 219.583 70.0862H220.209C225.996 70.183 231.72 70.4963 237.35 71.0391C240.509 71.3407 243.652 71.7148 246.749 72.1608C324.012 83.0408 382.583 135.235 382.583 197.984Z" fill="#B8B9FD"/>
<path d="M394.589 97.6918L406.813 102.851V181.936H257.566V102.747L265.938 96.7539L271.141 91.1252L387.967 92.7931L394.589 97.6918Z" fill="#FEF1E4"/>
<path d="M406.813 94.3765V102.79H257.566V94.3765C257.566 89.1834 263.012 84.9832 269.746 84.9832H394.634C401.367 84.9832 406.813 89.1834 406.813 94.3765Z" fill="#FFD484"/>
<path d="M367.161 97.3109C369.205 97.3109 370.862 96.0327 370.862 94.456C370.862 92.8793 369.205 91.6011 367.161 91.6011C365.116 91.6011 363.459 92.8793 363.459 94.456C363.459 96.0327 365.116 97.3109 367.161 97.3109Z" fill="#FF470C"/>
<path d="M379.006 97.3109C381.051 97.3109 382.708 96.0327 382.708 94.456C382.708 92.8793 381.051 91.6011 379.006 91.6011C376.962 91.6011 375.305 92.8793 375.305 94.456C375.305 96.0327 376.962 97.3109 379.006 97.3109Z" fill="#FFB4DC"/>
<path d="M391.278 97.3109C393.322 97.3109 394.979 96.0327 394.979 94.456C394.979 92.8793 393.322 91.6011 391.278 91.6011C389.233 91.6011 387.576 92.8793 387.576 94.456C387.576 96.0327 389.233 97.3109 391.278 97.3109Z" fill="#B8B9FD"/>
<path d="M398.746 172.69H271.042C270.553 172.69 270.156 172.384 270.156 172.005V118.916C270.156 118.538 270.553 118.231 271.042 118.231C271.532 118.231 271.929 118.538 271.929 118.916V171.32H398.746C399.235 171.32 399.632 171.626 399.632 172.005C399.632 172.384 399.236 172.69 398.746 172.69Z" fill="#040308"/>
<path d="M310.593 131.374H293.082V167.698H310.593V131.374Z" fill="#FFD484"/>
<path d="M345.614 124.388H328.104V167.698H345.614V124.388Z" fill="#FFB4DC"/>
<path d="M381.843 117.868H364.332V167.697H381.843V117.868Z" fill="#B8B9FD"/>
<path d="M294.888 124.374C294.482 124.374 294.116 124.157 294.024 123.84C293.916 123.47 294.218 123.104 294.695 123.022L364.736 110.915C365.213 110.832 365.687 111.064 365.795 111.432C365.903 111.802 365.601 112.168 365.124 112.25L295.083 124.357C295.017 124.369 294.951 124.374 294.888 124.374Z" fill="#040308"/>
<path d="M356.777 117.156C356.487 117.156 356.202 117.046 356.032 116.844C355.765 116.527 355.882 116.103 356.294 115.898L365.41 111.336L352.746 110.164C352.26 110.119 351.912 109.779 351.971 109.403C352.029 109.029 352.46 108.744 352.957 108.806L368.052 110.203C368.424 110.237 368.726 110.447 368.81 110.728C368.895 111.008 368.743 111.299 368.429 111.456L357.258 117.046C357.11 117.121 356.942 117.156 356.777 117.156Z" fill="#040308"/>
<path d="M270.572 66.4889C291.786 66.4889 308.983 53.2251 308.983 36.8633C308.983 20.5016 291.786 7.23779 270.572 7.23779C249.358 7.23779 232.16 20.5016 232.16 36.8633C232.16 53.2251 249.358 66.4889 270.572 66.4889Z" fill="#B8B9FD"/>
<path d="M264.312 28.8313C264.312 28.8313 262.082 17.2561 265.501 17.0265C268.918 16.7976 276.497 28.4873 276.497 28.4873L283.927 29.1747L282.59 52.5548C282.59 52.5548 248.116 53.4718 247.075 50.7208C246.034 47.9699 246.778 45.5637 246.778 45.5637C246.778 45.5637 244.252 42.2399 244.846 40.2915C245.441 38.3431 246.63 36.6243 246.63 36.6243C246.63 36.6243 244.995 33.0715 245.441 30.8935C245.887 28.7162 250.79 28.4867 253.465 28.6018C256.139 28.7169 264.312 28.8313 264.312 28.8313Z" fill="#FEF1E4"/>
<path d="M297.154 52.8389C297.154 52.8389 297.153 52.8389 297.152 52.8389L276.441 52.6093C276.32 52.608 276.224 52.5315 276.225 52.4386C276.226 52.3451 276.325 52.2836 276.446 52.2719L296.941 52.4995L297.527 29.9062L276.634 28.8853C276.514 28.8794 276.423 28.7996 276.43 28.7067C276.438 28.6138 276.544 28.5504 276.661 28.5491L297.762 29.5798C297.879 29.5857 297.969 29.6616 297.968 29.7512L297.373 52.6734C297.371 52.7657 297.273 52.8389 297.154 52.8389Z" fill="#FEF1E4"/>
<path d="M117.317 124.329C117.317 107.967 100.119 94.7039 78.9056 94.7039C57.6918 94.7039 40.4941 107.967 40.4941 124.329C40.4941 139.717 55.7075 152.362 75.1659 153.812L69.0094 167.786L84.5314 153.635C103.077 151.535 117.317 139.216 117.317 124.329Z" fill="#0060FF"/>
<path d="M106.531 112.478H52.543V136.097H106.531V112.478Z" fill="#FEF1E4"/>
<path d="M79.6522 126.034C79.6106 126.034 79.5682 126.025 79.5326 126.007L52.4251 112.623C52.3216 112.572 52.2911 112.466 52.3572 112.387C52.4259 112.307 52.5641 112.285 52.6642 112.334L79.6513 125.658L106.412 112.334C106.513 112.283 106.653 112.307 106.719 112.385C106.786 112.466 106.755 112.571 106.653 112.623L79.7726 126.007C79.7353 126.023 79.6946 126.034 79.6522 126.034Z" fill="#040308"/>
<path d="M52.5436 136.268C52.4741 136.268 52.4063 136.243 52.363 136.196C52.2926 136.118 52.3155 136.011 52.4156 135.956L74.9862 123.622C75.0872 123.568 75.2262 123.588 75.2958 123.663C75.3662 123.741 75.3433 123.847 75.2432 123.902L52.6725 136.237C52.6327 136.258 52.5886 136.268 52.5436 136.268Z" fill="#040308"/>
<path d="M106.528 136.268C106.481 136.268 106.431 136.255 106.392 136.232L85.1828 123.372C85.0861 123.314 85.0691 123.206 85.1455 123.132C85.2226 123.059 85.3626 123.047 85.4567 123.104L106.665 135.963C106.762 136.021 106.779 136.129 106.703 136.203C106.659 136.245 106.593 136.268 106.528 136.268Z" fill="#040308"/>
<path d="M363.138 258.127C349.86 277.33 330.404 293.615 306.819 305.387C306.475 305.568 306.132 305.749 305.771 305.906C280.059 318.56 249.515 325.894 216.75 325.894C184.344 325.894 154.113 318.728 128.573 306.316C128.416 306.256 128.244 306.171 128.087 306.086L127.962 300.827L127.571 284L126.821 281.057L103.611 190.794C120.721 158.153 161.259 143.075 169.626 139.975C170.627 139.601 170.69 138.226 170.69 138.226L202.454 134.825L243.509 130.434C243.509 130.434 304.331 153.015 338.41 193.255C351.924 209.214 359.228 234.002 363.138 258.127Z" fill="#FF470C"/>
<path d="M103.607 190.792C103.607 190.792 89.3646 216.354 82.5762 234.832C75.7879 253.311 62.6107 274.869 62.6107 274.869C62.6107 274.869 54.6241 330.305 89.3646 327.533C124.104 324.761 142.074 273.945 142.074 273.945L103.607 190.792Z" fill="#FF470C"/>
<path d="M114.325 300.394C114.059 300.394 113.826 300.247 113.783 300.038C110.844 286.139 92.5129 267.769 92.3281 267.585C92.1423 267.4 92.1856 267.133 92.4264 266.989C92.6673 266.844 93.0124 266.881 93.199 267.065C93.3855 267.251 111.887 285.791 114.869 299.902C114.918 300.132 114.715 300.352 114.414 300.389C114.384 300.393 114.354 300.394 114.325 300.394Z" fill="#040308"/>
<path d="M102.543 250.54L101.23 250.877L100.854 250.974L66.1968 259.78L34.6517 217.067C32.5249 214.172 34.7458 210.505 39.0155 209.926L66.4478 206.187L66.8913 206.236L67.1203 206.114C69.5761 205.97 71.9531 206.946 73.142 208.635L102.543 250.54Z" fill="#040308"/>
<path d="M101.234 250.878L100.858 250.975C92.491 238.719 83.8422 226.078 74.9593 213.726C73.7237 212.013 72.3321 210.072 70.4546 208.516C69.2352 207.49 67.8741 206.707 66.4512 206.188L66.5606 206.176C66.748 206.152 66.9362 206.128 67.1236 206.116C68.4058 206.635 69.6414 207.382 70.7523 208.311C72.645 209.891 74.0519 211.857 75.2875 213.583C84.1712 225.969 92.8515 238.61 101.234 250.878Z" fill="#FEF1E4"/>
<path d="M67.3871 211.229C66.9334 211 66.417 210.915 65.8853 210.987L57.9089 212.133C56.8294 212.29 56.1102 213.086 56.3138 213.918C56.4079 214.328 56.7047 214.678 57.1423 214.908C57.4866 215.089 57.8775 215.173 58.2684 215.173C58.3939 215.173 58.5186 215.173 58.6441 215.149L66.6205 214.003C67.1369 213.931 67.5906 213.702 67.9027 213.364C68.2003 213.026 68.3097 212.616 68.2156 212.218C68.1223 211.808 67.8247 211.458 67.3871 211.229ZM67.5745 213.195C67.3243 213.46 66.9648 213.653 66.5425 213.713L58.5661 214.859C58.1438 214.919 57.7215 214.848 57.3619 214.654C57.0176 214.473 56.7836 214.195 56.7047 213.87C56.5325 213.194 57.1109 212.555 57.9716 212.422L65.9633 211.276C66.0574 211.265 66.1507 211.265 66.2601 211.265C66.573 211.265 66.8859 211.337 67.1513 211.482C67.5109 211.662 67.7458 211.94 67.8238 212.266C67.9035 212.592 67.8094 212.917 67.5745 213.195Z" fill="#FEF1E4"/>
<path d="M62.6113 274.869C62.6113 274.869 62.6113 268.248 61.2138 262.089C59.8162 255.929 53.2272 248.384 52.4292 246.844C51.6304 245.304 40.6495 236.834 42.4464 232.676C44.2434 228.519 54.0269 218.971 57.6199 220.511C61.2138 222.051 53.0279 235.14 53.0279 235.14L57.9531 239.862C57.9531 239.862 66.206 236.68 71.5959 235.91C76.9868 235.14 97.551 231.136 98.1506 234.062C98.7493 236.988 69.2003 246.073 69.2003 246.073L70.3986 247.459C70.3986 247.459 107.934 236.834 110.13 240.068C112.327 243.301 83.2069 253.931 83.2069 253.931C83.2069 253.931 106.737 245.611 108.534 247.921C110.331 250.231 92.3612 260.24 92.3612 260.24C92.3612 260.24 94.5575 271.943 88.1686 275.947C81.7797 279.951 66.6046 278.565 62.6113 274.869Z" fill="#FFB4DC"/>
<path d="M128.566 306.316C128.41 306.256 128.238 306.172 128.081 306.087C127.862 305.99 127.658 305.894 127.455 305.785L127.345 301.696L126.814 281.057L125.704 238.573L125.141 216.981C125.141 216.74 125.376 216.547 125.688 216.547C125.985 216.535 126.235 216.728 126.251 216.957L126.877 241.106L128.409 300.175L128.566 306.316Z" fill="#040308"/>
<path d="M297.156 216.933L306.822 305.387C306.477 305.568 306.134 305.749 305.774 305.906L296.061 217.006C296.046 216.777 296.265 216.572 296.562 216.548C296.875 216.523 297.14 216.705 297.156 216.933Z" fill="#040308"/>
<path d="M169.223 18.3761C156.504 16.0229 144.427 12.7625 129.863 17.8522C118.995 21.6502 113.429 29.1109 113.101 38.2054C103.483 37.5742 93.8929 42.7045 89.3212 49.262C84.7505 55.8194 85.9478 64.5456 92.3749 70.1011C97.6835 74.6898 105.806 76.8789 113.765 77.2517C121.725 77.6245 129.647 76.3707 137.434 75.0483C139.669 74.6689 141.362 72.9795 142.882 71.659C151.712 63.9917 159.42 55.5552 165.81 46.5621C168.769 42.3984 171.47 38.0648 172.776 33.425C174.081 28.7839 171.852 22.6692 169.223 18.3761Z" fill="#0060FF"/>
<path d="M162.971 22.49C168.936 16.1072 179.576 12.5218 189.702 13.4832C199.827 14.444 209.023 19.9112 212.804 27.2194C222.063 25.0513 232.88 29.0749 237.652 35.5676C242.425 42.0603 241.857 50.383 237.603 57.0876C243.786 61.4468 246.984 67.8532 246.833 74.3125C246.524 87.5562 235.397 100.287 219.596 105.477C204.809 77.3387 185.015 47.6432 162.971 22.49Z" fill="#0060FF"/>
<path d="M243.506 130.434C243.506 130.434 231.917 158.455 197.571 153.219C197.571 153.219 181.306 151.579 171.406 141.881C170.78 141.278 170.187 140.651 169.623 139.975L167.871 135.681L163.242 124.27L220.734 92.2437L243.506 130.434Z" fill="#FFB4DC"/>
<path d="M208.439 128.226C203.465 135.597 194.503 141.555 183.947 143.244C181.381 143.654 178.708 143.811 176.142 143.401C174.469 143.135 172.843 142.605 171.404 141.881C170.778 141.278 170.184 140.65 169.621 139.975L167.869 135.68C181.475 123.956 195.426 111.266 213.381 103.956C214.663 112.207 213.412 120.844 208.439 128.226Z" fill="#040308"/>
<path d="M154.9 135.118C184.277 141.613 220.69 127.84 221.345 101.143C221.62 89.5674 220.982 80.6155 220.176 74.2C219.709 70.4602 219.161 67.5824 218.731 65.5431C218.515 62.7007 217.952 59.8438 216.941 57.0118C209.292 35.5827 180.445 23.0225 152.512 28.954C141.029 31.3923 131.505 36.5671 124.779 43.3135C118.999 49.1123 115.3 56.0817 114.232 63.3547C113.008 71.6911 116.17 79.4821 118.897 87.4215C120.937 93.3622 123.014 99.2643 125.748 105.05C130.549 115.214 137.31 128.032 150.245 133.603C151.721 134.237 153.274 134.758 154.9 135.118Z" fill="#FFB4DC"/>
<path d="M150.804 108.864C150.728 108.864 150.652 108.852 150.581 108.827C150.426 108.774 150.31 108.67 150.27 108.542C147.514 99.9898 144.787 91.306 142.163 82.7315C142.093 82.5033 142.276 82.2744 142.572 82.2201C142.87 82.173 143.165 82.3071 143.235 82.536C145.803 90.928 148.47 99.4247 151.165 107.8C153.424 106.804 155.476 105.565 157.273 104.11C157.483 103.941 157.831 103.936 158.052 104.096C158.271 104.257 158.28 104.527 158.07 104.697C156.029 106.348 153.672 107.734 151.064 108.814C150.984 108.847 150.894 108.864 150.804 108.864Z" fill="#040308"/>
<path d="M161.347 112.924C159.335 112.924 157.679 111.615 157.059 111.125C156.847 110.956 156.851 110.688 157.069 110.524C157.285 110.362 157.633 110.364 157.847 110.531C159.584 111.903 161.004 112.343 162.316 111.921C164.046 111.36 164.212 109.715 164.232 108.077C164.235 107.844 164.496 107.671 164.788 107.658C165.092 107.661 165.337 107.852 165.333 108.087C165.315 109.506 165.283 111.88 162.743 112.703C162.264 112.858 161.796 112.924 161.347 112.924Z" fill="#040308"/>
<path d="M135.619 90.5686C136.201 92.1585 135.225 93.7629 133.438 94.1521C131.652 94.5412 129.732 93.568 129.149 91.978C128.566 90.388 129.543 88.7837 131.329 88.3945C133.116 88.0054 135.036 88.9786 135.619 90.5686Z" fill="#040308"/>
<path d="M167.163 81.4838C167.746 83.0738 166.77 84.6782 164.983 85.0673C163.196 85.4565 161.277 84.4833 160.694 82.8933C160.111 81.3033 161.087 79.699 162.874 79.3098C164.661 78.9206 166.582 79.8939 167.163 81.4838Z" fill="#040308"/>
<path d="M118.443 80.2234C118.103 80.9069 117.918 81.733 118.468 82.3295C119.052 82.9619 120.209 83.0698 121.213 83.0149C122.442 82.9475 123.65 82.7225 124.823 82.4308C127.342 81.8062 129.856 80.784 131.214 79.0324C131.928 78.1115 132.232 76.8492 131.361 76.0127C131.053 75.7171 130.627 75.5065 130.184 75.343C125.798 73.7295 119.983 77.1305 118.443 80.2234Z" fill="#0060FF"/>
<path d="M153.582 76.3736C153.242 77.0571 153.057 77.8831 153.607 78.4796C154.19 79.1121 155.347 79.22 156.351 79.165C157.581 79.0977 158.788 78.872 159.962 78.581C162.481 77.9564 164.995 76.9341 166.353 75.1826C167.067 74.2617 167.371 72.9994 166.499 72.1629C166.192 71.8672 165.766 71.6566 165.322 71.4931C160.937 69.8796 155.122 73.2806 153.582 76.3736Z" fill="#0060FF"/>
<path d="M221.154 62.843C225.373 62.189 229.89 63.4172 233.009 65.7038C236.129 67.9903 237.917 71.2285 238.421 74.5249C239.565 81.9862 233.825 89.7713 224.927 92.8289C222.683 93.6 220.18 94.0951 217.768 93.7347C214.535 93.2521 211.928 91.2677 210.535 88.9668C209.141 86.6659 208.8 84.0726 208.727 81.5336C208.521 74.3175 209.699 64.6181 221.154 62.843Z" fill="#FFB4DC"/>
<path d="M219.905 82.5795C219.859 82.5795 219.812 82.5762 219.766 82.5664C219.448 82.5076 219.253 82.261 219.329 82.0164C219.904 80.1726 220.499 78.2654 221.525 76.4786C222.701 74.4328 224.274 72.8657 226.201 71.8225C226.468 71.6786 226.838 71.7283 227.026 71.9343C227.214 72.1403 227.149 72.4242 226.881 72.5694C225.133 73.5151 223.695 74.956 222.607 76.8488C221.625 78.5591 221.043 80.4251 220.48 82.2309C220.414 82.4395 220.172 82.5795 219.905 82.5795Z" fill="#040308"/>
<path d="M170.465 17.4919C164.401 19.6601 158.63 22.5156 154.325 26.4582C150.019 30.4014 147.287 35.5304 147.79 40.6712C148.057 43.4038 149.349 46.2116 152.111 47.9363C156.189 50.4825 162.511 49.9128 166.713 47.4903C165.908 51.1935 165.337 54.9882 166.276 58.6731C167.214 62.358 170.284 65.9604 174.94 67.0579C178.317 67.8539 182.077 67.2175 185.093 65.7995C188.109 64.3822 190.461 62.2514 192.401 59.9753C192.179 63.6242 193.222 67.2548 195.84 70.2987C198.458 73.3426 202.982 75.5297 207.715 75.4159C209.673 75.3688 211.596 74.9424 213.37 74.3021C222.44 71.0286 226.715 62.4286 225.549 54.7567C224.383 47.0848 218.844 40.233 212.681 34.1452C207.714 29.2392 202.17 24.5837 195.42 21.1722C188.67 17.7601 177.786 14.8738 170.465 17.4919Z" fill="#0060FF"/>
<path d="M14.9642 174.981H81.5033C85.0285 174.981 87.8855 177.185 87.8855 179.903V190.586C87.8855 193.305 85.0277 195.509 81.5033 195.509H62.9395L64.5287 206.191L54.311 195.509H14.9642C11.439 195.509 8.58203 193.305 8.58203 190.586V179.903C8.58203 177.185 11.439 174.981 14.9642 174.981Z" fill="#FEF1E4"/>
<path d="M34.7137 184.953C34.7137 186.237 33.3654 187.276 31.7016 187.276C30.0386 187.276 28.6895 186.236 28.6895 184.953C28.6895 183.67 30.0378 182.63 31.7016 182.63C33.3645 182.631 34.7137 183.671 34.7137 184.953Z" fill="#B8B9FD"/>
<path d="M45.8622 184.953C45.8622 186.237 44.5138 187.276 42.85 187.276C41.1871 187.276 39.8379 186.236 39.8379 184.953C39.8379 183.67 41.1862 182.63 42.85 182.63C44.5138 182.631 45.8622 183.671 45.8622 184.953Z" fill="#B8B9FD"/>
<path d="M57.0223 184.953C57.0223 186.237 55.674 187.276 54.0102 187.276C52.3472 187.276 50.998 186.236 50.998 184.953C50.998 183.67 52.3464 182.63 54.0102 182.63C55.674 182.631 57.0223 183.671 57.0223 184.953Z" fill="#B8B9FD"/>
<path d="M68.1747 184.953C68.1747 186.237 66.8263 187.276 65.1625 187.276C63.4996 187.276 62.1504 186.236 62.1504 184.953C62.1504 183.67 63.4987 182.63 65.1625 182.63C66.8263 182.631 68.1747 183.671 68.1747 184.953Z" fill="#B8B9FD"/>
<path d="M127.714 142.979L135.425 144.808L127.714 146.638L125.343 152.585L122.97 146.638L115.26 144.808L122.97 142.979L125.343 137.032L127.714 142.979Z" fill="#FEF1E4"/>
<path d="M101.314 165.441L106.939 166.776L101.314 168.111L99.5831 172.449L97.8523 168.111L92.2266 166.776L97.8523 165.441L99.5831 161.102L101.314 165.441Z" fill="#FEF1E4"/>
<path d="M355.176 189.463L360.802 190.798L355.176 192.133L353.446 196.472L351.716 192.133L346.09 190.798L351.716 189.463L353.446 185.125L355.176 189.463Z" fill="#FEF1E4"/>
<path d="M378.311 208.603L384.585 210.092L378.311 211.58L376.381 216.419L374.451 211.58L368.178 210.092L374.451 208.603L376.381 203.765L378.311 208.603Z" fill="#FEF1E4"/>
<path d="M248.312 108.338L254.586 109.827L248.312 111.315L246.382 116.154L244.451 111.315L238.178 109.827L244.451 108.338L246.382 103.499L248.312 108.338Z" fill="#FEF1E4"/>
<path d="M364.444 228.646L372.142 230.472L364.444 232.299L362.075 238.237L359.707 232.299L352.008 230.472L359.707 228.646L362.075 222.708L364.444 228.646Z" fill="#FEF1E4"/>
</svg>
