<svg width="417" height="335" viewBox="0 0 417 335" fill="none" xmlns="http://www.w3.org/2000/svg">
<path d="M371.054 2.1361H303.348C282.703 2.1361 265.194 12.1809 259.42 25.9596L237.284 21.7757C235.756 21.4866 234.206 21.2656 232.647 21.1132C231.474 18.013 228.704 15.4001 225.027 13.7833C225.176 9.73935 222.813 5.77782 218.307 3.04588C215.043 1.08113 210.917 0 206.693 0C203.038 0 199.502 0.791392 196.537 2.25645C194.892 3.06092 192.981 3.52856 191.005 3.61032C186.111 3.81438 181.625 5.40566 178.365 8.09051C175.184 10.7113 173.548 14.0704 173.735 17.5316C167.881 19.8123 161.399 21.2001 154.965 21.4421C150.069 21.6279 145.57 23.2015 142.29 25.8739C140.612 27.2422 139.365 28.8158 138.575 30.4967C135.349 32.7577 133.329 35.9377 133.329 39.4695V75.1051L93.4319 66.4756C91.8464 66.1329 90.2376 65.9681 88.6485 65.9681C82.6013 65.9681 76.8509 68.3586 73.8197 72.4071L14.2201 152.026C11.7692 155.301 11.4581 159.212 13.3726 162.675C15.2897 166.137 19.2273 168.782 24.0962 169.876L86.8749 183.98L85.2501 186.25C78.5086 184.436 71.3402 183.484 64.0898 183.484C30.1461 183.484 2.53125 203.748 2.53125 228.657C2.53125 243.619 12.7977 257.396 28.9482 265.7C25.9821 272.1 26.139 279.111 29.5178 285.503C33.6434 293.308 42.1603 299.418 52.8893 302.268L169.092 333.137C173.421 334.287 177.94 334.87 182.528 334.87C197.327 334.87 210.754 328.882 217.57 319.242L245.281 280.058C247.148 280.579 249.166 280.877 251.282 280.877H331.441C340.785 280.877 348.36 275.317 348.36 268.46V254.019C348.36 251.843 347.592 249.799 346.252 248.02C365.683 238.256 378.462 221.86 378.462 203.311C378.462 200.476 378.151 197.645 377.531 194.834C390.562 186.356 398.279 174.091 398.279 161.03C398.279 141.94 382.059 125.577 359.2 118.975L382.596 85.8896C384.271 83.5232 385.477 81.0313 386.204 78.478C404.12 73.8748 417 61.3433 417 46.6457V35.852C416.999 17.2608 396.389 2.1361 371.054 2.1361Z" fill="white"/>
<path d="M95.126 252.207C112.638 239.356 112.639 218.52 95.1266 205.669C77.6145 192.818 49.2215 192.818 31.7091 205.669C14.1966 218.521 14.1963 239.357 31.7084 252.208C49.2205 265.059 77.6135 265.058 95.126 252.207Z" fill="#FF899A"/>
<path d="M354.472 191.402C377.353 184.447 388.219 165.197 378.741 148.405C369.263 131.614 343.031 123.64 320.149 130.596C297.268 137.551 286.402 156.801 295.88 173.593C305.358 190.384 331.591 198.358 354.472 191.402Z" fill="#FFD0C4"/>
<path d="M321.459 243.111C351.29 236.483 368.151 213.363 359.118 191.472C350.086 169.581 318.581 157.208 288.75 163.837C258.919 170.465 242.059 193.585 251.091 215.476C260.124 237.367 291.629 249.74 321.459 243.111Z" fill="#FFF5EE"/>
<path d="M305.095 245.407C273.587 245.407 247.953 226.597 247.953 203.476C247.953 180.354 273.587 161.544 305.095 161.544C336.601 161.544 362.234 180.354 362.234 203.476C362.234 226.597 336.601 245.407 305.095 245.407ZM305.095 162.579C274.366 162.579 249.366 180.926 249.366 203.476C249.366 226.026 274.367 244.373 305.095 244.373C335.823 244.373 360.822 226.026 360.822 203.476C360.822 180.925 335.823 162.579 305.095 162.579Z" fill="#8F8FEF"/>
<path d="M337.662 204.954H303.855C303.465 204.954 303.148 204.722 303.148 204.436V186.269C303.148 185.983 303.465 185.752 303.855 185.752C304.245 185.752 304.561 185.983 304.561 186.269V203.919H337.662C338.051 203.919 338.368 204.151 338.368 204.436C338.368 204.722 338.051 204.954 337.662 204.954Z" fill="#8F8FEF"/>
<path d="M45.6019 267.791L207.451 41.5601C212.338 34.7279 222.988 31.2609 233.171 33.1857L353.844 56.0007C367.954 58.6685 375.017 70.2752 368.304 79.766L202.521 314.193C197.284 321.598 185.382 325.009 174.691 322.17L57.9539 291.159C45.035 287.727 39.216 276.717 45.6019 267.791Z" fill="#401A49"/>
<path d="M224.429 37.9375L349.269 59.9055C354.606 60.8447 357.348 65.1947 354.87 68.7874L190.246 307.37C188.314 310.171 183.844 311.481 179.814 310.428L57.8997 278.576C53.0441 277.308 50.8329 273.186 53.2063 269.829L214.903 41.1299C216.702 38.5857 220.632 37.2691 224.429 37.9375Z" fill="#FFF5EE"/>
<path d="M243.755 37.1531L238.664 44.9094C236.36 48.4209 238.96 52.6068 244.085 53.633L307.482 66.3214C311.202 67.0657 315.139 65.8793 317.072 63.4306L325.245 53.0764L243.755 37.1531Z" fill="#401A49"/>
<path d="M336.676 117.443C336.218 117.443 335.755 117.371 335.316 117.218L333.194 116.477C331.607 115.925 330.929 114.53 331.678 113.367L344.54 93.3634C345.249 92.2672 347.011 91.7401 348.558 92.1757L350.835 92.8127C351.664 93.0442 352.328 93.5223 352.659 94.1247C352.989 94.7284 352.959 95.4125 352.578 96.0012L339.561 116.108C339.015 116.95 337.869 117.443 336.676 117.443ZM345.183 93.5858L332.321 113.589C331.735 114.494 332.264 115.579 333.497 116.008L335.619 116.749C336.858 117.181 338.335 116.791 338.923 115.885L351.941 95.7794C352.241 95.3151 352.262 94.7964 352 94.3196C351.74 93.8441 351.237 93.4818 350.585 93.2987L348.307 92.6616C347.112 92.33 345.731 92.731 345.183 93.5858Z" fill="#FFF5EE"/>
<path d="M28.2188 157.96L88.0884 77.9761L253.882 113.837L194.524 195.323L28.2188 157.96Z" fill="#FFA766"/>
<path d="M185.506 144.219C179.172 158.821 160.536 169.412 138.509 169.412C111.242 169.412 89.1309 153.185 89.1309 133.176C89.1309 113.166 111.242 96.9397 138.509 96.9397C144.03 96.9397 149.355 97.5977 154.315 98.8318L135.399 130.543L185.506 144.219Z" fill="#8F8FEF"/>
<path d="M142.084 128.8L160.21 101.497C160.21 101.497 179.291 104.647 185.492 116.198C191.693 127.749 185.015 140.002 185.015 140.002L142.084 128.8Z" fill="#FFD0C4"/>
<path d="M257.984 135.612L268.834 119.688L293.064 125.261L283.299 141.45L257.984 135.612Z" fill="#FFD0C4"/>
<path d="M243.035 159.231L253.884 143.308L278.114 148.881L268.351 165.07L243.035 159.231Z" fill="#FFD0C4"/>
<path d="M225.979 184.044L236.828 168.121L261.058 173.694L251.293 189.883L225.979 184.044Z" fill="#FFD0C4"/>
<path d="M271.239 135.463C271.116 135.463 270.996 135.445 270.88 135.407C270.608 135.318 270.415 135.134 270.368 134.918L269.165 129.408C269.089 129.055 269.416 128.723 269.898 128.666C270.403 128.616 270.831 128.852 270.909 129.204L271.896 133.735L287.277 126.448C287.684 126.257 288.232 126.338 288.498 126.641C288.763 126.941 288.645 127.342 288.236 127.537L271.718 135.361C271.573 135.428 271.407 135.463 271.239 135.463Z" fill="#401A49"/>
<path d="M256.11 158.874C255.994 158.874 255.876 158.856 255.768 158.821C255.507 158.736 255.326 158.56 255.281 158.354L254.138 153.107C254.064 152.771 254.376 152.455 254.835 152.401C255.307 152.342 255.723 152.577 255.796 152.913L256.736 157.227L271.389 150.287C271.778 150.103 272.298 150.183 272.551 150.47C272.801 150.756 272.691 151.139 272.301 151.323L256.566 158.775C256.428 158.84 256.268 158.874 256.11 158.874Z" fill="#401A49"/>
<path d="M237.546 184.529C237.43 184.529 237.314 184.511 237.206 184.476C236.944 184.391 236.759 184.215 236.715 184.008L235.578 178.713C235.508 178.375 235.819 178.06 236.28 178.007C236.729 177.953 237.168 178.183 237.241 178.52L238.175 182.87L252.704 175.876C253.092 175.69 253.611 175.769 253.869 176.053C254.124 176.338 254.015 176.721 253.625 176.907L238.007 184.427C237.867 184.496 237.707 184.529 237.546 184.529Z" fill="#401A49"/>
<path d="M167.256 38.8821H149.975V82.8004H167.256V38.8821Z" fill="#F05D6A"/>
<path d="M191.506 31.1963H174.225V82.8003H191.506V31.1963Z" fill="#FFA766"/>
<path d="M216.369 23.7849H199.088V82.7999H216.369V23.7849Z" fill="#FF899A"/>
<path d="M155.665 35.2953C154.918 35.2953 154.298 34.8663 154.258 34.3142C154.219 33.7439 154.817 33.2586 155.594 33.2292C174.182 32.532 192.438 25.1871 203.236 14.0592C203.687 13.5961 204.563 13.483 205.201 13.8172C205.834 14.1481 205.983 14.793 205.532 15.2587C194.246 26.8882 175.165 34.5647 155.736 35.2933C155.712 35.294 155.689 35.2953 155.665 35.2953Z" fill="#401A49"/>
<path d="M204.178 23.5688C203.439 23.5688 202.817 23.1437 202.775 22.5943C202.583 20.1822 203.028 17.6118 204.069 15.0382C200.332 16.4005 196.238 17.1998 192.049 17.3751C191.26 17.3881 190.607 16.9722 190.563 16.4018C190.518 15.8315 191.111 15.3436 191.888 15.3109C196.891 15.1029 201.736 13.9158 205.9 11.8791C206.418 11.6254 207.099 11.6502 207.577 11.9413C208.057 12.231 208.221 12.7163 207.981 13.1362C206.18 16.3005 205.354 19.5301 205.585 22.4753C205.631 23.045 205.037 23.5335 204.262 23.5675C204.234 23.5675 204.205 23.5688 204.178 23.5688Z" fill="#401A49"/>
<path d="M371.79 13.8506H303.774C287.67 13.8506 274.615 23.4303 274.615 35.2476V46.091C274.615 57.9082 287.67 67.488 303.774 67.488H321.546L317.704 86.692L336.015 67.488H371.79C387.894 67.488 400.948 57.9082 400.948 46.091V35.2476C400.949 23.4303 387.895 13.8506 371.79 13.8506Z" fill="#8F8FEF"/>
<path d="M357.868 39.744V54.405H317.895V39.744C317.895 31.6417 326.848 25.0706 337.89 25.0706C343.41 25.0706 348.393 26.7135 352.011 29.3689C355.63 32.0243 357.868 35.6929 357.868 39.744Z" fill="#FFD2A7"/>
<path d="M317.898 53.8119C318.066 53.8119 318.251 53.7995 318.487 53.8119L317.898 53.8243L317.359 53.8492C317.359 53.8368 317.545 53.8243 317.898 53.8119Z" fill="#401A49"/>
<path d="M360.872 56.1362H313.172C312.342 56.1362 311.668 55.6417 311.668 55.0321C311.668 54.4226 312.341 53.9281 312.623 53.864H360.323C361.703 53.9281 362.376 54.4226 362.376 55.0321C362.376 55.6424 361.703 56.1362 360.872 56.1362Z" fill="#FFD2A7"/>
<path d="M342.823 57.7132C342.823 59.6289 340.707 61.1822 338.096 61.1822C335.486 61.1822 333.369 59.6289 333.369 57.7132C333.369 55.7975 335.485 54.2441 338.096 54.2441C340.706 54.2441 342.823 55.7975 342.823 57.7132Z" fill="#FFD2A7"/>
<path d="M339.709 26.8875H335.52V22.9063C335.52 22.0574 336.457 21.3687 337.615 21.3687C338.772 21.3687 339.709 22.0567 339.709 22.9063V26.8875Z" fill="#FFD2A7"/>
<path d="M357.978 54.0686H317.893C317.711 54.0686 317.562 53.9594 317.562 53.8253C317.562 53.6913 317.711 53.582 317.893 53.582H357.978C358.159 53.582 358.308 53.6913 358.308 53.8253C358.308 53.9594 358.159 54.0686 357.978 54.0686Z" fill="#401A49"/>
<path d="M260.193 254.681H236.043V272.403H260.193V254.681Z" fill="#FFA766"/>
<path d="M298.476 254.681H274.326V272.403H298.476V254.681Z" fill="#FF899A"/>
<path d="M334.407 254.681H310.258V272.403H334.407V254.681Z" fill="#FFD2A7"/>
<path d="M107.195 220.072L108.579 218.041C111.586 213.628 118.515 211.47 124.93 212.948L178.467 225.284C186.65 227.171 190.485 234.05 186.446 239.604L178.775 250.154L114.994 234.071C107.161 232.096 103.491 225.509 107.195 220.072Z" fill="#8F8FEF"/>
<path d="M136.749 227.897C136.115 229.543 133.791 230.503 131.558 230.041C129.324 229.578 128.028 227.868 128.66 226.222C129.294 224.575 131.618 223.615 133.851 224.078C136.085 224.54 137.382 226.25 136.749 227.897Z" fill="#FFF5EE"/>
<path d="M148.879 230.41C148.246 232.057 145.922 233.016 143.689 232.554C141.455 232.091 140.158 230.381 140.791 228.734C141.424 227.087 143.748 226.128 145.982 226.59C148.216 227.053 149.513 228.763 148.879 230.41Z" fill="#FFF5EE"/>
<path d="M160.78 232.874C160.147 234.521 157.823 235.48 155.589 235.018C153.356 234.555 152.059 232.845 152.692 231.199C153.325 229.552 155.649 228.592 157.882 229.055C160.117 229.517 161.413 231.227 160.78 232.874Z" fill="#FFF5EE"/>
<path d="M188.686 270.069L189.348 267.852C190.785 263.032 187.242 258.158 180.984 256.351L128.768 241.273C120.786 238.968 111.914 242.553 110.302 248.736L107.24 260.481L170.636 277.366C178.422 279.44 186.915 276.006 188.686 270.069Z" fill="#F05D6A"/>
<path d="M156.484 261.551C155.725 263.169 156.889 264.929 159.084 265.483C161.278 266.037 163.672 265.175 164.43 263.557C165.189 261.939 164.025 260.178 161.83 259.624C159.636 259.07 157.242 259.932 156.484 261.551Z" fill="#FFF5EE"/>
<path d="M144.566 258.541C143.807 260.159 144.971 261.919 147.166 262.473C149.36 263.027 151.754 262.165 152.512 260.547C153.271 258.929 152.107 257.168 149.912 256.614C147.718 256.06 145.325 256.922 144.566 258.541Z" fill="#FFF5EE"/>
<path d="M132.878 255.591C132.12 257.209 133.284 258.969 135.478 259.523C137.672 260.077 140.066 259.215 140.825 257.597C141.583 255.979 140.419 254.218 138.225 253.664C136.031 253.11 133.637 253.973 132.878 255.591Z" fill="#FFF5EE"/>
</svg>
