<svg width="417" height="335" viewBox="0 0 417 335" fill="none" xmlns="http://www.w3.org/2000/svg">
<path d="M237.137 294.298C234.166 294.298 231.323 293.085 229.461 290.955L227.004 288.146C214.237 291.41 201.066 293.06 187.754 293.06C158.589 293.06 130.654 285.28 106.764 270.537C104.594 270.482 102.766 270.392 101.388 270.309C99.1114 270.448 95.7557 270.593 91.7632 270.593C67.5817 270.593 52.012 265.679 45.4891 255.988C38.124 245.045 44.3015 227.316 52.7707 206.908C51.3347 203.138 50.0931 199.289 49.0593 195.403C47.6654 194.232 46.5118 192.851 45.6651 191.316C43.7484 187.836 43.182 184.211 43.9259 180.739C43.7662 180.592 43.6094 180.443 43.4563 180.291C39.6466 176.516 37.9709 171.406 38.4767 165.098C38.7037 162.259 40.0503 157.447 45.9284 153.411C48.1712 133.081 55.827 113.689 68.3101 96.6432C67.8797 95.8752 67.5743 95.042 67.4138 94.1679C66.8415 91.0387 68.2295 87.8778 71.0365 85.9279L79.9546 79.7314L83.7118 70.2244C84.8943 67.233 87.813 65.0556 91.3247 64.5448C91.8483 64.4683 92.3733 64.4314 92.8939 64.4314C95.1848 64.4314 97.4003 65.1532 99.1476 66.4604C124.298 48.6356 155.385 38.9171 187.755 38.9171C194.975 38.9171 202.22 39.4115 209.392 40.3884C210.875 38.4609 213.196 37.1161 215.854 36.7292C216.378 36.6527 216.902 36.6165 217.424 36.6165C220.394 36.6165 223.236 37.8294 225.097 39.9579L228.925 44.3344C278.004 57.5203 315.503 93.5357 326.764 137.868H393.785C399.161 137.868 403.518 141.752 403.518 146.544L403.52 189.768H407.267C412.642 189.768 417 193.652 417 198.444V258.951C416.998 263.743 412.641 267.625 407.267 267.625H273.264C265.819 272.61 257.843 276.936 249.473 280.527L246.319 288.505C245.136 291.495 242.217 293.673 238.706 294.184C238.182 294.261 237.658 294.298 237.137 294.298Z" fill="white"/>
<path d="M281.737 251.153C333.603 204.917 333.603 129.953 281.737 83.7176C229.871 37.4817 145.779 37.4817 93.9123 83.7176C42.046 129.953 42.046 204.917 93.9123 251.153C145.779 297.388 229.871 297.388 281.737 251.153Z" fill="#FFA9DD"/>
<path d="M266.339 141.044C265.681 134.775 258.825 130.514 252.03 132.229C244.659 134.089 234.065 135.263 220.127 133.22C189.892 128.79 160.486 118.452 145.989 121.036C131.493 123.621 95.8732 130.267 83.8619 133.959C71.8506 137.651 59.0111 140.974 60.6675 149.466C62.324 157.958 66.0516 157.588 66.0516 157.588C66.0516 157.588 48.6562 160.173 48.6562 167.188C48.6562 174.204 51.9698 178.634 58.1822 178.265C58.1822 178.265 51.9698 180.48 55.2827 188.972C58.5963 197.464 133.977 190.449 133.977 190.449C133.977 190.449 80.9617 199.68 83.0329 209.648C85.1035 219.617 96.2865 219.617 123.208 215.925C150.129 212.233 212.67 218.14 234.622 212.971C247.051 210.044 257.621 206.881 264.452 204.688C269.33 203.121 272.403 198.819 271.921 194.217L266.339 141.044Z" fill="#FF8C9D"/>
<path d="M69.964 158.358C68.0702 158.358 66.677 158.178 65.9294 157.774C59.0368 154.05 60.4159 145.459 60.4307 145.372C60.4506 145.255 60.5771 145.172 60.7058 145.191C60.8381 145.209 60.9298 145.319 60.9091 145.436C60.8951 145.52 59.5655 153.831 66.1794 157.404C72.8479 161 135.56 145.538 136.194 145.381C136.321 145.348 136.455 145.416 136.491 145.532C136.527 145.646 136.452 145.765 136.322 145.797C134.014 146.369 85.402 158.357 69.964 158.358Z" fill="#512651"/>
<path d="M58.5976 178.487C58.4372 178.487 58.2959 178.485 58.1739 178.481C55.006 178.384 52.5509 177.493 50.8775 175.835C48.9371 173.912 48.1089 170.998 48.4158 167.174C49.0436 159.333 65.3298 157.452 66.0227 157.376C66.1632 157.365 66.2748 157.446 66.2926 157.564C66.3089 157.682 66.2142 157.789 66.0818 157.804C65.9162 157.822 49.4984 159.717 48.8987 167.206C48.6021 170.907 49.3897 173.715 51.2384 175.547C52.8208 177.115 55.1598 177.958 58.1917 178.051C58.3122 178.055 58.4519 178.057 58.6117 178.057C66.2534 178.057 117.278 173.85 117.804 173.806C117.942 173.791 118.055 173.883 118.067 174.001C118.079 174.119 117.981 174.225 117.848 174.236C117.321 174.278 66.2793 178.486 58.5976 178.487Z" fill="#512651"/>
<path d="M95.9367 193.871C81.9902 193.871 65.8793 192.575 59.8991 192.047C57.6075 191.845 55.5821 190.627 54.6134 188.87C51.0469 182.394 57.9765 178.129 58.0467 178.086C58.1555 178.019 58.3063 178.045 58.3825 178.144C58.4572 178.243 58.4276 178.377 58.3174 178.443C58.0453 178.607 51.6688 182.545 55.0482 188.679C55.9429 190.303 57.8205 191.429 59.9472 191.616C68.3809 192.361 96.9971 194.636 111.16 192.635C111.299 192.616 111.416 192.698 111.438 192.815C111.458 192.932 111.369 193.043 111.236 193.062C107.082 193.65 101.693 193.871 95.9367 193.871Z" fill="#512651"/>
<path d="M135.364 197.587C132.05 183.804 118.089 130.39 118.089 130.39C118.089 130.39 120.574 130.637 124.715 129.159C128.134 127.94 125.157 119.845 124.013 117.056C123.78 116.487 123.171 116.113 122.492 116.113H104.163H98.7607H80.4306C79.751 116.113 79.1431 116.487 78.9095 117.056C77.7655 119.845 74.7884 127.94 78.207 129.159C82.3488 130.637 84.8341 130.39 84.8341 130.39C84.8341 130.39 71.8564 183.434 66.6793 199.495C63.0374 210.794 46.4539 241.894 53.9086 252.97C61.364 264.047 90.08 263.801 101.401 263.062H101.522C112.843 263.8 141.559 264.047 149.015 252.97C156.47 241.894 138.127 209.083 135.364 197.587Z" fill="#FFE9DC"/>
<path d="M119.072 118.544C119.072 119.104 110.682 119.559 100.331 119.559C89.9807 119.559 81.5898 119.104 81.5898 118.544C81.5898 117.983 89.9807 117.529 100.331 117.529C110.682 117.529 119.072 117.984 119.072 118.544Z" fill="#BD6EEB"/>
<path d="M104.989 130.852C104.988 130.852 104.988 130.852 104.985 130.852L84.8287 130.606C84.6949 130.604 84.5884 130.506 84.5899 130.386C84.5921 130.268 84.6993 130.174 84.8324 130.174C84.8331 130.174 84.8339 130.174 84.8361 130.174L104.993 130.42C105.127 130.422 105.233 130.52 105.232 130.639C105.229 130.758 105.121 130.852 104.989 130.852Z" fill="#FFA9DD"/>
<path d="M140.621 240.424C140.621 242.087 140.086 244.01 138.886 245.977C135.446 251.616 126.811 257.151 109.631 258.611C91.9333 260.115 74.4839 259.122 65.1237 252.846C62.2035 250.907 60.0627 248.493 58.8781 245.586C54.7089 235.246 75.6516 181.856 82.4814 165.024C82.579 164.778 82.6758 164.546 82.8052 164.315C84.2169 161.466 87.0557 159.355 90.4943 158.632C99.3029 156.738 115.022 153.585 116.806 154.641C116.968 154.741 117.163 154.987 117.374 155.364C120.375 160.57 127.724 190.721 128.746 194.64C129.849 198.819 140.621 234.017 140.621 240.424Z" fill="#FFA9DD"/>
<path d="M117.376 155.364C117.262 155.509 117.149 155.653 117.019 155.797C114.975 158.053 111.779 159.167 108.827 160.367C104.058 162.305 99.4833 164.763 94.3572 165.732C91.7779 166.224 85.3867 166.441 82.8066 164.315C84.2183 161.466 87.0571 159.355 90.4957 158.632C99.3043 156.738 115.023 153.585 116.808 154.641C116.97 154.742 117.166 154.988 117.376 155.364Z" fill="#BD6EEB"/>
<path d="M116.289 163.711C115.416 164.765 115.155 166.124 115.095 167.432C114.931 171.051 116.114 174.606 117.471 178.02C118.357 180.251 119.422 182.577 121.548 183.994C122.37 184.542 123.496 184.931 124.408 184.511C125.23 184.132 125.563 183.248 125.727 182.436C126.363 179.275 125.566 176.03 124.551 172.948C123.763 170.562 120.725 158.353 116.289 163.711Z" fill="white"/>
<path d="M122.599 190.189C122.417 192.099 122.713 194.045 123.459 195.844C123.752 196.551 124.13 197.255 124.755 197.763C125.38 198.27 126.3 198.547 127.095 198.29C128.29 197.904 128.69 196.583 128.746 195.452C128.858 193.176 128.34 190.209 126.641 188.403C124.626 186.261 122.817 187.914 122.599 190.189Z" fill="white"/>
<path d="M62.0257 245.15C62.9855 247.444 65.11 249.457 67.8032 249.941C68.6654 250.096 69.788 249.962 70.0749 249.22C70.205 248.885 70.1155 248.514 69.9928 248.177C69.6519 247.238 69.064 246.386 68.6758 245.462C67.4519 242.553 68.2602 239.104 66.5535 236.394C66.1054 235.682 65.3969 235.005 64.4844 234.935C63.6163 234.869 62.7992 235.391 62.3414 236.052C60.6377 238.517 60.9483 242.574 62.0257 245.15Z" fill="white"/>
<path d="M138.885 245.977C135.446 251.616 126.589 257.661 109.409 259.122C91.7116 260.626 74.4833 259.122 65.123 252.845C66.9562 253.41 68.708 254.147 69.5355 254.407C74.6127 255.954 79.8689 257.039 85.1894 257.632C90.981 258.283 96.8532 258.37 102.66 257.849C115.591 256.678 128.179 252.528 138.885 245.977Z" fill="#512651"/>
<path d="M165.18 132.113C165.18 132.113 96.978 142.205 93.9409 152.79C91.2685 162.102 96.7021 167.558 102.777 168.543C108.852 169.527 161.314 167.312 161.314 167.312C161.314 167.312 159.381 183.065 180.643 191.68L203.008 163.866L165.18 132.113Z" fill="#FF8C9D"/>
<path d="M179.332 186.419C179.296 186.419 179.261 186.412 179.227 186.398C165.95 180.654 157.709 168.062 156.831 166.676C154.433 166.845 125.241 168.882 111.822 168.882C97.6958 168.882 94.0007 167.446 92.9425 156.685C92.0455 147.576 107.166 143.881 116.199 141.674C117.857 141.268 119.29 140.919 120.444 140.585C128.022 138.394 160.508 130.143 160.834 130.06C160.965 130.028 161.098 130.094 161.134 130.208C161.171 130.323 161.096 130.442 160.967 130.475C160.641 130.558 128.164 138.806 120.594 140.995C119.429 141.333 117.991 141.683 116.327 142.09C107.439 144.262 92.5631 147.897 93.4246 156.647C94.4717 167.29 98.0744 168.45 111.822 168.45C125.733 168.45 156.637 166.258 156.948 166.236C157.044 166.22 157.135 166.273 157.18 166.349C157.263 166.485 165.591 180.019 179.438 186.01C179.558 186.062 179.608 186.191 179.55 186.298C179.508 186.374 179.422 186.419 179.332 186.419Z" fill="#512651"/>
<path d="M105.007 165.707C104.585 165.707 104.161 165.696 103.738 165.672C101.131 165.527 99.1936 164.859 97.9779 163.688C96.9293 162.678 96.4553 161.331 96.1595 160.27C95.3357 157.317 95.4932 154.812 96.6291 152.827C97.7967 150.788 99.8998 149.514 101.459 148.805C107.441 146.082 112.225 146.803 114.59 150.78C115.886 152.956 116.04 155.51 116.029 157.491C116.019 159.368 115.795 161.722 114.135 163.275C112.974 164.361 111.313 164.844 110.164 165.113C108.476 165.509 106.747 165.707 105.007 165.707ZM108.039 147.594C105.717 147.594 103.356 148.425 101.679 149.19C100.183 149.87 98.1679 151.088 97.0594 153.024C95.9783 154.914 95.8327 157.317 96.6283 160.168C96.9101 161.179 97.3582 162.458 98.3328 163.396C99.4613 164.483 101.29 165.104 103.767 165.243C105.883 165.361 107.993 165.177 110.039 164.698C111.775 164.291 112.965 163.745 113.784 162.98C115.325 161.537 115.534 159.289 115.545 157.491C115.555 155.56 115.407 153.074 114.163 150.983C112.64 148.424 110.359 147.594 108.039 147.594ZM101.569 148.997H101.575H101.569Z" fill="#512651"/>
<path d="M178.776 123.219C199.89 120.164 214.229 102.43 210.802 83.6076C207.375 64.7856 187.481 52.0037 166.367 55.0584C145.253 58.113 130.915 75.8476 134.341 94.6696C137.768 113.492 157.662 126.273 178.776 123.219Z" fill="#FFE9DC"/>
<path d="M156.226 117.838L131.223 124.175L147.156 107.786L156.226 117.838Z" fill="#FFE9DC"/>
<path d="M170.055 96.9416L169.606 97.0425C169.1 97.0425 168.708 96.8414 168.427 96.3906C167.583 94.8388 167.134 93.3352 167.134 91.8816C167.134 88.2244 169.831 86.0207 172.641 83.7161C173.99 82.5652 174.945 81.6634 175.451 81.0108C175.957 80.3588 176.238 79.6581 176.238 79.0061C176.238 77.0516 174.383 76.0997 172.36 76.0997C170.112 76.0997 167.865 77.1525 166.122 78.3562C165.841 78.5051 165.617 78.6053 165.336 78.6053C164.998 78.6053 164.717 78.4544 164.493 78.1545L162.526 75.55C162.356 75.399 162.301 75.1492 162.301 74.898C162.301 74.548 162.469 74.248 162.75 73.9962C165.785 71.7418 169.044 70.6389 172.529 70.6389C178.261 70.6389 182.644 73.6963 182.644 78.9053C182.644 82.2125 180.902 84.318 178.374 86.5724L177.306 87.5243C176.014 88.5751 175.115 89.4287 174.552 90.0787C173.99 90.7307 173.709 91.4314 173.709 92.1341C173.709 92.7841 173.877 93.5369 174.271 94.3886C174.328 94.5876 174.383 94.7386 174.383 94.8394C174.383 94.9884 174.328 95.1895 174.215 95.3404C174.047 95.4894 173.877 95.6404 173.709 95.6905L170.055 96.9416ZM166.403 104.657C166.403 102.352 168.481 100.499 171.067 100.499C173.709 100.499 175.731 102.304 175.731 104.657C175.731 107.012 173.708 108.815 171.067 108.815C168.481 108.815 166.403 106.961 166.403 104.657Z" fill="#7182FF"/>
<path d="M407.328 199.89V204.388L402.961 231.802L407.328 256.947V260.394H284.576L276.448 259.102L268.743 260.394H212.485L204.22 258.698L196.685 260.394H190.715C173.617 260.394 159.764 246.844 159.764 230.127C159.764 221.768 163.219 214.22 168.816 208.754C174.428 203.259 182.166 199.89 190.715 199.89H407.328V199.89Z" fill="#AD27FC"/>
<path d="M407.335 204.389V256.948H334.324C332.471 256.948 330.652 256.772 328.906 256.42C328.295 256.297 327.7 256.156 327.106 255.98C323.975 255.136 321.076 253.746 318.52 251.916C318.322 251.775 318.125 251.634 317.927 251.476C316.343 250.297 314.902 248.942 313.642 247.429C313.498 247.289 313.39 247.148 313.264 246.989C312.238 245.74 311.338 244.386 310.564 242.943C310.474 242.802 310.402 242.661 310.331 242.503C309.647 241.218 309.088 239.846 308.639 238.438C308.603 238.297 308.549 238.157 308.513 237.999C308.117 236.697 307.829 235.341 307.667 233.952C307.649 233.811 307.631 233.653 307.613 233.512C307.505 232.579 307.451 231.629 307.451 230.662C307.451 230.257 307.469 229.852 307.487 229.465C307.487 229.307 307.487 229.166 307.505 229.026C307.595 227.635 307.793 226.281 308.081 224.961C308.117 224.803 308.154 224.662 308.189 224.521C308.531 223.131 308.981 221.776 309.539 220.474C309.612 220.334 309.665 220.175 309.738 220.035C310.385 218.61 311.142 217.255 312.023 215.987C312.131 215.829 312.239 215.689 312.347 215.548C313.229 214.316 314.22 213.155 315.317 212.082C315.515 211.888 315.731 211.677 315.947 211.501C316.109 211.343 316.271 211.202 316.433 211.061C318.287 209.442 320.375 208.07 322.643 206.996C322.967 206.838 323.291 206.697 323.633 206.557C326.909 205.167 330.527 204.393 334.325 204.393H407.335V204.389Z" fill="#FFE9DC"/>
<path d="M407.337 206.553V206.992H322.645C322.968 206.834 323.292 206.693 323.635 206.553H407.337Z" fill="#FFB289"/>
<path d="M407.334 211.058V211.497H315.945C316.107 211.339 316.269 211.198 316.431 211.058H407.334Z" fill="#FFB289"/>
<path d="M407.334 211.058V211.497H315.945C316.107 211.339 316.269 211.198 316.431 211.058H407.334Z" fill="#FFB289"/>
<path d="M407.335 215.544V215.984H312.021C312.129 215.826 312.237 215.685 312.345 215.544H407.335Z" fill="#FFB289"/>
<path d="M407.335 215.544V215.984H312.021C312.129 215.826 312.237 215.685 312.345 215.544H407.335Z" fill="#FFB289"/>
<path d="M407.336 220.031V220.471H309.539C309.612 220.331 309.665 220.172 309.737 220.031H407.336Z" fill="#FFB289"/>
<path d="M407.336 220.031V220.471H309.539C309.612 220.331 309.665 220.172 309.737 220.031H407.336Z" fill="#FFB289"/>
<path d="M407.335 224.518V224.958H308.08C308.116 224.8 308.153 224.659 308.188 224.518H407.335Z" fill="#FFB289"/>
<path d="M407.335 224.518V224.958H308.08C308.116 224.8 308.153 224.659 308.188 224.518H407.335Z" fill="#FFB289"/>
<path d="M407.333 229.023V229.463H307.484C307.484 229.304 307.484 229.163 307.502 229.023H407.333Z" fill="#FFB289"/>
<path d="M407.335 233.51V233.95H307.665C307.648 233.809 307.629 233.651 307.611 233.51H407.335Z" fill="#FFB289"/>
<path d="M407.335 233.51V233.95H307.665C307.648 233.809 307.629 233.651 307.611 233.51H407.335Z" fill="#FFB289"/>
<path d="M407.331 237.997V238.437H308.634C308.598 238.296 308.543 238.155 308.508 237.997H407.331Z" fill="#FFB289"/>
<path d="M407.335 242.502V242.941H310.564C310.474 242.8 310.402 242.66 310.33 242.502H407.335Z" fill="#FFB289"/>
<path d="M407.332 246.988V247.428H313.64C313.495 247.287 313.387 247.146 313.262 246.988H407.332Z" fill="#FFB289"/>
<path d="M407.33 251.475V251.915H318.516C318.318 251.774 318.12 251.633 317.922 251.475H407.33Z" fill="#FFB289"/>
<path d="M407.33 255.98V256.42H328.901C328.29 256.297 327.695 256.156 327.102 255.98H407.33Z" fill="#FFB289"/>
<path d="M212.487 260.394H196.686C188.397 250.301 184.228 237.56 185.234 225.066C185.947 216.13 189.321 207.41 194.788 199.89H214.709C210.897 204.907 208.155 210.663 206.581 216.462C202.592 231.097 204.798 246.989 212.487 260.394Z" fill="#FFA9DD"/>
<path d="M284.575 260.394H268.742C260.469 250.301 256.283 237.56 257.306 225.066C258.02 216.13 261.394 207.41 266.861 199.89H286.765C282.953 204.907 280.211 210.663 278.638 216.462C274.664 231.111 276.853 246.989 284.575 260.394Z" fill="#FFA9DD"/>
<path d="M393.846 147.99V151.859L389.535 176.872L393.846 197.002V199.959H196.765C181.208 199.959 168.604 188.329 168.604 173.967C168.604 166.787 171.734 160.303 176.828 155.607C181.938 150.883 188.978 147.99 196.765 147.99H393.846Z" fill="#5B6DF6"/>
<path d="M393.85 151.86V197.003H327.421C325.734 197.003 324.08 196.852 322.491 196.549C321.934 196.444 321.393 196.323 320.853 196.172C318.003 195.447 315.366 194.252 313.04 192.681C312.86 192.559 312.68 192.439 312.5 192.303C311.059 191.29 309.748 190.127 308.602 188.827C308.471 188.706 308.373 188.585 308.258 188.449C307.325 187.376 306.506 186.212 305.802 184.973C305.72 184.852 305.655 184.731 305.589 184.595C304.966 183.492 304.459 182.313 304.049 181.104C304.017 180.984 303.967 180.863 303.935 180.727C303.574 179.609 303.313 178.444 303.165 177.251C303.148 177.13 303.132 176.994 303.116 176.873C303.018 176.072 302.969 175.256 302.969 174.425C302.969 174.077 302.985 173.729 303.001 173.397C303.001 173.261 303.001 173.14 303.018 173.019C303.1 171.825 303.279 170.661 303.542 169.528C303.574 169.392 303.608 169.271 303.64 169.15C303.952 167.957 304.36 166.792 304.868 165.674C304.934 165.554 304.983 165.417 305.049 165.297C305.638 164.073 306.326 162.909 307.128 161.821C307.227 161.685 307.325 161.564 307.423 161.443C308.226 160.385 309.126 159.388 310.125 158.466C310.306 158.3 310.502 158.118 310.698 157.967C310.846 157.831 310.994 157.71 311.141 157.589C312.827 156.199 314.727 155.02 316.791 154.098C317.086 153.962 317.38 153.841 317.692 153.721C320.673 152.527 323.965 151.862 327.42 151.862H393.85V151.86Z" fill="#FFE9DC"/>
<path d="M393.847 153.719V154.096H316.789C317.084 153.961 317.378 153.839 317.69 153.719H393.847Z" fill="#FFB289"/>
<path d="M393.854 157.587V157.965H310.703C310.85 157.829 310.998 157.708 311.145 157.587H393.854Z" fill="#FFB289"/>
<path d="M393.854 157.587V157.965H310.703C310.85 157.829 310.998 157.708 311.145 157.587H393.854Z" fill="#FFB289"/>
<path d="M393.846 161.441V161.819H307.125C307.223 161.683 307.322 161.562 307.42 161.441H393.846Z" fill="#FFB289"/>
<path d="M393.846 161.441V161.819H307.125C307.223 161.683 307.322 161.562 307.42 161.441H393.846Z" fill="#FFB289"/>
<path d="M393.854 165.295V165.673H304.873C304.939 165.552 304.988 165.416 305.053 165.295H393.854Z" fill="#FFB289"/>
<path d="M393.854 165.295V165.673H304.873C304.939 165.552 304.988 165.416 305.053 165.295H393.854Z" fill="#FFB289"/>
<path d="M393.853 169.149V169.527H303.545C303.577 169.391 303.611 169.27 303.643 169.149H393.853Z" fill="#FFB289"/>
<path d="M393.853 169.149V169.527H303.545C303.577 169.391 303.611 169.27 303.643 169.149H393.853Z" fill="#FFB289"/>
<path d="M393.852 173.018V173.396H303.004C303.004 173.26 303.004 173.139 303.02 173.018H393.852Z" fill="#FFB289"/>
<path d="M393.851 176.872V177.25H303.166C303.15 177.129 303.133 176.993 303.117 176.872H393.851Z" fill="#FFB289"/>
<path d="M393.851 176.872V177.25H303.166C303.15 177.129 303.133 176.993 303.117 176.872H393.851Z" fill="#FFB289"/>
<path d="M393.85 180.725V181.103H304.05C304.018 180.982 303.968 180.862 303.936 180.725H393.85Z" fill="#FFB289"/>
<path d="M393.853 184.595V184.973H305.805C305.723 184.851 305.658 184.731 305.592 184.595H393.853Z" fill="#FFB289"/>
<path d="M393.848 188.449V188.826H308.602C308.471 188.706 308.372 188.585 308.258 188.449H393.848Z" fill="#FFB289"/>
<path d="M393.854 192.302V192.68H313.044C312.864 192.559 312.684 192.438 312.504 192.302H393.854Z" fill="#FFB289"/>
<path d="M393.856 196.171V196.549H322.497C321.94 196.444 321.4 196.322 320.859 196.171H393.856Z" fill="#FFB289"/>
<path d="M268.644 182.617H201.007C194.663 182.617 189.473 177.99 189.473 172.335C189.473 166.68 194.663 162.053 201.007 162.053H268.644C274.988 162.053 280.178 166.68 280.178 172.335C280.178 177.99 274.988 182.617 268.644 182.617Z" fill="#FFB289"/>
<path d="M284.949 166.372C281.185 166.372 276.613 165.032 271.517 162.385C263.231 158.082 254.505 150.822 246.944 141.943C239.383 133.063 233.886 123.619 231.463 115.347C229.007 106.958 230.009 100.742 234.287 97.8482C238.565 94.9543 245.549 95.7631 253.954 100.129C262.239 104.432 270.966 111.692 278.527 120.571C286.088 129.451 291.585 138.895 294.007 147.167C296.464 155.556 295.461 161.772 291.183 164.666C289.499 165.806 287.395 166.372 284.949 166.372ZM240.534 96.951C238.288 96.951 236.366 97.4632 234.84 98.4962C230.875 101.178 229.99 107.089 232.348 115.141C234.741 123.312 240.183 132.655 247.672 141.45C255.161 150.246 263.793 157.431 271.977 161.682C280.042 165.871 286.667 166.7 290.631 164.018C294.595 161.336 295.48 155.425 293.122 147.373C290.73 139.203 285.289 129.86 277.799 121.064C270.309 112.268 261.677 105.084 253.493 100.832C248.534 98.2569 244.12 96.951 240.534 96.951Z" fill="#512651"/>
<path d="M248.137 170.579C246.891 170.579 245.711 170.376 244.609 169.966C239.652 168.122 236.931 162.332 236.943 153.66C236.957 145.112 239.617 134.738 244.433 124.451L244.854 124.608L244.433 124.451C254.425 103.106 270.765 88.7958 280.85 92.548C290.938 96.3015 291.017 116.72 281.026 138.063C276.21 148.351 269.809 157.333 263.002 163.354C257.633 168.102 252.489 170.578 248.137 170.579ZM277.292 92.7444C267.637 92.7444 254.05 106.021 245.277 124.764C240.506 134.954 237.871 145.217 237.858 153.661C237.846 161.982 240.368 167.505 244.961 169.214C249.552 170.922 255.733 168.637 262.359 162.776C269.082 156.829 275.413 147.941 280.183 137.749C289.98 116.82 290.122 96.8796 280.498 93.2995C279.493 92.9251 278.418 92.7444 277.292 92.7444Z" fill="#512651"/>
<path d="M254.679 149.496C246.133 149.496 238.184 148.553 231.63 146.722C222.326 144.123 216.915 140.027 216.393 135.19C215.871 130.352 220.307 125.412 228.886 121.28C237.342 117.205 248.857 114.375 261.304 113.307C287.121 111.089 309.008 117.305 310.071 127.157C310.593 131.995 306.157 136.935 297.578 141.067C289.122 145.142 277.608 147.972 265.16 149.04C261.605 149.345 258.094 149.496 254.679 149.496ZM271.778 113.674C268.422 113.674 264.948 113.82 261.392 114.125C249.063 115.182 237.674 117.979 229.323 122.003C221.092 125.968 216.826 130.623 217.31 135.112C217.793 139.601 222.977 143.445 231.906 145.94C240.965 148.469 252.743 149.281 265.072 148.224C277.401 147.167 288.79 144.37 297.141 140.346C305.372 136.381 309.638 131.726 309.154 127.237C308.282 119.155 292.325 113.674 271.778 113.674Z" fill="#512651"/>
<path d="M261.824 138.267C266.247 138.267 269.832 135.071 269.832 131.128C269.832 127.186 266.247 123.99 261.824 123.99C257.402 123.99 253.816 127.186 253.816 131.128C253.816 135.071 257.402 138.267 261.824 138.267Z" fill="#7182FF"/>
<path d="M228.385 68.6475L223.68 80.5513L214.975 70.5974L201.621 66.4036L212.787 58.6435L217.492 46.739L226.198 56.6929L239.551 60.8874L228.385 68.6475Z" fill="#BD6EEB"/>
<path d="M241.914 275.163L237.21 287.067L228.505 277.113L215.15 272.919L226.316 265.158L231.022 253.255L239.727 263.209L253.08 267.403L241.914 275.163Z" fill="#F7607D"/>
<path d="M103.856 96.4617L99.1503 108.366L90.4452 98.4116L77.0918 94.2178L88.2579 86.4577L92.9631 74.5532L101.668 84.5071L115.022 88.7016L103.856 96.4617Z" fill="#F7607D"/>
<path d="M177.854 280.601C168.928 280.601 161.666 274.127 161.666 266.17C161.666 258.214 168.928 251.74 177.854 251.74C186.78 251.74 194.042 258.214 194.042 266.17C194.042 274.127 186.78 280.601 177.854 280.601ZM177.854 252.171C169.195 252.171 162.15 258.451 162.15 266.169C162.15 273.889 169.194 280.169 177.854 280.169C186.514 280.169 193.558 273.889 193.558 266.169C193.557 258.452 186.513 252.171 177.854 252.171Z" fill="#FFE9DC"/>
<path d="M159.958 228.854C153.4 228.854 148.064 224.098 148.064 218.251C148.064 212.405 153.4 207.649 159.958 207.649C166.517 207.649 171.852 212.405 171.852 218.251C171.852 224.097 166.517 228.854 159.958 228.854ZM159.958 207.964C153.596 207.964 148.419 212.579 148.419 218.251C148.419 223.922 153.596 228.537 159.958 228.537C166.321 228.537 171.497 223.922 171.497 218.251C171.497 212.579 166.321 207.964 159.958 207.964Z" fill="#FFE9DC"/>
<path d="M220.685 112.634C215.739 112.634 211.715 109.047 211.715 104.638C211.715 100.228 215.739 96.6409 220.685 96.6409C225.632 96.6409 229.656 100.228 229.656 104.638C229.657 109.046 225.632 112.634 220.685 112.634ZM220.685 96.8802C215.888 96.8802 211.984 100.36 211.984 104.638C211.984 108.915 215.888 112.395 220.685 112.395C225.483 112.395 229.388 108.915 229.388 104.638C229.388 100.361 225.484 96.8802 220.685 96.8802Z" fill="#FFE9DC"/>
<path d="M250.09 88.6352C245.143 88.6352 241.119 85.0478 241.119 80.6384C241.119 76.229 245.143 72.6423 250.09 72.6423C255.036 72.6423 259.06 76.229 259.06 80.6384C259.06 85.0472 255.036 88.6352 250.09 88.6352ZM250.09 72.8816C245.292 72.8816 241.388 76.3609 241.388 80.6378C241.388 84.9147 245.291 88.3952 250.09 88.3952C254.887 88.3952 258.79 84.9153 258.79 80.6378C258.79 76.3602 254.887 72.8816 250.09 72.8816Z" fill="#FFE9DC"/>
<path d="M341.906 151.497H329.48V174.758H341.906V151.497Z" fill="#FFB289"/>
<path d="M347.699 204.295H335.273V231.801H347.699V204.295Z" fill="#FFB289"/>
</svg>
