<svg width="40" height="40" viewBox="0 0 40 40" fill="none" xmlns="http://www.w3.org/2000/svg">
<g clip-path="url(#clip0_112_9365)">
<path d="M20.0001 37.1689C29.4822 37.1689 37.169 29.4822 37.169 20.0001C37.169 10.518 29.4822 2.83124 20.0001 2.83124C10.518 2.83124 2.8313 10.518 2.8313 20.0001C2.8313 29.4822 10.518 37.1689 20.0001 37.1689Z" fill="url(#paint0_linear_112_9365)"/>
<path d="M7.84346 16.6913C8.41216 16.5243 8.98393 16.3444 9.55765 16.1518C10.4886 15.8393 10.9829 14.8238 10.658 13.8971L10.6578 13.8965C10.3391 12.9875 9.34903 12.5004 8.43601 12.8075C7.90566 12.9858 7.37774 13.1522 6.85334 13.3064C6.04872 13.5431 5.5208 14.3113 5.59154 15.1471C5.68558 16.2577 6.77397 17.0053 7.84346 16.6913Z" fill="url(#paint1_linear_112_9365)"/>
<path d="M13.1879 23.8016C13.1879 23.2117 13.0534 22.6532 12.8137 22.155C13.9364 22.1482 14.8446 21.2362 14.8446 20.1119C14.8446 18.9834 13.9297 18.0685 12.8013 18.0685C11.6728 18.0685 10.7579 18.9834 10.7579 20.1119C10.7579 20.1613 10.7603 20.2101 10.7637 20.2586C10.3366 20.0925 9.87249 20.0003 9.38661 20.0003C7.28716 20.0003 5.58521 21.7023 5.58521 23.8017C5.58521 25.9012 7.28716 27.6031 9.38661 27.6031C11.486 27.603 13.1879 25.9011 13.1879 23.8016Z" fill="url(#paint2_linear_112_9365)"/>
<path d="M15.4679 8.75526C16.5965 8.75526 17.5113 7.84041 17.5113 6.71189C17.5113 5.58337 16.5965 4.66852 15.4679 4.66852C14.3394 4.66852 13.4246 5.58337 13.4246 6.71189C13.4246 7.84041 14.3394 8.75526 15.4679 8.75526Z" fill="url(#paint3_linear_112_9365)"/>
<path d="M20.0001 2.83148C19.4707 2.83148 18.9476 2.85658 18.4307 2.90364C20.7405 3.07383 21.4958 6.05814 19.5923 7.34049C18.3978 8.14441 17.117 8.91304 15.768 9.63382C14.8935 10.1013 14.5374 11.2024 14.9805 12.0887C15.2778 12.6832 15.8715 13.0236 16.4895 13.0236C16.757 13.0236 17.0299 12.9593 17.284 12.8244C18.9538 11.9381 20.5327 10.9797 21.9931 9.97029C22.8393 9.38441 23.9938 9.54441 24.6566 10.3311C24.975 10.7083 25.1287 11.1664 25.1287 11.6205C25.1287 12.2424 24.8409 12.8581 24.2919 13.2519C23.5625 13.7742 22.797 14.284 21.9993 14.7773C21.2911 15.215 20.9538 16.0824 21.2291 16.8675C21.6135 17.9624 22.884 18.3773 23.8323 17.7915C26.2425 16.3013 28.3978 14.6668 30.1915 12.9617C31.0048 12.1883 32.3397 12.4801 32.764 13.5193C32.7679 13.5295 32.7726 13.5405 32.7766 13.5507C33.0079 14.1209 32.8895 14.7742 32.473 15.2268C31.9875 15.7546 31.3656 16.4142 31.044 16.7162C29.2981 18.3585 27.1664 19.9342 24.764 21.3624C24.3985 20.0056 23.1178 19.0236 21.6244 19.1201C20.0778 19.2213 18.8417 20.4981 18.7876 22.0471C18.7609 22.8158 19.0205 23.524 19.4668 24.073C18.8974 24.3216 18.3272 24.5585 17.7578 24.782C16.8699 25.1303 16.379 26.1099 16.6872 27.0118C17.0135 27.9648 18.066 28.4503 18.9986 28.0855C19.8848 27.7397 20.7711 27.3648 21.655 26.9624C26.5491 24.7303 30.8621 21.8605 33.9868 18.7789C34.0158 19.182 34.0299 19.5899 34.0299 20.0001C34.0299 20.404 34.0158 20.804 33.9883 21.2001C31.557 23.6832 28.2166 26.0495 24.3907 27.9797C19.9233 30.233 15.3703 31.6032 11.5437 31.8463C11.4817 31.8502 11.4197 31.8542 11.3578 31.8573C9.7272 31.9467 8.32171 31.8126 7.23779 31.4832C8.65975 33.0628 10.3703 34.3765 12.2872 35.342C13.4927 35.2393 14.7507 35.044 16.0448 34.76C19.2401 34.0597 22.6495 32.8259 25.9868 31.142C26.0103 31.1302 26.0338 31.1185 26.0574 31.1067C27.5554 30.3475 28.8636 32.3883 27.5499 33.4353C25.0009 35.4651 21.8621 36.7859 18.4307 37.0965C18.9476 37.1436 19.4707 37.1687 20.0001 37.1687C29.4825 37.1687 37.1687 29.4824 37.1687 20.0001C37.1687 10.5177 29.4825 2.83148 20.0001 2.83148ZM26.9711 10.4252C25.8425 10.4252 24.928 9.51068 24.928 8.38206C24.928 7.25343 25.8425 6.33893 26.9711 6.33893C28.0997 6.33893 29.015 7.25343 29.015 8.38206C29.015 9.51068 28.0997 10.4252 26.9711 10.4252ZM31.1068 31.0699C29.9781 31.0699 29.0628 30.1553 29.0628 29.0267C29.0628 27.8981 29.9781 26.9828 31.1068 26.9828C32.2354 26.9828 33.1499 27.8981 33.1499 29.0267C33.1499 30.1553 32.2354 31.0699 31.1068 31.0699Z" fill="url(#paint4_linear_112_9365)"/>
<path d="M39.3749 10.2236C38.0565 7.60953 34.8855 6.24404 30.4071 6.34365C31.8722 7.46208 33.1522 8.8111 34.193 10.3366C35.1844 10.6668 35.8848 11.1695 36.2126 11.8189C36.5404 12.4676 36.5287 13.3279 36.2071 14.3201C35.8463 15.4307 35.0973 16.706 33.9985 18.0354C33.9593 18.0825 33.92 18.1295 33.88 18.1766C31.411 21.1115 27.604 23.9601 23.1358 26.215C18.6683 28.4683 14.1154 29.8385 10.2887 30.0816C10.2268 30.0856 10.1648 30.0895 10.1028 30.0926C8.38284 30.1867 6.91304 30.0322 5.80716 29.6628C4.81579 29.3326 4.1154 28.8299 3.78756 28.1805C3.45972 27.5318 3.47148 26.6722 3.79305 25.6801C3.19697 23.9781 2.86129 22.1538 2.83383 20.255C0.0910951 23.7985 -0.694786 27.1616 0.625212 29.7765C1.89893 32.302 4.90128 33.662 9.14049 33.662C9.28951 33.662 9.4401 33.6605 9.59304 33.6565C9.82362 33.6518 10.0581 33.6424 10.2958 33.6299C11.7209 33.5522 13.2299 33.3373 14.7899 32.9954C17.9852 32.295 21.3946 31.0612 24.7318 29.3773C28.0683 27.6934 31.0863 25.684 33.5483 23.5303C34.7506 22.4785 35.8204 21.3922 36.7295 20.2919C36.8808 20.1091 37.0267 19.9272 37.1663 19.7452C39.04 17.3248 40 14.9891 40 12.9178C40 11.9562 39.793 11.0527 39.3749 10.2236Z" fill="url(#paint5_linear_112_9365)"/>
<path d="M40 12.9178C40 14.9891 39.04 17.3248 37.1663 19.7452C37.0267 19.9272 36.8808 20.1091 36.7294 20.2919C35.8204 21.3922 34.7506 22.4785 33.5483 23.5303C31.0863 25.684 28.0683 27.6934 24.7318 29.3773C21.3946 31.0612 17.9852 32.295 14.7899 32.9954C13.2299 33.3373 11.7208 33.5522 10.2958 33.6299C10.0581 33.6424 9.8236 33.6518 9.59301 33.6565C9.44007 33.6605 9.28948 33.662 9.14046 33.662C8.61419 33.662 8.10674 33.6409 7.6189 33.5993C8.16478 33.5585 8.72242 33.4989 9.29027 33.4197C10.0605 33.313 10.8495 33.171 11.651 32.9954C14.8463 32.295 18.2557 31.0612 21.593 29.3773C24.9295 27.6934 27.9475 25.684 30.4094 23.5303C31.6118 22.4785 32.6816 21.3922 33.5906 20.2919C35.0345 18.5444 36.0086 16.8338 36.4965 15.2268C36.7388 14.4291 36.8612 13.6566 36.8612 12.9178C36.8612 11.9562 36.6541 11.0527 36.2361 10.2236C35.291 8.34992 33.393 7.11777 30.7436 6.60718C30.633 6.51777 30.5208 6.42992 30.4071 6.34365C34.8855 6.24404 38.0565 7.60953 39.3749 10.2236C39.793 11.0527 40 11.9562 40 12.9178Z" fill="url(#paint6_linear_112_9365)"/>
<path d="M5.8065 29.6628C4.81512 29.3326 4.11473 28.8298 3.78768 28.1804C3.45983 27.5318 3.4716 26.6722 3.79317 25.68C3.51175 24.877 3.28909 24.0477 3.1294 23.1953C2.94979 22.2407 2.84846 21.2583 2.83395 20.2549C2.13356 21.1598 1.56164 22.0528 1.1189 22.9247C1.19709 23.3803 1.29356 23.8298 1.40729 24.2723C1.61913 25.0968 1.66431 25.9517 1.59662 26.8003C1.55474 27.3252 1.62886 27.791 1.82533 28.1803C2.36493 29.2486 3.91003 29.9184 6.10061 30.0807C6.7461 30.1294 7.44649 30.1333 8.19394 30.0901C8.19394 30.0894 8.19394 30.0894 8.19394 30.0894C7.28171 30.0314 6.477 29.8863 5.8065 29.6628Z" fill="url(#paint7_linear_112_9365)"/>
</g>
<defs>
<linearGradient id="paint0_linear_112_9365" x1="2.83138" y1="20.0001" x2="37.169" y2="20.0001" gradientUnits="userSpaceOnUse">
<stop stop-color="#60B7FF"/>
<stop offset="0.5857" stop-color="#0182FC"/>
<stop offset="1" stop-color="#2740B0"/>
</linearGradient>
<linearGradient id="paint1_linear_112_9365" x1="-6.7973" y1="14.7394" x2="35.6354" y2="14.7394" gradientUnits="userSpaceOnUse">
<stop stop-color="#60B7FF"/>
<stop offset="0.5857" stop-color="#0182FC"/>
<stop offset="1" stop-color="#2740B0"/>
</linearGradient>
<linearGradient id="paint2_linear_112_9365" x1="-6.79736" y1="22.8358" x2="35.6353" y2="22.8358" gradientUnits="userSpaceOnUse">
<stop stop-color="#60B7FF"/>
<stop offset="0.5857" stop-color="#0182FC"/>
<stop offset="1" stop-color="#2740B0"/>
</linearGradient>
<linearGradient id="paint3_linear_112_9365" x1="-6.79729" y1="6.71189" x2="35.6354" y2="6.71189" gradientUnits="userSpaceOnUse">
<stop stop-color="#60B7FF"/>
<stop offset="0.5857" stop-color="#0182FC"/>
<stop offset="1" stop-color="#2740B0"/>
</linearGradient>
<linearGradient id="paint4_linear_112_9365" x1="-6.79677" y1="20.0001" x2="35.6352" y2="20.0001" gradientUnits="userSpaceOnUse">
<stop stop-color="#60B7FF"/>
<stop offset="0.5857" stop-color="#0182FC"/>
<stop offset="1" stop-color="#2740B0"/>
</linearGradient>
<linearGradient id="paint5_linear_112_9365" x1="-1.0878" y1="20.0002" x2="46.5883" y2="20.0002" gradientUnits="userSpaceOnUse">
<stop stop-color="#EAF6FF"/>
<stop offset="0.5213" stop-color="#D8ECFE"/>
<stop offset="1" stop-color="#B3DAFE"/>
</linearGradient>
<linearGradient id="paint6_linear_112_9365" x1="-0.156776" y1="20.0002" x2="30.1259" y2="20.0002" gradientUnits="userSpaceOnUse">
<stop stop-color="#EAF6FF"/>
<stop offset="0.5213" stop-color="#D8ECFE"/>
<stop offset="1" stop-color="#B3DAFE"/>
</linearGradient>
<linearGradient id="paint7_linear_112_9365" x1="-10.2743" y1="25.1875" x2="7.01065" y2="25.1875" gradientUnits="userSpaceOnUse">
<stop stop-color="#EAF6FF"/>
<stop offset="0.5213" stop-color="#D8ECFE"/>
<stop offset="1" stop-color="#B3DAFE"/>
</linearGradient>
<clipPath id="clip0_112_9365">
<rect width="40" height="40" fill="white"/>
</clipPath>
</defs>
</svg>
